<svg width="81pt" height="7pt" viewBox="0 0 81 7" xmlns="http://www.w3.org/2000/svg"><g id="fontsvg1672073507390" stroke-linecap="round" fill-rule="evenodd" fill="#ffff00"><path d="M 30.48 0.512 L 30.288 0.512 A 0.268 0.268 0 0 0 30.169 0.556 Q 29.836 0.749 28.848 1.776 Q 27.632 3.04 27.568 3.04 Q 27.512 3.04 26.567 2.078 A 112.018 112.018 0 0 1 26.272 1.776 A 80.855 80.855 0 0 0 25.961 1.453 Q 25.568 1.049 25.359 0.848 A 5.339 5.339 0 0 0 25.248 0.744 A 2.167 2.167 0 0 0 25.142 0.654 Q 24.964 0.512 24.864 0.512 L 24.656 0.512 L 24.656 3.456 A 464.365 464.365 0 0 0 24.657 4.209 Q 24.659 5.704 24.672 6.016 Q 24.684 6.294 24.746 6.371 A 0.069 0.069 0 0 0 24.8 6.4 A 0.09 0.09 0 0 0 24.877 6.355 Q 24.905 6.312 24.919 6.23 A 0.885 0.885 0 0 0 24.928 6.145 A 4.21 4.21 0 0 0 24.933 6.005 Q 24.942 5.683 24.944 4.819 A 224.647 224.647 0 0 0 24.944 4.416 Q 24.944 2.474 25.05 2.342 A 0.033 0.033 0 0 1 25.056 2.336 Q 25.168 2.256 25.216 2.256 A 0.073 0.073 0 0 1 25.275 2.305 Q 25.36 2.465 25.36 3.152 L 25.36 4.544 L 25.36 5.424 A 27.06 27.06 0 0 1 25.358 5.763 Q 25.35 6.429 25.306 6.61 A 0.431 0.431 0 0 1 25.304 6.616 Q 25.259 6.789 25.097 6.823 A 0.426 0.426 0 0 1 25.008 6.832 L 24.8 6.832 L 24.56 6.832 A 0.27 0.27 0 0 1 24.437 6.805 Q 24.331 6.752 24.294 6.59 A 0.643 0.643 0 0 1 24.288 6.56 A 1.612 1.612 0 0 1 24.272 6.423 Q 24.243 6.08 24.24 5.182 A 61.61 61.61 0 0 1 24.24 5.024 L 24.24 3.472 A 376.455 376.455 0 0 1 24.241 2.696 Q 24.246 0.158 24.288 0.144 Q 24.301 0.104 24.667 0.097 A 8.591 8.591 0 0 1 24.816 0.096 L 25.28 0.096 Q 25.574 0.402 26.088 0.938 A 17444.311 17444.311 0 0 1 26.424 1.288 Q 27.006 1.894 27.367 2.271 A 3707.724 3707.724 0 0 0 27.568 2.48 L 29.872 0.08 L 30.368 0.096 L 30.88 0.128 L 30.88 6.72 L 30.528 6.72 L 30.496 3.616 L 30.48 0.512 Z M 6.96 0.032 L 7.264 0.032 L 7.808 0.048 Q 7.82 0.612 7.837 1.611 A 898.286 898.286 0 0 1 7.848 2.264 Q 7.866 3.397 7.871 4.094 A 62.981 62.981 0 0 1 7.872 4.48 L 8.08 4.8 A 1.552 1.552 0 0 0 8.447 5.206 A 1.344 1.344 0 0 0 9.184 5.472 L 9.328 5.472 A 1.255 1.255 0 0 0 9.785 5.391 A 1.146 1.146 0 0 0 10.184 5.128 Q 10.528 4.784 10.656 4.304 A 1.985 1.985 0 0 1 10.693 4.164 Q 10.779 3.888 10.896 3.888 A 0.19 0.19 0 0 1 11.015 3.93 A 0.262 0.262 0 0 1 11.04 3.952 A 0.255 0.255 0 0 1 11.135 4.136 A 0.324 0.324 0 0 1 11.136 4.16 Q 11.136 4.304 11.024 4.64 A 1.527 1.527 0 0 1 10.874 4.987 Q 10.78 5.149 10.64 5.312 A 2.203 2.203 0 0 1 10.422 5.535 Q 10.238 5.696 10.048 5.776 Q 9.817 5.892 9.377 5.903 A 3.807 3.807 0 0 1 9.28 5.904 Q 8.816 5.904 8.563 5.805 A 0.783 0.783 0 0 1 8.496 5.776 Q 7.872 5.488 7.584 4.896 A 0.709 0.709 0 0 1 7.54 4.73 Q 7.469 4.322 7.447 3.111 A 57.032 57.032 0 0 1 7.44 2.528 L 7.408 0.432 L 7.072 0.432 L 7.072 2.272 A 63.759 63.759 0 0 0 7.075 2.896 Q 7.082 3.634 7.108 4.036 A 6.047 6.047 0 0 0 7.12 4.192 A 3.268 3.268 0 0 0 7.177 4.578 Q 7.218 4.77 7.282 4.932 A 1.729 1.729 0 0 0 7.344 5.072 A 2.196 2.196 0 0 0 8.625 6.145 A 2.902 2.902 0 0 0 8.72 6.176 A 2.372 2.372 0 0 0 8.979 6.233 Q 9.121 6.256 9.248 6.256 A 2.117 2.117 0 0 0 10.334 5.953 A 2.527 2.527 0 0 0 10.376 5.928 Q 10.912 5.6 11.2 5.04 L 11.392 4.688 A 49.751 49.751 0 0 1 11.392 4.665 Q 11.392 3.897 11.416 2.376 Q 11.434 1.194 11.448 0.457 A 225.679 225.679 0 0 1 11.456 0.048 A 0.399 0.399 0 0 1 11.497 0.04 Q 11.542 0.034 11.607 0.032 A 1.8 1.8 0 0 1 11.648 0.032 Q 11.776 0.032 11.84 0.016 L 11.84 2.272 Q 11.84 4.025 11.787 4.545 A 2.758 2.758 0 0 1 11.784 4.576 Q 11.728 5.072 11.472 5.472 Q 11.104 6.048 10.52 6.36 Q 9.936 6.672 9.28 6.672 Q 8.496 6.672 7.808 6.224 Q 7.184 5.824 6.864 5.04 Q 6.72 4.72 6.696 4.368 A 6.289 6.289 0 0 1 6.687 4.194 Q 6.67 3.765 6.658 2.673 A 214.857 214.857 0 0 1 6.656 2.48 L 6.656 1.584 Q 6.656 0.304 6.688 0.176 Q 6.703 0.102 6.717 0.076 A 0.065 0.065 0 0 1 6.72 0.072 A 0.056 0.056 0 0 1 6.737 0.056 Q 6.753 0.046 6.779 0.041 A 0.216 0.216 0 0 1 6.784 0.04 A 0.381 0.381 0 0 1 6.812 0.037 Q 6.858 0.032 6.942 0.032 A 3.833 3.833 0 0 1 6.96 0.032 Z M 34.816 0.416 L 32.896 0.416 L 32.896 3.088 L 36.688 3.088 L 36.672 3.28 L 36.64 3.472 Q 36.162 3.484 35.319 3.487 A 162.292 162.292 0 0 1 34.768 3.488 Q 33.813 3.488 33.223 3.497 A 33.864 33.864 0 0 0 32.896 3.504 L 32.896 6.32 L 36.464 6.32 L 36.464 5.968 L 33.232 5.968 L 33.232 3.712 L 33.408 3.712 Q 33.491 3.712 33.542 3.737 A 0.135 0.135 0 0 1 33.616 3.824 Q 33.655 3.98 33.662 4.487 A 17.46 17.46 0 0 1 33.664 4.736 L 33.664 5.536 L 35.184 5.536 Q 36.704 5.536 36.8 5.632 Q 36.868 5.7 36.878 6.008 A 3.565 3.565 0 0 1 36.88 6.128 Q 36.88 6.592 36.784 6.656 A 0.125 0.125 0 0 1 36.728 6.676 Q 36.528 6.717 35.645 6.72 A 41.698 41.698 0 0 1 35.52 6.72 L 34.608 6.72 L 32.496 6.704 L 32.48 3.44 Q 32.48 0.48 32.532 0.139 A 0.104 0.104 0 0 1 32.544 0.096 Q 32.624 0 34.64 0 Q 35.99 0 36.399 0.03 A 3.053 3.053 0 0 1 36.424 0.032 A 1.865 1.865 0 0 1 36.547 0.046 Q 36.816 0.086 36.816 0.192 Q 36.816 0.206 36.793 0.278 A 3.342 3.342 0 0 1 36.784 0.304 Q 36.756 0.402 35.279 0.414 A 55.048 55.048 0 0 1 34.816 0.416 Z M 69.693 0.05 A 0.709 0.709 0 0 0 69.616 0.064 Q 68.384 0.288 67.6 1.216 Q 66.816 2.144 66.816 3.344 Q 66.816 3.504 66.848 3.824 Q 67.024 5.104 67.968 5.92 Q 68.912 6.736 70.16 6.736 A 3.753 3.753 0 0 0 70.509 6.72 A 3.002 3.002 0 0 0 71.04 6.624 A 2.943 2.943 0 0 0 71.535 6.455 A 3.724 3.724 0 0 0 72.096 6.144 Q 72.484 5.886 72.587 5.705 A 0.247 0.247 0 0 0 72.624 5.584 Q 72.624 5.456 72.328 5.152 A 3.561 3.561 0 0 0 72.227 5.052 Q 72.012 4.848 71.92 4.848 A 0.144 0.144 0 0 0 71.882 4.854 Q 71.805 4.875 71.669 4.975 A 2.525 2.525 0 0 0 71.584 5.04 A 2.838 2.838 0 0 1 71.217 5.286 A 2.105 2.105 0 0 1 70.176 5.568 Q 69.664 5.568 69.168 5.312 A 1.712 1.712 0 0 1 68.702 4.989 A 2.274 2.274 0 0 1 68.392 4.616 Q 68.064 4.128 68.016 3.648 A 2.174 2.174 0 0 0 68.015 3.642 Q 67.987 3.362 67.903 3.247 A 0.172 0.172 0 0 0 67.76 3.168 Q 67.735 3.168 67.714 3.173 A 0.141 0.141 0 0 0 67.68 3.184 Q 67.568 3.232 67.568 3.44 A 0.296 0.296 0 0 0 67.568 3.445 Q 67.569 3.478 67.576 3.544 A 1.672 1.672 0 0 1 67.58 3.588 Q 67.582 3.608 67.583 3.626 A 0.745 0.745 0 0 1 67.584 3.664 Q 67.648 4.528 68.264 5.16 A 2.708 2.708 0 0 0 68.89 5.639 A 3.062 3.062 0 0 0 69.824 5.968 A 5.3 5.3 0 0 0 69.866 5.974 Q 69.994 5.991 70.087 5.997 A 1.425 1.425 0 0 0 70.176 6 Q 70.566 6 70.978 5.859 A 3.559 3.559 0 0 0 71.552 5.6 A 4.972 4.972 0 0 1 71.662 5.544 Q 71.872 5.44 71.936 5.44 Q 71.968 5.44 72.032 5.472 A 0.194 0.194 0 0 1 72.039 5.478 Q 72.139 5.572 71.968 5.696 Q 71.792 5.84 71.328 6.048 Q 70.768 6.304 70.16 6.304 A 2.756 2.756 0 0 1 69.302 6.171 A 2.939 2.939 0 0 1 68.312 5.608 A 2.972 2.972 0 0 1 67.709 4.918 A 3.184 3.184 0 0 1 67.28 3.792 A 2.638 2.638 0 0 1 67.261 3.688 A 2.296 2.296 0 0 1 67.232 3.328 A 2.609 2.609 0 0 1 67.521 2.118 A 3.122 3.122 0 0 1 68.12 1.32 A 3.7 3.7 0 0 1 68.204 1.24 A 2.825 2.825 0 0 1 70.176 0.448 A 1.424 1.424 0 0 1 70.248 0.45 Q 70.43 0.459 70.72 0.512 Q 71.504 0.672 72.096 1.2 A 1.036 1.036 0 0 0 72.152 1.248 Q 72.223 1.305 72.294 1.339 A 0.497 0.497 0 0 0 72.512 1.392 Q 72.622 1.392 72.648 1.317 A 0.162 0.162 0 0 0 72.656 1.264 A 0.207 0.207 0 0 0 72.651 1.22 Q 72.632 1.134 72.544 1.008 A 1.125 1.125 0 0 0 72.493 0.951 Q 72.31 0.764 71.936 0.528 A 5.794 5.794 0 0 0 71.932 0.525 Q 71.651 0.349 71.424 0.254 A 1.705 1.705 0 0 0 71.2 0.176 A 2.813 2.813 0 0 0 71.114 0.152 Q 70.88 0.089 70.609 0.06 A 4.825 4.825 0 0 0 70.08 0.032 A 6.821 6.821 0 0 0 70.057 0.032 Q 69.822 0.033 69.693 0.05 Z M 46.992 6.72 L 46.768 6.72 Q 46.448 6.72 46.384 6.656 Q 46.342 6.614 46.074 5.851 A 61.865 61.865 0 0 1 45.992 5.616 Q 45.648 4.624 45.632 4.608 Q 45.572 4.502 44.971 4.496 A 7.455 7.455 0 0 0 44.896 4.496 A 4.715 4.715 0 0 1 44.635 4.489 Q 44.267 4.469 44.137 4.385 A 0.134 0.134 0 0 1 44.064 4.272 A 0.412 0.412 0 0 1 44.065 4.239 Q 44.068 4.205 44.077 4.184 A 0.099 0.099 0 0 1 44.08 4.176 A 0.076 0.076 0 0 1 44.12 4.136 Q 44.22 4.084 44.554 4.08 A 4.738 4.738 0 0 1 44.608 4.08 L 45.008 4.08 L 45.904 4.112 L 46.112 4.624 Q 46.176 4.784 46.312 5.184 Q 46.423 5.511 46.475 5.656 A 4.789 4.789 0 0 0 46.496 5.712 A 4.442 4.442 0 0 0 46.571 5.906 Q 46.727 6.283 46.843 6.303 A 0.078 0.078 0 0 0 46.848 6.304 A 0.478 0.478 0 0 0 46.873 6.309 Q 46.992 6.329 46.992 6.256 A 0.118 0.118 0 0 0 46.988 6.233 Q 46.962 6.131 46.784 5.635 A 65.103 65.103 0 0 0 46.72 5.456 A 55.15 55.15 0 0 0 46.601 5.131 Q 46.453 4.73 46.369 4.526 A 4.244 4.244 0 0 0 46.336 4.448 L 46.016 3.6 Q 45.696 2.752 45.376 1.92 L 45.056 1.072 Q 45.041 1.072 44.57 2.338 A 276.024 276.024 0 0 0 44.52 2.472 Q 44 3.872 43.448 5.296 Q 42.918 6.664 42.838 6.762 A 0.036 0.036 0 0 1 42.832 6.768 Q 42.731 6.84 42.631 6.757 A 0.324 0.324 0 0 1 42.608 6.736 A 0.041 0.041 0 0 1 42.6 6.723 Q 42.592 6.705 42.592 6.672 Q 42.592 6.393 44.297 1.803 A 602.395 602.395 0 0 1 44.832 0.368 A 0.278 0.278 0 0 1 44.885 0.281 Q 44.939 0.223 45.025 0.211 A 0.34 0.34 0 0 1 45.072 0.208 A 1.515 1.515 0 0 1 45.123 0.209 Q 45.225 0.212 45.244 0.231 A 0.013 0.013 0 0 1 45.248 0.24 Q 45.248 0.32 45.84 1.872 Q 46.44 3.452 46.806 4.432 A 165.906 165.906 0 0 1 47.008 4.976 Q 47.542 6.437 47.552 6.587 A 0.08 0.08 0 0 1 47.552 6.592 A 0.062 0.062 0 0 1 47.516 6.643 Q 47.421 6.701 47.075 6.717 A 4.987 4.987 0 0 1 46.992 6.72 Z M 64.56 6.72 L 64.336 6.72 Q 64.016 6.72 63.952 6.656 Q 63.91 6.614 63.642 5.851 A 61.865 61.865 0 0 1 63.56 5.616 Q 63.216 4.624 63.2 4.608 Q 63.14 4.502 62.539 4.496 A 7.455 7.455 0 0 0 62.464 4.496 A 4.715 4.715 0 0 1 62.203 4.489 Q 61.835 4.469 61.705 4.385 A 0.134 0.134 0 0 1 61.632 4.272 A 0.412 0.412 0 0 1 61.633 4.239 Q 61.636 4.205 61.645 4.184 A 0.099 0.099 0 0 1 61.648 4.176 A 0.076 0.076 0 0 1 61.688 4.136 Q 61.788 4.084 62.122 4.08 A 4.738 4.738 0 0 1 62.176 4.08 L 62.576 4.08 L 63.472 4.112 L 63.68 4.624 Q 63.744 4.784 63.88 5.184 Q 63.991 5.511 64.043 5.656 A 4.789 4.789 0 0 0 64.064 5.712 A 4.442 4.442 0 0 0 64.139 5.906 Q 64.295 6.283 64.411 6.303 A 0.078 0.078 0 0 0 64.416 6.304 A 0.478 0.478 0 0 0 64.441 6.309 Q 64.56 6.329 64.56 6.256 A 0.118 0.118 0 0 0 64.556 6.233 Q 64.53 6.131 64.352 5.635 A 65.103 65.103 0 0 0 64.288 5.456 A 55.15 55.15 0 0 0 64.169 5.131 Q 64.021 4.73 63.937 4.526 A 4.244 4.244 0 0 0 63.904 4.448 L 63.584 3.6 Q 63.264 2.752 62.944 1.92 L 62.624 1.072 Q 62.609 1.072 62.138 2.338 A 276.024 276.024 0 0 0 62.088 2.472 Q 61.568 3.872 61.016 5.296 Q 60.486 6.664 60.406 6.762 A 0.036 0.036 0 0 1 60.4 6.768 Q 60.299 6.84 60.199 6.757 A 0.324 0.324 0 0 1 60.176 6.736 A 0.041 0.041 0 0 1 60.168 6.723 Q 60.16 6.705 60.16 6.672 Q 60.16 6.393 61.865 1.803 A 602.395 602.395 0 0 1 62.4 0.368 A 0.278 0.278 0 0 1 62.453 0.281 Q 62.507 0.223 62.593 0.211 A 0.34 0.34 0 0 1 62.64 0.208 A 1.515 1.515 0 0 1 62.691 0.209 Q 62.793 0.212 62.812 0.231 A 0.013 0.013 0 0 1 62.816 0.24 Q 62.816 0.32 63.408 1.872 Q 64.008 3.452 64.374 4.432 A 165.906 165.906 0 0 1 64.576 4.976 Q 65.11 6.437 65.12 6.587 A 0.08 0.08 0 0 1 65.12 6.592 A 0.062 0.062 0 0 1 65.084 6.643 Q 64.989 6.701 64.643 6.717 A 4.987 4.987 0 0 1 64.56 6.72 Z M 53.344 1.104 L 53.312 0.56 L 53.296 0.016 L 55.824 0.016 L 56.544 0.016 A 49.935 49.935 0 0 1 57.005 0.018 Q 57.901 0.026 58.14 0.07 A 0.699 0.699 0 0 1 58.152 0.072 A 0.485 0.485 0 0 1 58.271 0.111 Q 58.432 0.19 58.432 0.384 L 58.432 0.608 A 1.926 1.926 0 0 1 58.426 0.769 Q 58.404 1.032 58.301 1.098 A 0.14 0.14 0 0 1 58.224 1.12 L 58.176 1.12 A 0.127 0.127 0 0 1 58.082 1.058 Q 58.026 0.972 58.016 0.772 A 1.555 1.555 0 0 1 58.016 0.768 L 58 0.432 L 55.856 0.432 A 241.277 241.277 0 0 0 55.313 0.433 Q 54.236 0.435 54.008 0.448 A 1.068 1.068 0 0 0 53.916 0.457 Q 53.769 0.478 53.737 0.539 A 0.078 0.078 0 0 0 53.728 0.576 A 0.1 0.1 0 0 0 53.781 0.666 Q 53.801 0.678 53.828 0.686 A 0.359 0.359 0 0 0 53.872 0.696 Q 54.007 0.718 54.59 0.72 A 33.203 33.203 0 0 0 54.672 0.72 Q 55.616 0.72 55.648 0.832 A 0.629 0.629 0 0 1 55.659 0.917 Q 55.696 1.346 55.696 3.6 L 55.696 4.784 L 55.696 5.632 A 7.568 7.568 0 0 0 55.698 5.791 Q 55.701 5.954 55.712 6.064 A 1.88 1.88 0 0 0 55.718 6.119 Q 55.732 6.226 55.751 6.247 A 0.024 0.024 0 0 0 55.752 6.248 Q 55.772 6.268 55.808 6.271 A 0.169 0.169 0 0 0 55.824 6.272 A 0.071 0.071 0 0 0 55.875 6.215 Q 55.95 6.025 55.964 5.205 A 24.509 24.509 0 0 0 55.968 4.768 A 32.967 32.967 0 0 1 55.97 4.418 Q 55.982 3.282 56.078 3.186 A 0.042 0.042 0 0 1 56.08 3.184 A 0.477 0.477 0 0 1 56.125 3.154 Q 56.223 3.097 56.288 3.136 A 0.072 0.072 0 0 1 56.322 3.183 Q 56.384 3.352 56.384 4.112 L 56.384 4.912 L 56.352 6.656 L 55.296 6.656 Q 55.296 5.958 55.287 4.72 A 702.073 702.073 0 0 0 55.28 3.912 Q 55.268 2.509 55.265 1.637 A 148.515 148.515 0 0 1 55.264 1.152 L 54.304 1.12 L 53.344 1.104 Z M 77.28 0.096 L 77.328 0.096 A 3.331 3.331 0 0 1 78.6 0.332 A 3.105 3.105 0 0 1 79.672 1.072 Q 80.608 2.048 80.608 3.392 Q 80.608 4.224 80.208 5.008 Q 79.792 5.792 79 6.272 A 3.282 3.282 0 0 1 77.943 6.693 A 3.027 3.027 0 0 1 77.344 6.752 Q 77.307 6.752 77.261 6.747 A 1.272 1.272 0 0 1 77.232 6.744 Q 77.183 6.738 77.143 6.736 A 0.646 0.646 0 0 0 77.12 6.736 A 3.564 3.564 0 0 1 75.876 6.424 A 3.14 3.14 0 0 1 74.576 5.28 A 4.615 4.615 0 0 1 74.5 5.156 Q 74.352 4.907 74.352 4.816 A 0.112 0.112 0 0 1 74.406 4.72 Q 74.449 4.69 74.526 4.675 A 0.644 0.644 0 0 1 74.544 4.672 A 0.26 0.26 0 0 1 74.574 4.669 Q 74.58 4.668 74.585 4.668 A 0.175 0.175 0 0 1 74.704 4.712 Q 74.768 4.768 74.88 4.944 A 1.421 1.421 0 0 0 74.982 5.089 Q 75.103 5.243 75.307 5.443 A 7.594 7.594 0 0 0 75.456 5.584 Q 76.24 6.304 77.296 6.304 Q 78.32 6.304 79.144 5.632 A 2.831 2.831 0 0 0 80.154 3.89 A 3.578 3.578 0 0 0 80.16 3.856 Q 80.186 3.649 80.191 3.525 A 1.344 1.344 0 0 0 80.192 3.472 Q 80.192 2.256 79.328 1.36 A 2.787 2.787 0 0 0 77.317 0.512 A 3.377 3.377 0 0 0 77.28 0.512 A 2.995 2.995 0 0 0 76.116 0.731 Q 75.453 1.007 74.975 1.634 A 3.518 3.518 0 0 0 74.928 1.696 A 2.518 2.518 0 0 1 74.829 1.824 Q 74.643 2.048 74.528 2.048 A 0.097 0.097 0 0 1 74.485 2.039 Q 74.443 2.019 74.432 1.952 Q 74.421 1.92 74.418 1.873 A 0.653 0.653 0 0 1 74.416 1.824 Q 74.416 1.561 74.866 1.102 A 4.631 4.631 0 0 1 74.896 1.072 A 3.452 3.452 0 0 1 75.302 0.727 A 4.489 4.489 0 0 1 75.68 0.48 Q 76.006 0.289 76.277 0.2 A 1.671 1.671 0 0 1 76.496 0.144 Q 76.756 0.101 77.186 0.096 A 9.645 9.645 0 0 1 77.28 0.096 Z M 1.584 0.496 L 0.416 0.496 L 0.416 3.408 L 0.416 4.704 Q 0.416 6.242 0.532 6.316 A 0.022 0.022 0 0 0 0.544 6.32 Q 0.656 6.32 0.672 6.056 A 4.467 4.467 0 0 0 0.677 5.915 Q 0.686 5.588 0.688 4.724 A 224.934 224.934 0 0 0 0.688 4.32 A 126.908 126.908 0 0 1 0.689 3.871 Q 0.694 2.466 0.732 2.244 A 0.28 0.28 0 0 1 0.736 2.224 Q 0.768 2.112 0.944 2.112 L 1.12 2.112 L 1.12 6.336 L 2.32 6.304 A 63.957 63.957 0 0 0 2.637 6.298 Q 3.218 6.285 3.396 6.267 A 1.075 1.075 0 0 0 3.424 6.264 Q 3.616 6.24 3.856 6.08 Q 4.176 5.872 4.384 5.552 A 1.255 1.255 0 0 0 4.56 5.109 A 1.741 1.741 0 0 0 4.592 4.768 A 1.696 1.696 0 0 0 4.565 4.457 Q 4.531 4.273 4.452 4.125 A 0.952 0.952 0 0 0 4.384 4.016 Q 4.192 3.728 3.904 3.536 A 0.956 0.956 0 0 0 3.71 3.443 Q 3.442 3.346 2.992 3.312 A 4.542 4.542 0 0 1 2.756 3.291 Q 2.245 3.232 2.24 3.075 A 0.097 0.097 0 0 1 2.24 3.072 A 0.239 0.239 0 0 1 2.242 3.038 Q 2.245 3.02 2.25 3.005 A 0.127 0.127 0 0 1 2.256 2.992 Q 2.297 2.896 2.606 2.847 A 2.732 2.732 0 0 1 2.72 2.832 A 1.652 1.652 0 0 0 3.191 2.703 A 1.242 1.242 0 0 0 3.776 2.16 Q 3.92 1.888 3.92 1.744 Q 3.92 1.712 3.888 1.52 Q 3.841 1.224 3.598 0.943 A 1.764 1.764 0 0 0 3.584 0.928 A 1.412 1.412 0 0 0 3.364 0.725 A 1.008 1.008 0 0 0 3.024 0.56 A 0.638 0.638 0 0 0 2.915 0.538 Q 2.655 0.504 1.925 0.497 A 40.168 40.168 0 0 0 1.584 0.496 Z M 15.92 2.24 L 15.904 2.24 Q 15.795 2.24 15.316 1.615 A 18.084 18.084 0 0 1 15.136 1.376 Q 14.791 0.907 14.63 0.723 A 1.698 1.698 0 0 0 14.584 0.672 A 0.824 0.824 0 0 0 14.506 0.599 Q 14.398 0.512 14.304 0.512 A 1.218 1.218 0 0 0 14.265 0.513 Q 14.191 0.515 14.177 0.527 A 0.014 0.014 0 0 0 14.176 0.528 A 0.018 0.018 0 0 0 14.171 0.539 Q 14.169 0.557 14.192 0.592 A 0.159 0.159 0 0 1 14.201 0.603 Q 14.226 0.633 14.3 0.735 A 21.76 21.76 0 0 1 14.336 0.784 Q 14.434 0.919 14.598 1.143 A 442.509 442.509 0 0 0 14.704 1.288 Q 14.944 1.616 15.152 1.888 L 16.032 3.088 L 17.152 1.6 Q 18.256 0.096 18.368 0.096 Q 18.42 0.096 18.493 0.159 A 0.671 0.671 0 0 1 18.528 0.192 Q 18.576 0.24 18.576 0.288 A 0.3 0.3 0 0 1 18.536 0.398 Q 18.355 0.754 17.344 2.08 L 16.24 3.584 L 16.24 5.152 A 37.025 37.025 0 0 1 16.238 5.524 Q 16.226 6.74 16.128 6.768 A 0.143 0.143 0 0 1 16.091 6.786 Q 16.028 6.805 15.958 6.753 A 0.355 0.355 0 0 1 15.92 6.72 Q 15.825 6.639 15.811 5.525 A 33.641 33.641 0 0 1 15.808 5.088 L 15.808 3.536 L 14.656 1.984 A 49.444 49.444 0 0 1 14.39 1.621 Q 13.705 0.677 13.559 0.363 A 0.344 0.344 0 0 1 13.52 0.24 A 0.204 0.204 0 0 1 13.523 0.204 Q 13.53 0.166 13.552 0.144 Q 13.6 0.096 14.128 0.096 A 9.043 9.043 0 0 1 14.31 0.098 Q 14.651 0.105 14.728 0.14 A 0.083 0.083 0 0 1 14.736 0.144 A 0.256 0.256 0 0 1 14.78 0.185 Q 14.917 0.333 15.389 0.981 A 60.311 60.311 0 0 1 15.456 1.072 A 14.602 14.602 0 0 1 15.668 1.362 Q 16.059 1.91 16.079 2.079 A 0.145 0.145 0 0 1 16.08 2.096 A 0.121 0.121 0 0 1 16.018 2.204 Q 15.981 2.228 15.92 2.24 Z M 3.984 2.672 L 3.776 2.944 L 4.032 3.072 Q 4.547 3.322 4.849 3.967 A 2.856 2.856 0 0 1 4.864 4 A 1.667 1.667 0 0 1 5.026 4.554 A 2.091 2.091 0 0 1 5.04 4.8 Q 5.04 5.392 4.712 5.88 Q 4.384 6.368 3.808 6.592 A 1.744 1.744 0 0 1 3.567 6.651 Q 3.308 6.697 2.921 6.713 A 10.453 10.453 0 0 1 2.512 6.72 L 1.728 6.72 L 0.032 6.704 L 0 3.44 L 0 2.288 Q 0 0.176 0.08 0.128 A 0.107 0.107 0 0 1 0.118 0.117 Q 0.299 0.085 1.276 0.081 A 76.292 76.292 0 0 1 1.632 0.08 A 92.008 92.008 0 0 1 2.01 0.086 Q 2.705 0.099 2.926 0.117 A 1.729 1.729 0 0 1 2.96 0.12 A 1.288 1.288 0 0 1 3.251 0.185 A 1.683 1.683 0 0 1 3.456 0.272 Q 3.872 0.48 4.104 0.864 Q 4.336 1.248 4.336 1.68 Q 4.336 2.224 3.984 2.672 Z M 76.945 0.83 A 3.213 3.213 0 0 0 76.784 0.864 Q 75.728 1.072 75.12 2.032 Q 74.944 2.32 74.904 2.536 Q 74.873 2.705 74.866 3.171 A 19.53 19.53 0 0 0 74.864 3.456 Q 74.864 3.951 74.947 4.272 A 1.305 1.305 0 0 0 75.04 4.528 Q 75.328 5.152 75.912 5.552 A 2.579 2.579 0 0 0 76.261 5.754 A 1.944 1.944 0 0 0 77.104 5.952 A 4.983 4.983 0 0 0 77.198 5.951 Q 77.338 5.949 77.407 5.937 A 0.271 0.271 0 0 0 77.448 5.928 A 0.097 0.097 0 0 0 77.495 5.896 Q 77.52 5.864 77.52 5.808 Q 77.52 5.703 77.208 5.598 A 2.888 2.888 0 0 0 77.056 5.552 A 3.237 3.237 0 0 1 76.489 5.354 Q 75.779 5.023 75.473 4.383 A 2.484 2.484 0 0 1 75.248 3.472 A 53.314 53.314 0 0 1 75.245 3.433 Q 75.216 3.117 75.216 3.072 Q 75.216 2.848 75.344 2.544 A 2.106 2.106 0 0 1 76.253 1.541 A 2.61 2.61 0 0 1 77.056 1.264 Q 77.397 1.196 77.496 1.103 A 0.109 0.109 0 0 0 77.536 1.024 A 0.055 0.055 0 0 0 77.534 1.01 Q 77.524 0.974 77.472 0.896 Q 77.392 0.8 77.232 0.8 A 1.277 1.277 0 0 0 77.097 0.808 Q 77.027 0.815 76.945 0.83 Z" vector-effect="non-scaling-stroke"/></g></svg>