<svg width="145pt" height="13pt" viewBox="0 0 145 13" xmlns="http://www.w3.org/2000/svg"><g id="fontsvg1672081149131" stroke-linecap="round" fill-rule="evenodd" fill="#ff9900"><path d="M 34.094 1.32 L 35 0.758 Q 35.594 0.906 36.352 0.984 L 37.594 1.094 A 2.603 2.603 0 0 1 38.134 1.567 A 3.291 3.291 0 0 1 38.383 1.891 L 38.727 4.367 L 39.063 5.609 L 39.172 7.078 A 5.397 5.397 0 0 1 39.016 8.172 A 6.213 6.213 0 0 1 38.945 8.437 A 0.734 0.734 0 0 0 39.258 8.757 A 0.913 0.913 0 0 0 39.289 8.773 L 39.633 8.328 L 39.742 7.875 L 39.516 7.766 L 39.633 7.531 L 39.852 6.516 L 39.742 5.836 L 39.969 5.391 L 40.195 4.031 A 4.329 4.329 0 0 1 40.312 3.261 A 5.19 5.19 0 0 1 40.414 2.898 L 40.641 1.664 A 2.846 2.846 0 0 1 41.628 1.106 A 3.251 3.251 0 0 1 41.664 1.094 L 43.133 0.984 L 44.484 1.203 A 5.406 5.406 0 0 1 44.82 2.453 L 44.82 5.5 L 44.711 6.516 L 44.82 6.859 L 44.82 7.875 L 44.938 8.102 L 44.82 8.211 L 44.938 9.344 L 44.82 10.813 A 7.083 7.083 0 0 1 44.348 11.098 A 9.543 9.543 0 0 1 43.805 11.375 A 4.43 4.43 0 0 1 42.969 11.258 A 5.372 5.372 0 0 1 42.57 11.148 Q 42.195 10.773 42 10.242 L 42.445 3.578 A 2.836 2.836 0 0 0 42.133 4.126 A 3.558 3.558 0 0 0 42 4.484 L 41.438 8.211 A 6.046 6.046 0 0 1 41.217 8.835 A 7.786 7.786 0 0 1 40.984 9.344 L 41.102 10.359 L 40.984 10.703 Q 40.608 10.98 40.094 11.249 A 9.77 9.77 0 0 1 40.078 11.258 L 39.742 11.258 L 39.742 11.375 L 38.727 11.258 A 4.358 4.358 0 0 1 38.224 10.799 A 5.375 5.375 0 0 1 37.938 10.469 L 37.82 9 L 37.258 6.516 A 4.014 4.014 0 0 1 37.051 5.613 A 4.599 4.599 0 0 1 37.031 5.391 L 36.805 4.031 L 36.805 3.469 L 36.469 4.031 L 36.695 5.273 L 36.578 6.297 L 36.695 6.633 L 36.578 8.102 L 37.141 10.359 A 2.74 2.74 0 0 1 36.697 10.873 A 3.496 3.496 0 0 1 36.352 11.148 L 35.336 11.258 L 35 11.148 A 2.655 2.655 0 0 1 34.422 10.891 A 3.6 3.6 0 0 1 33.977 10.578 L 33.977 9 L 34.203 7.648 L 33.867 6.406 L 34.203 5.273 L 33.867 4.031 L 33.977 2.563 L 33.867 2.227 L 34.094 1.32 Z M 47.383 0.742 L 49.195 0.961 L 50.898 0.852 L 52.375 0.961 L 52.719 0.852 A 2.832 2.832 0 0 1 53.925 1.394 A 3.3 3.3 0 0 1 53.961 1.422 L 54.078 2.672 L 53.961 3.008 L 53.625 3.578 L 52.828 3.688 L 52.602 3.578 L 49.195 3.461 L 49.539 4.602 L 52.945 4.367 L 53.281 4.492 L 53.852 4.938 L 53.734 5.852 Q 53.547 6.477 53.164 7.102 L 51.469 7.211 L 49.875 6.758 A 2.146 2.146 0 0 0 49.339 7.894 A 2.746 2.746 0 0 0 49.313 8.117 A 4.211 4.211 0 0 0 50.672 8.461 L 53.852 8.234 L 54.195 8.461 L 54.414 9.711 Q 54.336 10.43 53.961 11.18 L 52.719 11.297 L 52.375 11.18 L 50.672 10.961 Q 49.914 11.164 49.078 11.18 L 47.492 11.414 A 3.104 3.104 0 0 1 46.594 10.776 A 3.794 3.794 0 0 1 46.352 10.508 L 46.242 9.258 L 46.352 8.914 L 46.469 8.008 L 46.352 7.781 L 46.352 7.102 L 46.469 5.172 L 46.352 3.578 L 46.469 1.648 A 3.099 3.099 0 0 1 46.919 1.119 A 4.178 4.178 0 0 1 47.383 0.742 Z M 114.633 0.742 L 116.445 0.961 L 118.148 0.852 L 119.625 0.961 L 119.969 0.852 A 2.832 2.832 0 0 1 121.175 1.394 A 3.3 3.3 0 0 1 121.211 1.422 L 121.328 2.672 L 121.211 3.008 L 120.875 3.578 L 120.078 3.688 L 119.852 3.578 L 116.445 3.461 L 116.789 4.602 L 120.195 4.367 L 120.531 4.492 L 121.102 4.938 L 120.984 5.852 Q 120.797 6.477 120.414 7.102 L 118.719 7.211 L 117.125 6.758 A 2.146 2.146 0 0 0 116.589 7.894 A 2.746 2.746 0 0 0 116.563 8.117 A 4.211 4.211 0 0 0 117.922 8.461 L 121.102 8.234 L 121.445 8.461 L 121.664 9.711 Q 121.586 10.43 121.211 11.18 L 119.969 11.297 L 119.625 11.18 L 117.922 10.961 Q 117.164 11.164 116.328 11.18 L 114.742 11.414 A 3.104 3.104 0 0 1 113.844 10.776 A 3.794 3.794 0 0 1 113.602 10.508 L 113.492 9.258 L 113.602 8.914 L 113.719 8.008 L 113.602 7.781 L 113.602 7.102 L 113.719 5.172 L 113.602 3.578 L 113.719 1.648 A 3.099 3.099 0 0 1 114.169 1.119 A 4.178 4.178 0 0 1 114.633 0.742 Z M 124 0.742 L 125.813 0.961 L 127.516 0.852 L 128.992 0.961 L 129.336 0.852 A 2.832 2.832 0 0 1 130.542 1.394 A 3.3 3.3 0 0 1 130.578 1.422 L 130.695 2.672 L 130.578 3.008 L 130.242 3.578 L 129.445 3.688 L 129.219 3.578 L 125.813 3.461 L 126.156 4.602 L 129.563 4.367 L 129.898 4.492 L 130.469 4.938 L 130.352 5.852 Q 130.164 6.477 129.781 7.102 L 128.086 7.211 L 126.492 6.758 A 2.146 2.146 0 0 0 125.956 7.894 A 2.746 2.746 0 0 0 125.93 8.117 A 4.211 4.211 0 0 0 127.289 8.461 L 130.469 8.234 L 130.813 8.461 L 131.031 9.711 Q 130.953 10.43 130.578 11.18 L 129.336 11.297 L 128.992 11.18 L 127.289 10.961 Q 126.531 11.164 125.695 11.18 L 124.109 11.414 A 3.104 3.104 0 0 1 123.211 10.776 A 3.794 3.794 0 0 1 122.969 10.508 L 122.859 9.258 L 122.969 8.914 L 123.086 8.008 L 122.969 7.781 L 122.969 7.102 L 123.086 5.172 L 122.969 3.578 L 123.086 1.648 A 3.099 3.099 0 0 1 123.537 1.119 A 4.178 4.178 0 0 1 124 0.742 Z M 10.422 1.383 L 11.547 0.711 Q 12.266 0.805 13.125 1.047 L 13.688 1.492 L 13.469 5.555 L 13.578 7.359 Q 13.688 7.898 14.031 8.484 L 15.156 8.711 L 15.5 8.594 A 2.817 2.817 0 0 0 15.866 7.961 A 3.868 3.868 0 0 0 16.063 7.359 L 15.945 5.664 L 16.063 4.43 L 15.945 3.977 L 16.063 2.516 L 15.836 1.719 L 15.945 1.492 L 16.172 1.156 L 17.523 0.711 A 6.855 6.855 0 0 1 18.372 0.849 A 9.016 9.016 0 0 1 19.102 1.047 L 19.219 1.492 L 19.102 2.742 L 18.766 3.078 Q 18.925 3.449 18.988 3.944 A 4.569 4.569 0 0 1 18.992 3.977 L 18.875 5.664 L 19.102 6.797 L 18.992 7.242 A 8.073 8.073 0 0 1 18.901 8.218 A 10.194 10.194 0 0 1 18.766 8.93 A 5.588 5.588 0 0 1 18.094 9.953 L 17.07 10.852 L 15.609 11.297 L 15.047 11.18 L 14.594 11.414 L 14.25 11.297 L 12.68 11.078 L 11.656 10.18 A 6.838 6.838 0 0 1 11.058 9.542 A 8.27 8.27 0 0 1 10.758 9.156 L 10.422 6.344 L 10.422 4.43 L 10.531 3.188 Q 10.429 2.442 10.422 1.512 A 18.198 18.198 0 0 1 10.422 1.383 Z M 95.281 1.664 L 96.055 0.883 L 98.172 1.219 L 98.398 1.109 L 98.727 1.109 L 98.727 1 L 100.18 1.219 L 101.625 1.109 L 102.852 1.328 Q 103.008 1.906 103.07 2.664 A 3.08 3.08 0 0 1 102.516 3.781 L 101.07 3.891 L 99.508 3.781 L 98.617 3.563 L 98.289 3.672 L 98.063 4 L 98.172 4.898 L 98.508 5.008 L 100.734 4.781 L 102.289 4.898 L 102.633 6.234 L 102.289 7.461 L 100.852 7.688 L 98.617 7.344 Q 98.398 7.391 98.289 7.57 L 98.172 7.906 Q 98.259 8.229 98.283 8.655 A 5.578 5.578 0 0 1 98.289 8.797 L 98.398 9.797 L 98.289 10.133 L 98.398 11.031 L 97.945 11.25 L 96.727 11.359 Q 96.209 11.323 95.606 11.076 A 5.383 5.383 0 0 1 95.5 11.031 A 2.762 2.762 0 0 1 95.148 10.341 A 3.384 3.384 0 0 1 95.055 10.023 L 95.281 8.57 L 95.164 7.125 L 95.281 5.898 L 95.164 4.344 L 95.281 3.336 L 95.164 3 L 95.055 2 L 95.281 1.664 Z M 104.516 1.664 L 105.289 0.883 L 107.406 1.219 L 107.633 1.109 L 107.961 1.109 L 107.961 1 L 109.414 1.219 L 110.859 1.109 L 112.086 1.328 Q 112.242 1.906 112.305 2.664 A 3.08 3.08 0 0 1 111.75 3.781 L 110.305 3.891 L 108.742 3.781 L 107.852 3.563 L 107.523 3.672 L 107.297 4 L 107.406 4.898 L 107.742 5.008 L 109.969 4.781 L 111.523 4.898 L 111.867 6.234 L 111.523 7.461 L 110.086 7.688 L 107.852 7.344 Q 107.633 7.391 107.523 7.57 L 107.406 7.906 Q 107.494 8.229 107.517 8.655 A 5.578 5.578 0 0 1 107.523 8.797 L 107.633 9.797 L 107.523 10.133 L 107.633 11.031 L 107.18 11.25 L 105.961 11.359 Q 105.444 11.323 104.841 11.076 A 5.383 5.383 0 0 1 104.734 11.031 A 2.762 2.762 0 0 1 104.383 10.341 A 3.384 3.384 0 0 1 104.289 10.023 L 104.516 8.57 L 104.398 7.125 L 104.516 5.898 L 104.398 4.344 L 104.516 3.336 L 104.398 3 L 104.289 2 L 104.516 1.664 Z M 76.344 1.234 L 77.656 0.797 Q 78.313 0.844 79.086 1.016 L 80.508 1.352 A 6.158 6.158 0 0 1 80.997 1.802 A 8.046 8.046 0 0 1 81.383 2.227 L 82.258 3.203 A 2.726 2.726 0 0 1 81.975 3.914 A 3.505 3.505 0 0 1 81.719 4.305 A 4.438 4.438 0 0 1 80.852 4.857 A 5.129 5.129 0 0 1 80.625 4.961 Q 80.063 4.742 79.523 4.305 L 78.539 3.539 L 77.336 4.086 A 4.993 4.993 0 0 0 76.584 5.036 A 5.526 5.526 0 0 0 76.563 5.07 L 76.461 5.945 L 76.563 6.273 L 76.563 6.609 L 77 7.922 L 78.102 8.578 A 3.861 3.861 0 0 0 79.292 8.204 A 4.42 4.42 0 0 0 79.414 8.141 L 80.289 7.266 Q 80.883 7.328 81.5 7.586 A 4.413 4.413 0 0 1 81.99 8.076 A 5.885 5.885 0 0 1 82.375 8.578 Q 82.125 9.102 81.719 9.672 L 80.727 10.547 L 79.633 11.203 L 78.43 11.313 L 78.102 11.203 L 77.656 11.313 L 76.563 11.094 L 75.359 10.547 L 73.828 8.461 L 73.609 6.93 L 73.719 5.398 L 73.609 4.523 L 73.719 4.305 L 73.828 3.977 L 74.375 2.766 L 75.25 1.891 L 76.344 1.234 Z M 19.852 0.797 L 21.227 1.023 L 22.148 0.906 L 22.492 1.023 L 23.289 1.828 L 23.859 2.734 L 24.32 3.883 A 0.787 0.787 0 0 0 24.84 3.603 A 1.075 1.075 0 0 0 24.891 3.539 A 2.602 2.602 0 0 1 25.251 2.885 A 3.211 3.211 0 0 1 25.469 2.625 A 3.343 3.343 0 0 1 25.902 1.625 A 3.756 3.756 0 0 1 25.922 1.594 L 26.953 1.023 L 28.555 1.023 L 29.477 1.703 A 3.296 3.296 0 0 1 28.969 2.542 A 3.751 3.751 0 0 1 28.898 2.625 L 26.383 6.172 A 1.655 1.655 0 0 0 26.06 6.92 A 2.055 2.055 0 0 0 26.039 7.086 L 25.922 8.117 L 26.039 8.461 L 26.039 9.953 Q 26.023 10.477 25.813 10.984 A 5.039 5.039 0 0 1 24.757 11.287 A 5.748 5.748 0 0 1 24.547 11.32 L 23.633 11.438 L 23.289 11.203 A 2.62 2.62 0 0 1 22.959 10.367 A 2.991 2.991 0 0 1 22.945 10.297 L 22.836 7.32 L 22.945 6.633 L 22.719 6.172 L 21.914 5.367 L 19.398 1.828 Q 19.547 1.289 19.852 0.797 Z M 62.383 1.063 L 63.391 0.727 A 6.042 6.042 0 0 1 64.734 0.953 L 65.633 1.508 A 5.377 5.377 0 0 1 65.865 1.975 Q 65.973 2.219 66.072 2.498 A 8.638 8.638 0 0 1 66.078 2.516 L 66.633 4.531 L 67.086 5.422 L 67.414 6.547 L 67.977 7.438 A 4.08 4.08 0 0 0 68.202 8.274 A 4.778 4.778 0 0 0 68.32 8.555 L 68.758 9.57 L 68.984 10.352 L 68.797 10.742 L 67.906 11.297 L 66.898 11.297 L 66.898 11.406 L 66.563 11.297 Q 66.141 11.133 65.781 10.742 A 3.824 3.824 0 0 1 65.573 10.048 A 3.165 3.165 0 0 1 65.516 9.57 L 65.289 9.453 L 64.852 9.672 L 64.625 9.57 L 63.164 9.57 A 1.471 1.471 0 0 0 62.429 10.161 A 1.865 1.865 0 0 0 62.383 10.234 L 61.82 11.133 L 60.703 11.469 L 59.477 11.242 Q 59.117 10.938 58.805 10.461 L 59.695 8.453 L 59.813 7.219 L 60.375 6.203 L 61.383 2.961 L 61.82 2.07 A 4.242 4.242 0 0 1 62.295 1.184 A 4.799 4.799 0 0 1 62.383 1.063 Z M 0 1.359 L 0.57 0.906 L 5.898 1.016 A 4.463 4.463 0 0 1 7.233 1.459 A 5.615 5.615 0 0 1 7.828 1.813 A 3.171 3.171 0 0 1 8.442 3.194 A 4.121 4.121 0 0 1 8.508 3.742 L 8.617 4.766 L 7.711 5.445 L 8.508 6.461 A 8.263 8.263 0 0 1 8.906 7.621 A 10.142 10.142 0 0 1 9.078 8.391 A 5.911 5.911 0 0 1 8.539 9.729 A 7.233 7.233 0 0 1 8.172 10.328 Q 7.448 10.808 6.423 11.17 A 11.505 11.505 0 0 1 6.234 11.234 L 5.445 11.344 L 5.219 11.234 L 2.156 11.344 L 1.813 11.234 L 1.477 11.234 L 1.477 11.344 A 2.376 2.376 0 0 1 0.048 10.087 A 3.113 3.113 0 0 1 0 9.984 L 0.227 7.602 L 0.109 6.461 L 0.227 5.219 L 0 1.359 Z M 85.641 1.813 L 87.273 0.836 L 89.016 0.836 L 89.773 1.055 A 5.839 5.839 0 0 1 90.788 1.391 A 7.788 7.788 0 0 1 91.617 1.813 Q 92.284 2.274 92.847 3.113 A 7.08 7.08 0 0 1 92.922 3.227 L 93.578 5.078 Q 93.406 5.641 93.359 6.266 L 93.469 6.703 A 9.844 9.844 0 0 1 93.108 8.323 A 11.47 11.47 0 0 1 92.922 8.875 L 91.617 10.289 A 10.607 10.607 0 0 1 91.087 10.639 Q 90.604 10.938 89.984 11.266 L 87.602 11.375 A 6.601 6.601 0 0 1 86.577 10.972 A 8.747 8.747 0 0 1 85.75 10.508 A 13.721 13.721 0 0 1 85.067 9.965 Q 84.723 9.675 84.359 9.335 A 22.365 22.365 0 0 1 84.336 9.312 L 83.688 7.25 L 83.797 5.18 A 5.424 5.424 0 0 1 83.954 4.326 Q 84.057 3.934 84.22 3.512 A 9.648 9.648 0 0 1 84.336 3.227 L 85.641 1.813 Z M 144.625 5.797 L 144.727 6.203 L 144.625 7.203 L 144.625 7.508 A 5.021 5.021 0 0 1 144.176 8.998 A 5.685 5.685 0 0 1 144.125 9.102 A 5.38 5.38 0 0 1 143.846 9.832 Q 143.672 10.207 143.43 10.602 L 142.625 11.992 L 141.922 12.398 A 2.592 2.592 0 0 1 141.371 12.153 A 3.165 3.165 0 0 1 141.125 11.992 A 11.266 11.266 0 0 1 141.32 10.406 A 4.671 4.671 0 0 0 141.677 9.452 A 6.079 6.079 0 0 0 141.82 8.703 A 7.734 7.734 0 0 0 142.031 7.717 A 10.232 10.232 0 0 0 142.125 6.805 L 142.219 6.305 L 142.125 6.102 L 142.023 3.5 L 141.922 3.297 L 141.82 3 Q 141.631 2.278 141.271 1.42 A 16.975 16.975 0 0 0 141.219 1.297 L 140.922 0.602 A 3.742 3.742 0 0 1 141.152 0.344 Q 141.276 0.218 141.423 0.087 A 6.475 6.475 0 0 1 141.523 0 A 2.777 2.777 0 0 1 142.93 0.797 A 7.056 7.056 0 0 1 143.343 1.483 Q 143.53 1.835 143.704 2.242 A 11.561 11.561 0 0 1 143.727 2.297 Q 144.071 2.956 144.209 3.876 A 7.317 7.317 0 0 1 144.227 4 A 4.077 4.077 0 0 1 144.572 5.159 A 5.166 5.166 0 0 1 144.625 5.797 Z M 88.25 3.555 L 86.836 4.641 L 86.617 6.047 Q 86.672 6.836 87.164 7.68 Q 87.82 8.297 88.797 8.445 A 2.737 2.737 0 0 0 89.928 7.672 A 3.393 3.393 0 0 0 90.102 7.461 A 5.997 5.997 0 0 0 90.256 6.854 Q 90.326 6.513 90.373 6.119 A 12.391 12.391 0 0 0 90.422 5.617 A 2.687 2.687 0 0 0 90.202 4.779 A 3.671 3.671 0 0 0 89.883 4.203 A 7.269 7.269 0 0 0 88.606 3.66 A 8.361 8.361 0 0 0 88.25 3.555 Z M 137.453 8.945 L 138.383 8.391 A 2.472 2.472 0 0 1 139.086 8.764 A 3.012 3.012 0 0 1 139.305 8.945 L 139.492 10.242 A 8.022 8.022 0 0 1 139.311 10.851 A 10.134 10.134 0 0 1 139.125 11.352 L 137.914 11.539 A 2.398 2.398 0 0 1 137.046 11.034 A 2.787 2.787 0 0 1 136.992 10.984 L 136.805 9.688 Q 137.039 9.266 137.453 8.945 Z M 137.359 3.391 L 138.289 2.836 Q 138.852 2.992 139.305 3.391 L 139.398 3.664 L 139.305 4.313 L 139.305 4.594 A 5.333 5.333 0 0 1 139.259 5.082 Q 139.224 5.331 139.166 5.609 A 9.746 9.746 0 0 1 139.125 5.797 L 137.914 5.891 Q 137.414 5.781 136.992 5.43 L 136.711 4.219 A 2.181 2.181 0 0 1 137.038 3.712 A 2.913 2.913 0 0 1 137.359 3.391 Z M 3.859 7.266 L 3.063 7.031 A 4.371 4.371 0 0 0 3.225 8.192 A 5.383 5.383 0 0 0 3.406 8.734 Q 4.252 8.681 5.317 8.465 A 21.72 21.72 0 0 0 5.672 8.391 L 5.898 7.375 L 5.109 7.031 L 3.859 7.266 Z M 3.633 3.516 L 3.289 3.289 L 3.063 4.422 L 3.172 4.875 L 3.516 4.875 A 12.526 12.526 0 0 1 4.497 4.723 A 15.82 15.82 0 0 1 5.328 4.648 L 5.789 3.859 L 5.109 3.516 L 4.539 3.633 L 4.203 3.516 L 3.633 3.516 Z M 63.391 6.32 L 63.281 7.109 L 64.289 7.219 Q 64.516 7.125 64.625 6.883 L 64.398 5.875 A 7.118 7.118 0 0 0 64.077 5.156 A 9.404 9.404 0 0 0 63.727 4.531 Q 63.695 5.359 63.391 6.32 Z M 92.266 6.594 L 91.836 6.594 L 91.297 7.031 A 2.742 2.742 0 0 0 91.467 7.455 Q 91.574 7.672 91.727 7.898 L 91.617 7.031 L 92.266 6.594 Z M 79.742 9.125 L 78.758 9.672 Q 78.914 9.891 79.195 10 A 2.417 2.417 0 0 1 79.781 9.663 A 2.971 2.971 0 0 1 80.07 9.563 A 0.546 0.546 0 0 0 79.844 9.189 A 0.824 0.824 0 0 0 79.742 9.125 Z M 91.398 3.445 L 90.313 2.469 Q 90.523 3.242 91.398 3.445 Z M 3.063 6.352 L 2.266 5.555 L 2.383 6.578 L 3.063 6.352 Z M 17.977 6.117 L 17.523 5.438 L 17.297 6.57 A 0.238 0.238 0 0 0 17.441 6.488 Q 17.489 6.433 17.523 6.344 L 17.977 6.117 Z M 35.336 5.5 L 35.227 5.391 L 35.336 5.953 L 35.227 6.297 L 35.563 5.953 L 35.789 5.391 L 35.336 5.5 Z M 65.18 8.109 L 65.852 9.234 A 2.71 2.71 0 0 0 65.239 8.172 A 3.178 3.178 0 0 0 65.18 8.109 Z M 88.898 10.07 L 88.898 10.398 L 89.234 10.289 L 89.664 10.07 Q 89.625 9.734 89.336 9.531 A 1.559 1.559 0 0 0 89.031 9.855 A 1.988 1.988 0 0 0 88.898 10.07 Z M 96.508 3.336 A 1.263 1.263 0 0 0 96.82 3.737 Q 97.097 3.967 97.508 4 A 1.202 1.202 0 0 0 96.75 3.39 A 1.808 1.808 0 0 0 96.508 3.336 Z M 105.742 3.336 A 1.263 1.263 0 0 0 106.054 3.737 Q 106.331 3.967 106.742 4 A 1.202 1.202 0 0 0 105.984 3.39 A 1.808 1.808 0 0 0 105.742 3.336 Z M 61.602 5.203 A 1.71 1.71 0 0 0 62.179 5.812 A 2.294 2.294 0 0 0 62.5 5.984 A 2.583 2.583 0 0 0 61.853 5.358 A 3.15 3.15 0 0 0 61.602 5.203 Z M 75.359 3.539 L 75.141 4.305 Q 75.141 4.467 75.337 4.518 A 0.557 0.557 0 0 0 75.359 4.523 Q 75.563 4.203 75.688 3.758 Q 75.615 3.626 75.432 3.561 A 0.854 0.854 0 0 0 75.359 3.539 Z M 7.484 8.617 L 6.469 8.852 L 6.922 9.078 A 0.861 0.861 0 0 0 7.206 8.96 A 0.752 0.752 0 0 0 7.484 8.617 Z M 63.055 3.414 L 62.828 4.305 L 63.281 4.305 A 1.879 1.879 0 0 0 63.114 3.537 A 2.244 2.244 0 0 0 63.055 3.414 Z M 12.117 3.977 L 11.773 3.641 L 11.547 4.313 L 11.891 4.539 L 12.117 3.977 Z M 23.289 4.688 L 23.18 4 L 22.602 4.57 L 23.289 4.688 Z M 49.078 9.148 L 48.633 9.711 L 48.852 10.055 A 1.912 1.912 0 0 0 49.073 9.272 A 2.279 2.279 0 0 0 49.078 9.148 Z M 116.328 9.148 L 115.883 9.711 L 116.102 10.055 A 1.912 1.912 0 0 0 116.323 9.272 A 2.279 2.279 0 0 0 116.328 9.148 Z M 125.695 9.148 L 125.25 9.711 L 125.469 10.055 A 1.912 1.912 0 0 0 125.69 9.272 A 2.279 2.279 0 0 0 125.695 9.148 Z M 85.203 4.961 L 84.992 5.508 L 85.32 5.727 L 85.539 5.617 A 1.208 1.208 0 0 0 85.203 4.961 Z M 5.445 5.898 L 5.219 6.352 L 5.898 6.461 Q 5.805 6.078 5.445 5.898 Z M 63.945 2.406 L 63.727 2.07 L 63.281 2.18 A 1.019 1.019 0 0 0 63.445 2.398 Q 63.53 2.485 63.642 2.567 A 1.976 1.976 0 0 0 63.727 2.625 L 63.945 2.406 Z M 88.141 9.961 L 87.82 9.531 L 87.602 10.07 L 87.922 10.18 L 88.141 9.961 Z M 35.109 3.469 L 35.672 3.578 A 0.861 0.861 0 0 0 35.51 3.099 A 1.116 1.116 0 0 0 35.445 3.016 A 0.896 0.896 0 0 0 35.202 3.281 A 1.208 1.208 0 0 0 35.109 3.469 Z M 1.586 9.414 L 1.477 9.867 Q 1.697 10.05 1.807 10.092 A 0.283 0.283 0 0 0 1.813 10.094 L 1.93 9.641 A 3.061 3.061 0 0 0 1.824 9.557 Q 1.676 9.445 1.588 9.415 A 0.288 0.288 0 0 0 1.586 9.414 Z M 66.078 6.883 L 65.633 6.883 L 65.633 7.438 L 66.078 6.883 Z M 1.93 8.508 L 1.359 8.281 L 1.359 8.734 L 1.93 8.508 Z M 6.469 3.289 L 6.922 3.969 A 0.945 0.945 0 0 0 6.629 3.42 A 1.343 1.343 0 0 0 6.469 3.289 Z M 80.188 2.766 L 79.961 2.445 L 79.742 3.102 L 80.188 2.766 Z M 75.359 7.586 Q 75.469 7.984 75.805 8.242 Q 75.781 7.836 75.359 7.586 Z M 51.352 1.766 A 1.08 1.08 0 0 0 51.683 2.182 A 1.498 1.498 0 0 0 51.914 2.328 Q 51.722 2.028 51.362 1.773 A 2.906 2.906 0 0 0 51.352 1.766 Z M 118.602 1.766 A 1.08 1.08 0 0 0 118.933 2.182 A 1.498 1.498 0 0 0 119.164 2.328 Q 118.972 2.028 118.612 1.773 A 2.906 2.906 0 0 0 118.602 1.766 Z M 127.969 1.766 A 1.08 1.08 0 0 0 128.3 2.182 A 1.498 1.498 0 0 0 128.531 2.328 Q 128.339 2.028 127.979 1.773 A 2.906 2.906 0 0 0 127.969 1.766 Z M 97.063 4.672 L 96.609 4.563 Q 96.617 4.945 96.836 5.125 L 97.063 4.672 Z M 106.297 4.672 L 105.844 4.563 Q 105.852 4.945 106.07 5.125 L 106.297 4.672 Z M 50.898 9.828 L 50.328 9.594 L 50.445 10.055 L 50.898 9.828 Z M 118.148 9.828 L 117.578 9.594 L 117.695 10.055 L 118.148 9.828 Z M 127.516 9.828 L 126.945 9.594 L 127.063 10.055 L 127.516 9.828 Z M 76.563 9.234 A 1.912 1.912 0 0 0 76.081 9.517 A 2.33 2.33 0 0 0 75.906 9.672 A 1.915 1.915 0 0 0 76.537 9.26 A 1.854 1.854 0 0 0 76.563 9.234 Z M 1.359 4.422 A 1.381 1.381 0 0 0 1.661 4.642 A 1.108 1.108 0 0 0 2.047 4.766 Q 1.773 4.508 1.359 4.422 Z M 25.234 5.602 L 24.891 6.289 Q 25.195 6.031 25.234 5.602 Z M 6.922 7.141 L 7.375 6.922 A 0.548 0.548 0 0 0 7.297 6.728 A 0.505 0.505 0 0 0 7.141 6.578 A 0.795 0.795 0 0 0 6.922 7.141 Z M 43.469 4.141 L 43.133 4.828 A 1.262 1.262 0 0 0 43.469 4.141 Z M 48.289 3.242 L 47.945 3.922 Q 48.234 3.648 48.289 3.242 Z M 115.539 3.242 L 115.195 3.922 Q 115.484 3.648 115.539 3.242 Z M 124.906 3.242 L 124.563 3.922 Q 124.852 3.648 124.906 3.242 Z M 65.289 2.734 L 64.625 2.734 Q 64.646 2.876 64.816 2.947 A 0.603 0.603 0 0 0 64.852 2.961 L 65.289 2.734 Z M 23.633 5.711 A 1.903 1.903 0 0 0 23.921 5.984 A 2.523 2.523 0 0 0 24.203 6.172 A 1.227 1.227 0 0 0 23.869 5.843 A 1.638 1.638 0 0 0 23.633 5.711 Z M 100.289 2.445 L 99.953 2.336 L 99.953 2.891 L 100.289 2.445 Z M 109.523 2.445 L 109.188 2.336 L 109.188 2.891 L 109.523 2.445 Z M 12.227 6.461 L 12.117 6.344 L 11.891 6.797 L 12.227 6.906 L 12.227 6.461 Z M 62.945 3.188 L 62.383 2.734 A 1.031 1.031 0 0 0 62.716 3.07 A 1.419 1.419 0 0 0 62.945 3.187 Z M 26.039 4.227 L 25.922 4.109 L 26.039 4.797 L 26.039 4.227 Z M 86.406 3.555 L 85.969 3.555 A 0.87 0.87 0 0 0 86.188 3.984 L 86.406 3.555 Z M 26.609 3.078 A 0.913 0.913 0 0 0 26.829 3.533 A 1.229 1.229 0 0 0 26.953 3.656 A 1.689 1.689 0 0 0 26.837 3.411 Q 26.769 3.291 26.677 3.166 A 3.139 3.139 0 0 0 26.609 3.078 Z M 47.698 8.678 A 1.349 1.349 0 0 0 47.719 8.688 A 0.621 0.621 0 0 0 47.472 8.345 A 0.99 0.99 0 0 0 47.266 8.235 Q 47.364 8.515 47.698 8.678 Z M 114.948 8.678 A 1.349 1.349 0 0 0 114.969 8.688 A 0.621 0.621 0 0 0 114.722 8.345 A 0.99 0.99 0 0 0 114.516 8.235 Q 114.614 8.515 114.948 8.678 Z M 124.316 8.678 A 1.349 1.349 0 0 0 124.336 8.688 A 0.621 0.621 0 0 0 124.089 8.345 A 0.99 0.99 0 0 0 123.883 8.235 Q 123.981 8.515 124.316 8.678 Z M 2.727 2.719 L 2.383 2.609 L 2.383 3.063 L 2.727 2.719 Z M 79.414 2.328 L 79.086 2.328 A 0.733 0.733 0 0 0 79.299 2.76 A 0.901 0.901 0 0 0 79.305 2.766 L 79.414 2.328 Z M 35.445 7.875 L 35 7.875 L 35.109 8.211 L 35.445 7.875 Z M 24.203 7.203 L 23.977 7.773 A 0.973 0.973 0 0 0 24.146 7.493 A 0.862 0.862 0 0 0 24.203 7.203 Z M 75.25 6.711 L 75.141 6.711 L 75.031 7.148 L 75.25 7.148 L 75.25 6.711 Z M 97.836 6.125 L 97.727 5.68 L 97.508 6.008 L 97.836 6.125 Z M 107.07 6.125 L 106.961 5.68 L 106.742 6.008 L 107.07 6.125 Z M 36.125 2.563 L 36.008 2.563 L 35.789 2.898 L 36.125 2.898 L 36.125 2.563 Z M 60.594 9.57 L 60.375 9.898 L 60.82 9.789 A 0.254 0.254 0 0 0 60.722 9.638 Q 60.684 9.609 60.633 9.586 A 0.606 0.606 0 0 0 60.594 9.57 Z M 24.203 8.695 A 0.626 0.626 0 0 0 24.422 9.06 A 0.912 0.912 0 0 0 24.547 9.148 A 0.555 0.555 0 0 0 24.331 8.779 A 0.856 0.856 0 0 0 24.203 8.695 Z M 51.805 9.484 L 51.469 9.938 Q 51.728 9.825 51.793 9.549 A 0.76 0.76 0 0 0 51.805 9.484 Z M 119.055 9.484 L 118.719 9.938 Q 118.978 9.825 119.043 9.549 A 0.76 0.76 0 0 0 119.055 9.484 Z M 128.422 9.484 L 128.086 9.938 Q 128.346 9.825 128.41 9.549 A 0.76 0.76 0 0 0 128.422 9.484 Z M 85.641 8.117 L 85.422 8.008 L 85.32 8.445 L 85.641 8.117 Z M 7.484 7.711 L 7.141 7.711 A 0.385 0.385 0 0 0 7.186 7.886 Q 7.244 7.991 7.375 8.055 L 7.484 7.711 Z M 61.938 6.656 L 61.492 6.32 Q 61.641 6.563 61.938 6.656 Z M 1.813 2.719 L 1.477 2.609 L 1.477 2.953 L 1.813 2.719 Z M 85.102 4.094 L 84.773 4.094 Q 84.82 4.305 84.992 4.422 L 85.102 4.094 Z M 66.414 5.422 L 66.297 5.422 L 66.188 5.766 L 66.414 5.766 L 66.414 5.422 Z M 47.602 7.102 A 0.575 0.575 0 0 0 47.694 7.392 Q 47.743 7.47 47.818 7.545 A 1.076 1.076 0 0 0 47.828 7.555 A 0.533 0.533 0 0 0 47.741 7.266 Q 47.687 7.181 47.602 7.102 Z M 114.852 7.102 A 0.575 0.575 0 0 0 114.944 7.392 Q 114.993 7.47 115.068 7.545 A 1.076 1.076 0 0 0 115.078 7.555 A 0.533 0.533 0 0 0 114.991 7.266 Q 114.937 7.181 114.852 7.102 Z M 124.219 7.102 A 0.575 0.575 0 0 0 124.311 7.392 Q 124.36 7.47 124.435 7.545 A 1.076 1.076 0 0 0 124.445 7.555 A 0.533 0.533 0 0 0 124.358 7.266 Q 124.305 7.181 124.219 7.102 Z M 143.43 6.805 L 143.031 6.508 Q 143.148 6.758 143.43 6.805 Z M 74.922 5.398 L 74.813 5.398 L 74.703 5.727 L 74.922 5.727 L 74.922 5.398 Z M 99.07 5.898 L 99.289 6.344 A 0.92 0.92 0 0 0 99.07 5.898 Z M 108.305 5.898 L 108.523 6.344 A 0.92 0.92 0 0 0 108.305 5.898 Z M 77.555 1.672 L 77.219 2.008 Q 77.498 1.973 77.547 1.731 A 0.509 0.509 0 0 0 77.555 1.672 Z M 100.508 6.008 A 0.559 0.559 0 0 0 100.821 6.331 A 0.712 0.712 0 0 0 100.852 6.344 A 0.529 0.529 0 0 0 100.555 6.027 A 0.718 0.718 0 0 0 100.508 6.008 Z M 109.742 6.008 A 0.559 0.559 0 0 0 110.055 6.331 A 0.712 0.712 0 0 0 110.086 6.344 A 0.529 0.529 0 0 0 109.789 6.027 A 0.718 0.718 0 0 0 109.742 6.008 Z M 86.734 2.797 L 86.297 2.578 Q 86.477 2.758 86.734 2.797 Z M 75.359 6.273 L 74.922 6.055 Q 75.109 6.234 75.359 6.273 Z M 47.602 9.828 L 47.945 10.164 A 0.501 0.501 0 0 0 47.665 9.854 A 0.722 0.722 0 0 0 47.602 9.828 Z M 114.852 9.828 L 115.195 10.164 A 0.501 0.501 0 0 0 114.915 9.854 A 0.722 0.722 0 0 0 114.852 9.828 Z M 124.219 9.828 L 124.563 10.164 A 0.501 0.501 0 0 0 124.282 9.854 A 0.722 0.722 0 0 0 124.219 9.828 Z M 65.633 4.977 A 0.751 0.751 0 0 0 65.789 5.179 Q 65.861 5.246 65.956 5.305 A 1.282 1.282 0 0 0 65.969 5.313 A 0.555 0.555 0 0 0 65.671 4.993 A 0.754 0.754 0 0 0 65.633 4.977 Z M 143.531 5.5 L 143.328 5.398 L 143.43 5.797 L 143.531 5.5 Z M 1.477 3.172 L 1.25 3.172 L 1.359 3.516 L 1.477 3.172 Z M 85.203 6.703 L 85.102 6.703 L 84.992 7.031 L 85.203 6.922 L 85.203 6.703 Z M 48.398 5.734 L 48.172 5.617 L 48.289 5.961 L 48.398 5.734 Z M 115.648 5.734 L 115.422 5.617 L 115.539 5.961 L 115.648 5.734 Z M 125.016 5.734 L 124.789 5.617 L 124.906 5.961 L 125.016 5.734 Z M 47.719 5.281 L 47.492 5.172 L 47.602 5.508 L 47.719 5.281 Z M 114.969 5.281 L 114.742 5.172 L 114.852 5.508 L 114.969 5.281 Z M 124.336 5.281 L 124.109 5.172 L 124.219 5.508 L 124.336 5.281 Z M 48.063 4.938 L 47.719 4.828 Q 47.758 4.977 47.945 5.055 L 48.063 4.938 Z M 115.313 4.938 L 114.969 4.828 Q 115.008 4.977 115.195 5.055 L 115.313 4.938 Z M 124.68 4.938 L 124.336 4.828 Q 124.375 4.977 124.563 5.055 L 124.68 4.938 Z M 22.031 2.625 L 22.375 2.859 Q 22.281 2.688 22.031 2.625 Z M 26.953 2.734 L 26.844 2.969 L 27.07 2.969 L 27.07 2.734 L 26.953 2.734 Z M 62.727 7.773 A 0.434 0.434 0 0 0 62.905 8.081 A 0.609 0.609 0 0 0 62.945 8.109 A 0.517 0.517 0 0 0 62.872 7.917 A 0.487 0.487 0 0 0 62.727 7.773 Z M 77.555 3.102 L 77.336 2.766 Q 77.343 2.965 77.507 3.074 A 0.521 0.521 0 0 0 77.555 3.102 Z M 96.508 2.555 A 0.433 0.433 0 0 0 96.673 2.716 Q 96.743 2.757 96.836 2.781 A 0.392 0.392 0 0 0 96.69 2.629 Q 96.614 2.582 96.508 2.555 Z M 105.742 2.555 A 0.433 0.433 0 0 0 105.907 2.716 Q 105.978 2.757 106.07 2.781 A 0.392 0.392 0 0 0 105.925 2.629 Q 105.848 2.582 105.742 2.555 Z M 17.406 6.68 L 17.297 6.68 L 17.406 7.023 L 17.406 6.68 Z M 96.945 7.57 L 97.281 7.789 Q 97.212 7.663 97.035 7.598 A 0.873 0.873 0 0 0 96.945 7.57 Z M 106.18 7.57 L 106.516 7.789 Q 106.446 7.663 106.269 7.598 A 0.873 0.873 0 0 0 106.18 7.57 Z M 101.18 6.125 L 101.516 6.344 A 0.414 0.414 0 0 0 101.377 6.206 Q 101.295 6.155 101.18 6.125 Z M 110.414 6.125 L 110.75 6.344 A 0.414 0.414 0 0 0 110.611 6.206 Q 110.529 6.155 110.414 6.125 Z M 96.609 9.352 L 96.508 9.578 L 96.727 9.578 L 96.727 9.352 L 96.609 9.352 Z M 105.844 9.352 L 105.742 9.578 L 105.961 9.578 L 105.961 9.352 L 105.844 9.352 Z M 97.617 2.109 L 97.945 2.336 A 0.392 0.392 0 0 0 97.8 2.184 Q 97.723 2.137 97.617 2.109 Z M 106.852 2.109 L 107.18 2.336 A 0.392 0.392 0 0 0 107.034 2.184 Q 106.958 2.137 106.852 2.109 Z M 12.906 8.82 L 12.789 8.82 L 12.906 9.156 L 12.906 8.82 Z M 43.469 3.242 L 43.352 3.242 L 43.469 3.578 L 43.469 3.242 Z M 92.266 5.297 L 91.945 5.18 A 0.261 0.261 0 0 0 92.049 5.338 Q 92.088 5.367 92.14 5.389 A 0.59 0.59 0 0 0 92.164 5.398 L 92.266 5.297 Z M 17.297 3.305 L 17.188 3.305 L 17.297 3.641 L 17.297 3.305 Z M 143.43 4.695 L 143.227 4.398 A 0.482 0.482 0 0 0 143.278 4.543 A 0.394 0.394 0 0 0 143.43 4.695 Z M 77.875 9.563 L 77.656 9.453 L 77.656 9.672 L 77.875 9.563 Z M 48.508 8.578 A 0.28 0.28 0 0 0 48.586 8.705 Q 48.622 8.74 48.674 8.77 A 0.686 0.686 0 0 0 48.742 8.805 A 0.237 0.237 0 0 0 48.646 8.648 Q 48.609 8.619 48.557 8.597 A 0.619 0.619 0 0 0 48.508 8.578 Z M 115.758 8.578 A 0.28 0.28 0 0 0 115.836 8.705 Q 115.872 8.74 115.924 8.77 A 0.686 0.686 0 0 0 115.992 8.805 A 0.237 0.237 0 0 0 115.896 8.648 Q 115.859 8.619 115.807 8.597 A 0.619 0.619 0 0 0 115.758 8.578 Z M 125.125 8.578 A 0.28 0.28 0 0 0 125.203 8.705 Q 125.24 8.74 125.291 8.77 A 0.686 0.686 0 0 0 125.359 8.805 A 0.237 0.237 0 0 0 125.263 8.648 Q 125.226 8.619 125.175 8.597 A 0.619 0.619 0 0 0 125.125 8.578 Z M 1.974 7.57 A 0.637 0.637 0 0 0 2.047 7.602 A 0.258 0.258 0 0 0 2 7.52 Q 1.948 7.457 1.849 7.396 A 1.105 1.105 0 0 0 1.813 7.375 Q 1.832 7.495 1.974 7.57 Z M 17.633 2.961 A 0.285 0.285 0 0 0 17.73 3.109 Q 17.785 3.155 17.867 3.188 A 0.25 0.25 0 0 0 17.826 3.117 Q 17.779 3.058 17.688 2.996 A 1.224 1.224 0 0 0 17.633 2.961 Z M 13.914 9.836 Q 13.953 9.984 14.141 10.063 A 0.238 0.238 0 0 0 14.058 9.918 Q 14.003 9.87 13.914 9.836 Z M 12.453 8.367 A 0.267 0.267 0 0 0 12.567 8.537 Q 12.608 8.566 12.663 8.587 A 0.606 0.606 0 0 0 12.68 8.594 A 0.261 0.261 0 0 0 12.638 8.521 Q 12.591 8.461 12.502 8.399 A 1.2 1.2 0 0 0 12.453 8.367 Z M 12.117 7.469 Q 12.156 7.586 12.344 7.695 Q 12.316 7.565 12.164 7.489 A 0.627 0.627 0 0 0 12.117 7.469 Z M 66.297 6.547 A 0.278 0.278 0 0 0 66.384 6.682 Q 66.421 6.715 66.473 6.742 A 0.639 0.639 0 0 0 66.523 6.766 A 0.23 0.23 0 0 0 66.435 6.619 Q 66.4 6.591 66.352 6.569 A 0.603 0.603 0 0 0 66.297 6.547 Z M 66.75 9.453 A 0.254 0.254 0 0 0 66.848 9.604 Q 66.886 9.634 66.937 9.656 A 0.606 0.606 0 0 0 66.977 9.672 A 0.249 0.249 0 0 0 66.898 9.541 Q 66.842 9.49 66.75 9.453 Z M 86.617 3.336 A 0.236 0.236 0 0 0 86.711 3.489 Q 86.746 3.517 86.795 3.538 A 0.588 0.588 0 0 0 86.836 3.555 A 0.236 0.236 0 0 0 86.743 3.402 Q 86.707 3.374 86.658 3.352 A 0.588 0.588 0 0 0 86.617 3.336 Z M 96.836 8.687 A 0.249 0.249 0 0 0 96.915 8.819 Q 96.971 8.869 97.063 8.906 A 0.252 0.252 0 0 0 97.02 8.833 Q 96.971 8.773 96.879 8.714 A 1.131 1.131 0 0 0 96.836 8.687 Z M 106.07 8.687 A 0.249 0.249 0 0 0 106.149 8.819 Q 106.205 8.869 106.297 8.906 A 0.252 0.252 0 0 0 106.254 8.833 Q 106.205 8.773 106.113 8.714 A 1.131 1.131 0 0 0 106.07 8.687 Z M 36.242 2.227 L 36.469 2.453 Q 36.43 2.336 36.242 2.227 Z M 66.977 8.672 A 0.263 0.263 0 0 0 67.02 8.747 Q 67.069 8.808 67.161 8.869 A 1.112 1.112 0 0 0 67.195 8.891 A 0.236 0.236 0 0 0 67.102 8.738 Q 67.066 8.71 67.017 8.688 A 0.588 0.588 0 0 0 66.977 8.672 Z M 91.078 7.68 A 0.236 0.236 0 0 0 91.172 7.832 Q 91.207 7.86 91.256 7.882 A 0.588 0.588 0 0 0 91.297 7.898 A 0.263 0.263 0 0 0 91.253 7.823 Q 91.205 7.762 91.112 7.701 A 1.112 1.112 0 0 0 91.078 7.68 Z M 91.69 5.709 A 0.602 0.602 0 0 0 91.727 5.727 Q 91.705 5.589 91.542 5.518 A 0.572 0.572 0 0 0 91.516 5.508 Q 91.544 5.633 91.69 5.709 Z M 21.914 2.281 L 22.031 2.516 L 22.031 2.281 L 21.914 2.281 Z M 1.93 2.266 L 2.047 2.492 L 2.047 2.266 L 1.93 2.266 Z M 47.945 7.555 L 48.063 7.781 L 48.063 7.555 L 47.945 7.555 Z M 115.195 7.555 L 115.313 7.781 L 115.313 7.555 L 115.195 7.555 Z M 124.563 7.555 L 124.68 7.781 L 124.68 7.555 L 124.563 7.555 Z M 23.75 4.688 L 23.859 4.914 L 23.859 4.688 L 23.75 4.688 Z M 35.563 2.227 L 35.672 2.453 L 35.672 2.227 L 35.563 2.227 Z M 35.789 3.695 L 35.898 3.922 L 35.898 3.695 L 35.789 3.695 Z M 143.125 4.102 Q 143.164 4.195 143.328 4.297 Q 143.305 4.164 143.125 4.102 Z M 143.227 8.508 A 0.206 0.206 0 0 0 143.291 8.621 Q 143.341 8.669 143.43 8.703 Q 143.393 8.608 143.247 8.52 A 0.984 0.984 0 0 0 143.227 8.508 Z M 85.969 7.359 L 86.078 7.578 L 86.078 7.359 L 85.969 7.359 Z" vector-effect="non-scaling-stroke"/></g></svg>
