<svg width="181pt" height="16pt" viewBox="0 0 181 16" xmlns="http://www.w3.org/2000/svg"><g id="fontsvg1672081328907" stroke-linecap="round" fill-rule="evenodd" fill="#ff9900"><path d="M 42.617 1.65 L 43.75 0.947 A 10.291 10.291 0 0 0 44.543 1.111 Q 44.965 1.182 45.439 1.23 L 46.992 1.367 A 3.254 3.254 0 0 1 47.668 1.959 A 4.114 4.114 0 0 1 47.979 2.363 L 48.408 5.459 L 48.828 7.012 L 48.965 8.848 A 6.747 6.747 0 0 1 48.771 10.216 A 7.766 7.766 0 0 1 48.682 10.547 A 0.918 0.918 0 0 0 49.073 10.947 A 1.141 1.141 0 0 0 49.111 10.967 L 49.541 10.41 L 49.678 9.844 L 49.395 9.707 L 49.541 9.414 L 49.814 8.145 L 49.678 7.295 L 49.961 6.738 L 50.244 5.039 A 5.411 5.411 0 0 1 50.39 4.076 A 6.488 6.488 0 0 1 50.518 3.623 L 50.801 2.08 A 3.558 3.558 0 0 1 52.034 1.382 A 4.066 4.066 0 0 1 52.08 1.367 L 53.916 1.23 L 55.605 1.504 Q 55.908 2.256 56.025 3.066 L 56.025 6.875 L 55.889 8.145 L 56.025 8.574 L 56.025 9.844 L 56.172 10.127 L 56.025 10.264 L 56.172 11.68 L 56.025 13.516 A 8.853 8.853 0 0 1 55.435 13.872 A 11.929 11.929 0 0 1 54.756 14.219 A 5.537 5.537 0 0 1 53.711 14.073 A 6.715 6.715 0 0 1 53.213 13.936 A 3.056 3.056 0 0 1 52.535 12.895 A 3.543 3.543 0 0 1 52.5 12.803 L 53.057 4.473 Q 52.705 4.951 52.5 5.605 L 51.797 10.264 A 7.558 7.558 0 0 1 51.522 11.043 A 9.732 9.732 0 0 1 51.23 11.68 L 51.377 12.949 L 51.23 13.379 A 7.463 7.463 0 0 1 50.708 13.728 Q 50.434 13.896 50.118 14.062 A 12.067 12.067 0 0 1 50.098 14.072 L 49.678 14.072 L 49.678 14.219 L 48.408 14.072 A 5.447 5.447 0 0 1 47.78 13.499 A 6.719 6.719 0 0 1 47.422 13.086 L 47.275 11.25 L 46.572 8.145 A 5.018 5.018 0 0 1 46.314 7.017 A 5.749 5.749 0 0 1 46.289 6.738 L 46.006 5.039 L 46.006 4.336 L 45.586 5.039 L 45.869 6.592 L 45.723 7.871 L 45.869 8.291 L 45.723 10.127 L 46.426 12.949 A 3.425 3.425 0 0 1 45.871 13.591 A 4.37 4.37 0 0 1 45.439 13.936 L 44.17 14.072 L 43.75 13.936 A 3.319 3.319 0 0 1 43.028 13.614 A 4.499 4.499 0 0 1 42.471 13.223 L 42.471 11.25 L 42.754 9.561 L 42.334 8.008 L 42.754 6.592 L 42.334 5.039 L 42.471 3.203 L 42.334 2.783 L 42.617 1.65 Z M 59.229 0.928 L 61.494 1.201 L 63.623 1.064 L 65.469 1.201 L 65.898 1.064 Q 66.738 1.221 67.451 1.777 L 67.598 3.34 L 67.451 3.76 L 67.031 4.473 L 66.035 4.609 L 65.752 4.473 L 61.494 4.326 L 61.924 5.752 L 66.182 5.459 L 66.602 5.615 L 67.314 6.172 L 67.168 7.314 Q 66.934 8.096 66.455 8.877 L 64.336 9.014 L 62.344 8.447 A 2.682 2.682 0 0 0 61.673 9.867 A 3.432 3.432 0 0 0 61.641 10.146 A 5.263 5.263 0 0 0 63.34 10.576 L 67.314 10.293 L 67.744 10.576 L 68.018 12.139 A 4.997 4.997 0 0 1 67.74 13.306 A 6.323 6.323 0 0 1 67.451 13.975 L 65.898 14.121 L 65.469 13.975 L 63.34 13.701 A 8.2 8.2 0 0 1 61.51 13.97 A 9.156 9.156 0 0 1 61.348 13.975 L 59.365 14.268 A 3.88 3.88 0 0 1 58.242 13.47 A 4.742 4.742 0 0 1 57.939 13.135 L 57.803 11.572 L 57.939 11.143 L 58.086 10.01 L 57.939 9.727 L 57.939 8.877 L 58.086 6.465 L 57.939 4.473 L 58.086 2.061 A 3.874 3.874 0 0 1 58.649 1.399 A 5.223 5.223 0 0 1 59.229 0.928 Z M 143.291 0.928 L 145.557 1.201 L 147.686 1.064 L 149.531 1.201 L 149.961 1.064 Q 150.801 1.221 151.514 1.777 L 151.66 3.34 L 151.514 3.76 L 151.094 4.473 L 150.098 4.609 L 149.814 4.473 L 145.557 4.326 L 145.986 5.752 L 150.244 5.459 L 150.664 5.615 L 151.377 6.172 L 151.23 7.314 Q 150.996 8.096 150.518 8.877 L 148.398 9.014 L 146.406 8.447 A 2.682 2.682 0 0 0 145.736 9.867 A 3.432 3.432 0 0 0 145.703 10.146 A 5.263 5.263 0 0 0 147.402 10.576 L 151.377 10.293 L 151.807 10.576 L 152.08 12.139 A 4.997 4.997 0 0 1 151.803 13.306 A 6.323 6.323 0 0 1 151.514 13.975 L 149.961 14.121 L 149.531 13.975 L 147.402 13.701 A 8.2 8.2 0 0 1 145.573 13.97 A 9.156 9.156 0 0 1 145.41 13.975 L 143.428 14.268 A 3.88 3.88 0 0 1 142.305 13.47 A 4.742 4.742 0 0 1 142.002 13.135 L 141.865 11.572 L 142.002 11.143 L 142.148 10.01 L 142.002 9.727 L 142.002 8.877 L 142.148 6.465 L 142.002 4.473 L 142.148 2.061 A 3.874 3.874 0 0 1 142.712 1.399 A 5.223 5.223 0 0 1 143.291 0.928 Z M 155 0.928 L 157.266 1.201 L 159.395 1.064 L 161.24 1.201 L 161.67 1.064 Q 162.51 1.221 163.223 1.777 L 163.369 3.34 L 163.223 3.76 L 162.803 4.473 L 161.807 4.609 L 161.523 4.473 L 157.266 4.326 L 157.695 5.752 L 161.953 5.459 L 162.373 5.615 L 163.086 6.172 L 162.939 7.314 Q 162.705 8.096 162.227 8.877 L 160.107 9.014 L 158.115 8.447 A 2.682 2.682 0 0 0 157.445 9.867 A 3.432 3.432 0 0 0 157.412 10.146 A 5.263 5.263 0 0 0 159.111 10.576 L 163.086 10.293 L 163.516 10.576 L 163.789 12.139 A 4.997 4.997 0 0 1 163.512 13.306 A 6.323 6.323 0 0 1 163.223 13.975 L 161.67 14.121 L 161.24 13.975 L 159.111 13.701 A 8.2 8.2 0 0 1 157.282 13.97 A 9.156 9.156 0 0 1 157.119 13.975 L 155.137 14.268 A 3.88 3.88 0 0 1 154.014 13.47 A 4.742 4.742 0 0 1 153.711 13.135 L 153.574 11.572 L 153.711 11.143 L 153.857 10.01 L 153.711 9.727 L 153.711 8.877 L 153.857 6.465 L 153.711 4.473 L 153.857 2.061 A 3.874 3.874 0 0 1 154.421 1.399 A 5.223 5.223 0 0 1 155 0.928 Z M 13.027 1.729 L 14.434 0.889 A 11.974 11.974 0 0 1 15.376 1.052 A 16.375 16.375 0 0 1 16.406 1.309 L 17.109 1.865 L 16.836 6.943 L 16.973 9.199 A 3.981 3.981 0 0 0 17.201 9.932 A 5.496 5.496 0 0 0 17.539 10.605 L 18.945 10.889 L 19.375 10.742 A 3.521 3.521 0 0 0 19.833 9.951 A 4.835 4.835 0 0 0 20.078 9.199 L 19.932 7.08 L 20.078 5.537 L 19.932 4.971 L 20.078 3.145 L 19.795 2.148 L 19.932 1.865 L 20.215 1.445 L 21.904 0.889 A 8.569 8.569 0 0 1 22.965 1.061 A 11.27 11.27 0 0 1 23.877 1.309 L 24.023 1.865 L 23.877 3.428 L 23.457 3.848 Q 23.662 4.326 23.74 4.971 L 23.594 7.08 L 23.877 8.496 L 23.74 9.053 A 10.091 10.091 0 0 1 23.626 10.272 A 12.742 12.742 0 0 1 23.457 11.162 A 6.985 6.985 0 0 1 22.617 12.441 L 21.338 13.564 L 19.512 14.121 L 18.809 13.975 L 18.242 14.268 L 17.813 14.121 L 15.85 13.848 L 14.57 12.725 Q 13.984 12.178 13.447 11.445 L 13.027 7.93 L 13.027 5.537 L 13.164 3.984 A 14.021 14.021 0 0 1 13.064 2.958 Q 13.032 2.451 13.028 1.89 A 22.748 22.748 0 0 1 13.027 1.729 Z M 119.102 2.08 L 120.068 1.104 L 122.715 1.523 L 122.998 1.387 L 123.408 1.387 L 123.408 1.25 L 125.225 1.523 L 127.031 1.387 L 128.564 1.66 A 7.764 7.764 0 0 1 128.722 2.387 Q 128.787 2.772 128.827 3.205 A 13.06 13.06 0 0 1 128.838 3.33 A 3.85 3.85 0 0 1 128.145 4.727 L 126.338 4.863 L 124.385 4.727 L 123.271 4.453 L 122.861 4.59 L 122.578 5 L 122.715 6.123 L 123.135 6.26 L 125.918 5.977 L 127.861 6.123 L 128.291 7.793 L 127.861 9.326 L 126.064 9.609 L 123.271 9.18 A 0.669 0.669 0 0 0 123.052 9.267 A 0.592 0.592 0 0 0 122.861 9.463 L 122.715 9.883 A 3.817 3.817 0 0 1 122.805 10.327 Q 122.85 10.634 122.861 10.996 L 122.998 12.246 L 122.861 12.666 L 122.998 13.789 L 122.432 14.063 L 120.908 14.199 A 3.868 3.868 0 0 1 120.197 14.079 Q 119.803 13.975 119.375 13.789 A 3.452 3.452 0 0 1 118.935 12.926 A 4.23 4.23 0 0 1 118.818 12.529 L 119.102 10.713 L 118.955 8.906 L 119.102 7.373 L 118.955 5.43 L 119.102 4.17 L 118.955 3.75 L 118.818 2.5 L 119.102 2.08 Z M 130.645 2.08 L 131.611 1.104 L 134.258 1.523 L 134.541 1.387 L 134.951 1.387 L 134.951 1.25 L 136.768 1.523 L 138.574 1.387 L 140.107 1.66 A 7.764 7.764 0 0 1 140.265 2.387 Q 140.33 2.772 140.37 3.205 A 13.06 13.06 0 0 1 140.381 3.33 A 3.85 3.85 0 0 1 139.688 4.727 L 137.881 4.863 L 135.928 4.727 L 134.814 4.453 L 134.404 4.59 L 134.121 5 L 134.258 6.123 L 134.678 6.26 L 137.461 5.977 L 139.404 6.123 L 139.834 7.793 L 139.404 9.326 L 137.607 9.609 L 134.814 9.18 A 0.669 0.669 0 0 0 134.595 9.267 A 0.592 0.592 0 0 0 134.404 9.463 L 134.258 9.883 A 3.817 3.817 0 0 1 134.348 10.327 Q 134.393 10.634 134.404 10.996 L 134.541 12.246 L 134.404 12.666 L 134.541 13.789 L 133.975 14.063 L 132.451 14.199 A 3.868 3.868 0 0 1 131.74 14.079 Q 131.346 13.975 130.918 13.789 A 3.452 3.452 0 0 1 130.478 12.926 A 4.23 4.23 0 0 1 130.361 12.529 L 130.645 10.713 L 130.498 8.906 L 130.645 7.373 L 130.498 5.43 L 130.645 4.17 L 130.498 3.75 L 130.361 2.5 L 130.645 2.08 Z M 95.43 1.543 L 97.07 0.996 A 10.823 10.823 0 0 1 97.983 1.102 A 14.306 14.306 0 0 1 98.857 1.27 L 100.635 1.689 A 7.698 7.698 0 0 1 101.246 2.252 A 10.057 10.057 0 0 1 101.729 2.783 L 102.822 4.004 A 3.408 3.408 0 0 1 102.469 4.893 A 4.381 4.381 0 0 1 102.148 5.381 A 5.547 5.547 0 0 1 101.064 6.071 A 6.411 6.411 0 0 1 100.781 6.201 A 4.799 4.799 0 0 1 99.876 5.728 A 5.98 5.98 0 0 1 99.404 5.381 L 98.174 4.424 L 96.67 5.107 A 6.241 6.241 0 0 0 95.729 6.295 A 6.902 6.902 0 0 0 95.703 6.338 L 95.576 7.432 L 95.703 7.842 L 95.703 8.262 L 96.25 9.902 L 97.627 10.723 A 4.826 4.826 0 0 0 99.116 10.254 A 5.525 5.525 0 0 0 99.268 10.176 L 100.361 9.082 A 5.106 5.106 0 0 1 101.396 9.305 A 6.117 6.117 0 0 1 101.875 9.482 A 5.516 5.516 0 0 1 102.488 10.095 A 7.356 7.356 0 0 1 102.969 10.723 A 8.1 8.1 0 0 1 102.582 11.434 A 10.75 10.75 0 0 1 102.148 12.09 L 100.908 13.184 L 99.541 14.004 L 98.037 14.141 L 97.627 14.004 L 97.07 14.141 L 95.703 13.867 L 94.199 13.184 L 92.285 10.576 L 92.012 8.662 L 92.148 6.748 L 92.012 5.654 L 92.148 5.381 L 92.285 4.971 L 92.969 3.457 L 94.063 2.363 L 95.43 1.543 Z M 24.814 0.996 L 26.533 1.279 L 27.686 1.133 L 28.115 1.279 L 29.111 2.285 L 29.824 3.418 L 30.4 4.854 A 0.984 0.984 0 0 0 31.05 4.503 A 1.344 1.344 0 0 0 31.113 4.424 A 3.253 3.253 0 0 1 31.564 3.606 A 4.014 4.014 0 0 1 31.836 3.281 A 4.178 4.178 0 0 1 32.378 2.031 A 4.696 4.696 0 0 1 32.402 1.992 L 33.691 1.279 L 35.693 1.279 L 36.846 2.129 A 4.12 4.12 0 0 1 36.211 3.178 A 4.69 4.69 0 0 1 36.123 3.281 L 32.979 7.715 A 2.069 2.069 0 0 0 32.576 8.649 A 2.569 2.569 0 0 0 32.549 8.857 L 32.402 10.146 L 32.549 10.576 L 32.549 12.441 A 3.619 3.619 0 0 1 32.266 13.73 Q 31.533 14.033 30.684 14.15 L 29.541 14.297 L 29.111 14.004 A 3.275 3.275 0 0 1 28.699 12.958 A 3.738 3.738 0 0 1 28.682 12.871 L 28.545 9.15 L 28.682 8.291 L 28.398 7.715 L 27.393 6.709 L 24.248 2.285 Q 24.434 1.611 24.814 0.996 Z M 77.979 1.328 L 79.238 0.908 A 7.552 7.552 0 0 1 80.918 1.191 L 82.041 1.885 Q 82.339 2.413 82.59 3.122 A 10.838 10.838 0 0 1 82.598 3.145 L 83.291 5.664 L 83.857 6.777 L 84.268 8.184 L 84.971 9.297 Q 85.078 9.99 85.4 10.693 L 85.947 11.963 L 86.23 12.939 L 85.996 13.428 L 84.883 14.121 L 83.623 14.121 L 83.623 14.258 L 83.203 14.121 A 2.409 2.409 0 0 1 82.56 13.742 A 3.131 3.131 0 0 1 82.227 13.428 A 4.78 4.78 0 0 1 81.966 12.56 A 3.956 3.956 0 0 1 81.895 11.963 L 81.611 11.816 L 81.064 12.09 L 80.781 11.963 L 78.955 11.963 A 1.839 1.839 0 0 0 78.037 12.701 A 2.331 2.331 0 0 0 77.979 12.793 L 77.275 13.916 L 75.879 14.336 L 74.346 14.053 A 3.962 3.962 0 0 1 73.872 13.572 A 5.293 5.293 0 0 1 73.506 13.076 L 74.619 10.566 L 74.766 9.023 L 75.469 7.754 L 76.729 3.701 L 77.275 2.588 A 5.302 5.302 0 0 1 77.869 1.48 A 6 6 0 0 1 77.979 1.328 Z M 0 1.699 L 0.713 1.133 L 7.373 1.27 A 5.578 5.578 0 0 1 9.042 1.824 A 7.019 7.019 0 0 1 9.785 2.266 A 3.964 3.964 0 0 1 10.552 3.992 A 5.151 5.151 0 0 1 10.635 4.678 L 10.771 5.957 L 9.639 6.807 L 10.635 8.076 A 10.328 10.328 0 0 1 11.133 9.527 A 12.678 12.678 0 0 1 11.348 10.488 A 7.389 7.389 0 0 1 10.674 12.162 A 9.041 9.041 0 0 1 10.215 12.91 A 8.403 8.403 0 0 1 9.191 13.485 Q 8.655 13.741 8.028 13.962 A 14.383 14.383 0 0 1 7.793 14.043 L 6.807 14.18 L 6.523 14.043 L 2.695 14.18 L 2.266 14.043 L 1.846 14.043 L 1.846 14.18 A 2.97 2.97 0 0 1 0.06 12.608 A 3.892 3.892 0 0 1 0 12.48 L 0.283 9.502 L 0.137 8.076 L 0.283 6.523 L 0 1.699 Z M 107.051 2.266 L 109.092 1.045 L 111.27 1.045 L 112.217 1.318 A 7.299 7.299 0 0 1 113.485 1.739 A 9.735 9.735 0 0 1 114.521 2.266 A 5.163 5.163 0 0 1 115.374 3.015 Q 115.73 3.402 116.059 3.891 A 8.85 8.85 0 0 1 116.152 4.033 L 116.973 6.348 A 6.754 6.754 0 0 0 116.709 7.71 A 7.52 7.52 0 0 0 116.699 7.832 L 116.836 8.379 A 12.305 12.305 0 0 1 116.385 10.404 A 14.338 14.338 0 0 1 116.152 11.094 L 114.521 12.861 Q 113.971 13.251 113.213 13.682 A 26.655 26.655 0 0 1 112.48 14.082 L 109.502 14.219 A 8.251 8.251 0 0 1 108.221 13.715 A 10.934 10.934 0 0 1 107.188 13.135 Q 106.37 12.529 105.449 11.668 A 27.408 27.408 0 0 1 105.42 11.641 L 104.609 9.063 L 104.746 6.475 Q 104.854 5.371 105.42 4.033 L 107.051 2.266 Z M 180.781 7.246 L 180.908 7.754 L 180.781 9.004 L 180.781 9.385 Q 180.645 10.4 180.156 11.377 Q 179.893 12.266 179.287 13.252 L 178.281 14.99 L 177.402 15.498 A 3.24 3.24 0 0 1 176.713 15.191 A 3.957 3.957 0 0 1 176.406 14.99 A 14.083 14.083 0 0 1 176.65 13.008 A 5.839 5.839 0 0 0 177.097 11.814 A 7.599 7.599 0 0 0 177.275 10.879 A 9.667 9.667 0 0 0 177.539 9.646 A 12.79 12.79 0 0 0 177.656 8.506 L 177.773 7.881 L 177.656 7.627 L 177.529 4.375 L 177.402 4.121 L 177.275 3.75 A 12.745 12.745 0 0 0 176.984 2.801 Q 176.788 2.238 176.523 1.621 L 176.152 0.752 A 4.678 4.678 0 0 1 176.44 0.43 Q 176.646 0.22 176.904 0 A 3.471 3.471 0 0 1 178.662 0.996 A 8.819 8.819 0 0 1 179.179 1.854 Q 179.413 2.294 179.629 2.803 A 14.419 14.419 0 0 1 179.658 2.871 A 5.35 5.35 0 0 1 180.044 3.843 Q 180.181 4.308 180.261 4.845 A 9.147 9.147 0 0 1 180.283 5 A 5.096 5.096 0 0 1 180.715 6.449 A 6.457 6.457 0 0 1 180.781 7.246 Z M 110.313 4.443 L 108.545 5.801 L 108.271 7.559 A 4.098 4.098 0 0 0 108.518 8.682 A 5.713 5.713 0 0 0 108.955 9.6 A 3.625 3.625 0 0 0 110.66 10.493 A 4.532 4.532 0 0 0 110.996 10.557 A 3.421 3.421 0 0 0 112.409 9.591 A 4.241 4.241 0 0 0 112.627 9.326 Q 112.92 8.398 113.027 7.021 A 3.358 3.358 0 0 0 112.752 5.974 A 4.589 4.589 0 0 0 112.354 5.254 A 9.086 9.086 0 0 0 110.757 4.575 A 10.451 10.451 0 0 0 110.313 4.443 Z M 171.816 11.182 L 172.979 10.488 A 3.09 3.09 0 0 1 173.857 10.955 A 3.765 3.765 0 0 1 174.131 11.182 L 174.365 12.803 A 10.027 10.027 0 0 1 174.138 13.564 A 12.668 12.668 0 0 1 173.906 14.189 L 172.393 14.424 A 2.998 2.998 0 0 1 171.307 13.792 A 3.484 3.484 0 0 1 171.24 13.73 L 171.006 12.109 Q 171.299 11.582 171.816 11.182 Z M 171.699 4.238 L 172.861 3.545 A 3.2 3.2 0 0 1 174.131 4.238 L 174.248 4.58 L 174.131 5.391 L 174.131 5.742 Q 174.102 6.396 173.906 7.246 L 172.393 7.363 A 2.646 2.646 0 0 1 171.34 6.867 A 3.119 3.119 0 0 1 171.24 6.787 L 170.889 5.273 A 2.726 2.726 0 0 1 171.297 4.64 A 3.641 3.641 0 0 1 171.699 4.238 Z M 4.824 9.082 L 3.828 8.789 A 5.463 5.463 0 0 0 4.031 10.24 A 6.728 6.728 0 0 0 4.258 10.918 A 14.912 14.912 0 0 0 5.406 10.797 Q 6.189 10.686 7.09 10.488 L 7.373 9.219 L 6.387 8.789 L 4.824 9.082 Z M 4.541 4.395 L 4.111 4.111 L 3.828 5.527 L 3.965 6.094 L 4.395 6.094 A 15.658 15.658 0 0 1 5.621 5.903 A 19.775 19.775 0 0 1 6.66 5.811 L 7.236 4.824 L 6.387 4.395 L 5.674 4.541 L 5.254 4.395 L 4.541 4.395 Z M 79.238 7.9 L 79.102 8.887 L 80.361 9.023 A 0.767 0.767 0 0 0 80.754 8.659 A 1.005 1.005 0 0 0 80.781 8.604 L 80.498 7.344 A 8.897 8.897 0 0 0 80.097 6.445 A 11.754 11.754 0 0 0 79.658 5.664 Q 79.619 6.699 79.238 7.9 Z M 115.332 8.242 L 114.795 8.242 L 114.121 8.789 A 3.427 3.427 0 0 0 114.333 9.319 Q 114.451 9.556 114.611 9.802 A 5.721 5.721 0 0 0 114.658 9.873 L 114.521 8.789 L 115.332 8.242 Z M 99.678 11.406 L 98.447 12.09 Q 98.643 12.363 98.994 12.5 A 3.021 3.021 0 0 1 99.726 12.079 A 3.714 3.714 0 0 1 100.088 11.953 A 0.682 0.682 0 0 0 99.805 11.487 A 1.03 1.03 0 0 0 99.678 11.406 Z M 114.248 4.307 L 112.891 3.086 A 1.581 1.581 0 0 0 113.802 4.158 A 2.377 2.377 0 0 0 114.248 4.307 Z M 3.828 7.939 L 2.832 6.943 L 2.979 8.223 L 3.828 7.939 Z M 22.471 7.646 L 21.904 6.797 L 21.621 8.213 Q 21.777 8.188 21.871 8.004 A 0.779 0.779 0 0 0 21.904 7.93 L 22.471 7.646 Z M 44.17 6.875 L 44.033 6.738 L 44.17 7.441 L 44.033 7.871 L 44.453 7.441 L 44.736 6.738 L 44.17 6.875 Z M 81.475 10.137 L 82.314 11.543 A 3.387 3.387 0 0 0 81.549 10.215 A 3.974 3.974 0 0 0 81.475 10.137 Z M 111.123 12.588 L 111.123 12.998 L 111.543 12.861 L 112.08 12.588 A 0.916 0.916 0 0 0 111.714 11.946 A 1.195 1.195 0 0 0 111.67 11.914 Q 111.348 12.168 111.123 12.588 Z M 120.635 4.17 A 1.578 1.578 0 0 0 121.025 4.671 Q 121.325 4.921 121.751 4.985 A 1.93 1.93 0 0 0 121.885 5 A 1.503 1.503 0 0 0 120.937 4.237 A 2.26 2.26 0 0 0 120.635 4.17 Z M 132.178 4.17 A 1.578 1.578 0 0 0 132.568 4.671 Q 132.868 4.921 133.294 4.985 A 1.93 1.93 0 0 0 133.428 5 A 1.503 1.503 0 0 0 132.48 4.237 A 2.26 2.26 0 0 0 132.178 4.17 Z M 77.002 6.504 A 2.137 2.137 0 0 0 77.724 7.265 A 2.867 2.867 0 0 0 78.125 7.48 Q 77.705 6.895 77.002 6.504 Z M 94.199 4.424 L 93.926 5.381 A 0.246 0.246 0 0 0 93.968 5.525 Q 94.033 5.619 94.199 5.654 Q 94.453 5.254 94.609 4.697 Q 94.519 4.533 94.291 4.452 A 1.067 1.067 0 0 0 94.199 4.424 Z M 9.355 10.771 L 8.086 11.064 L 8.652 11.348 A 1.077 1.077 0 0 0 9.007 11.2 A 0.94 0.94 0 0 0 9.355 10.771 Z M 78.818 4.268 L 78.535 5.381 L 79.102 5.381 A 2.348 2.348 0 0 0 78.892 4.422 A 2.805 2.805 0 0 0 78.818 4.268 Z M 15.146 4.971 L 14.717 4.551 L 14.434 5.391 L 14.863 5.674 L 15.146 4.971 Z M 29.111 5.859 L 28.975 5 L 28.252 5.713 L 29.111 5.859 Z M 61.348 11.436 L 60.791 12.139 L 61.064 12.568 A 2.391 2.391 0 0 0 61.341 11.59 A 2.848 2.848 0 0 0 61.348 11.436 Z M 145.41 11.436 L 144.854 12.139 L 145.127 12.568 A 2.391 2.391 0 0 0 145.404 11.59 A 2.848 2.848 0 0 0 145.41 11.436 Z M 157.119 11.436 L 156.563 12.139 L 156.836 12.568 A 2.391 2.391 0 0 0 157.113 11.59 A 2.848 2.848 0 0 0 157.119 11.436 Z M 106.504 6.201 L 106.24 6.885 L 106.65 7.158 L 106.924 7.021 Q 106.846 6.553 106.504 6.201 Z M 6.807 7.373 L 6.523 7.939 L 7.373 8.076 A 1.019 1.019 0 0 0 6.876 7.411 A 1.287 1.287 0 0 0 6.807 7.373 Z M 79.932 3.008 L 79.658 2.588 L 79.102 2.725 Q 79.268 3.027 79.658 3.281 L 79.932 3.008 Z M 110.176 12.451 L 109.775 11.914 L 109.502 12.588 L 109.902 12.725 L 110.176 12.451 Z M 43.887 4.336 L 44.59 4.473 A 1.077 1.077 0 0 0 44.387 3.874 A 1.396 1.396 0 0 0 44.307 3.77 A 1.12 1.12 0 0 0 44.002 4.102 A 1.51 1.51 0 0 0 43.887 4.336 Z M 1.982 11.768 L 1.846 12.334 A 4.296 4.296 0 0 0 1.974 12.437 Q 2.156 12.575 2.258 12.615 A 0.355 0.355 0 0 0 2.266 12.617 L 2.412 12.051 Q 2.131 11.818 1.985 11.768 A 0.369 0.369 0 0 0 1.982 11.768 Z M 82.598 8.604 L 82.041 8.604 L 82.041 9.297 L 82.598 8.604 Z M 2.412 10.635 L 1.699 10.352 L 1.699 10.918 L 2.412 10.635 Z M 8.086 4.111 L 8.652 4.961 Q 8.574 4.453 8.086 4.111 Z M 100.234 3.457 L 99.951 3.057 L 99.678 3.877 L 100.234 3.457 Z M 94.199 9.482 A 1.517 1.517 0 0 0 94.756 10.303 A 0.921 0.921 0 0 0 94.432 9.651 A 1.467 1.467 0 0 0 94.199 9.482 Z M 64.189 2.207 A 1.35 1.35 0 0 0 64.604 2.727 A 1.872 1.872 0 0 0 64.893 2.91 Q 64.652 2.535 64.203 2.216 A 3.637 3.637 0 0 0 64.189 2.207 Z M 148.252 2.207 A 1.35 1.35 0 0 0 148.667 2.727 A 1.872 1.872 0 0 0 148.955 2.91 Q 148.715 2.535 148.265 2.216 A 3.637 3.637 0 0 0 148.252 2.207 Z M 159.961 2.207 A 1.35 1.35 0 0 0 160.376 2.727 A 1.872 1.872 0 0 0 160.664 2.91 Q 160.423 2.535 159.974 2.216 A 3.637 3.637 0 0 0 159.961 2.207 Z M 121.328 5.84 L 120.762 5.703 Q 120.769 6.035 120.902 6.245 A 0.681 0.681 0 0 0 121.045 6.406 L 121.328 5.84 Z M 132.871 5.84 L 132.305 5.703 Q 132.311 6.035 132.445 6.245 A 0.681 0.681 0 0 0 132.588 6.406 L 132.871 5.84 Z M 63.623 12.285 L 62.91 11.992 L 63.057 12.568 L 63.623 12.285 Z M 147.686 12.285 L 146.973 11.992 L 147.119 12.568 L 147.686 12.285 Z M 159.395 12.285 L 158.682 11.992 L 158.828 12.568 L 159.395 12.285 Z M 95.703 11.543 A 2.391 2.391 0 0 0 95.102 11.897 A 2.912 2.912 0 0 0 94.883 12.09 Q 95.361 11.895 95.703 11.543 Z M 1.699 5.527 A 1.726 1.726 0 0 0 2.076 5.803 A 1.386 1.386 0 0 0 2.559 5.957 A 1.66 1.66 0 0 0 1.932 5.589 A 2.094 2.094 0 0 0 1.699 5.527 Z M 31.543 7.002 L 31.113 7.861 A 1.205 1.205 0 0 0 31.533 7.086 A 1.597 1.597 0 0 0 31.543 7.002 Z M 8.652 8.926 L 9.219 8.652 A 0.685 0.685 0 0 0 9.121 8.41 A 0.631 0.631 0 0 0 8.926 8.223 A 0.994 0.994 0 0 0 8.652 8.926 Z M 54.336 5.176 L 53.916 6.035 A 1.578 1.578 0 0 0 54.336 5.176 Z M 60.361 4.053 L 59.932 4.902 A 1.389 1.389 0 0 0 60.361 4.053 Z M 144.424 4.053 L 143.994 4.902 A 1.389 1.389 0 0 0 144.424 4.053 Z M 156.133 4.053 L 155.703 4.902 A 1.389 1.389 0 0 0 156.133 4.053 Z M 81.611 3.418 L 80.781 3.418 A 0.304 0.304 0 0 0 80.908 3.622 Q 80.955 3.657 81.02 3.684 A 0.754 0.754 0 0 0 81.064 3.701 L 81.611 3.418 Z M 29.541 7.139 A 2.378 2.378 0 0 0 29.901 7.48 A 3.154 3.154 0 0 0 30.254 7.715 A 1.534 1.534 0 0 0 29.837 7.304 A 2.047 2.047 0 0 0 29.541 7.139 Z M 125.361 3.057 L 124.941 2.92 L 124.941 3.613 L 125.361 3.057 Z M 136.904 3.057 L 136.484 2.92 L 136.484 3.613 L 136.904 3.057 Z M 15.283 8.076 L 15.146 7.93 L 14.863 8.496 L 15.283 8.633 L 15.283 8.076 Z M 78.682 3.984 L 77.979 3.418 A 1.289 1.289 0 0 0 78.395 3.837 A 1.773 1.773 0 0 0 78.682 3.984 Z M 32.549 5.283 L 32.402 5.137 L 32.549 5.996 L 32.549 5.283 Z M 108.008 4.443 L 107.461 4.443 Q 107.52 4.746 107.734 4.98 L 108.008 4.443 Z M 33.262 3.848 A 1.142 1.142 0 0 0 33.536 4.416 A 1.536 1.536 0 0 0 33.691 4.57 A 2.111 2.111 0 0 0 33.547 4.264 Q 33.432 4.062 33.262 3.848 Z M 59.082 10.293 A 0.875 0.875 0 0 0 59.363 10.684 Q 59.484 10.782 59.648 10.859 A 0.776 0.776 0 0 0 59.34 10.432 A 1.237 1.237 0 0 0 59.083 10.293 Z M 143.145 10.293 A 0.875 0.875 0 0 0 143.425 10.684 Q 143.546 10.782 143.711 10.859 A 0.776 0.776 0 0 0 143.402 10.432 A 1.237 1.237 0 0 0 143.145 10.293 Z M 154.854 10.293 A 0.875 0.875 0 0 0 155.134 10.684 Q 155.255 10.782 155.42 10.859 A 0.776 0.776 0 0 0 155.111 10.432 A 1.237 1.237 0 0 0 154.854 10.293 Z M 3.408 3.398 L 2.979 3.262 L 2.979 3.828 L 3.408 3.398 Z M 99.268 2.91 L 98.857 2.91 A 0.916 0.916 0 0 0 99.124 3.45 A 1.129 1.129 0 0 0 99.131 3.457 L 99.268 2.91 Z M 44.307 9.844 L 43.75 9.844 L 43.887 10.264 L 44.307 9.844 Z M 30.254 9.004 L 29.971 9.717 A 1.217 1.217 0 0 0 30.183 9.366 A 1.077 1.077 0 0 0 30.254 9.004 Z M 94.063 8.389 L 93.926 8.389 L 93.789 8.936 L 94.063 8.936 L 94.063 8.389 Z M 122.295 7.656 L 122.158 7.1 L 121.885 7.51 L 122.295 7.656 Z M 133.838 7.656 L 133.701 7.1 L 133.428 7.51 L 133.838 7.656 Z M 45.156 3.203 L 45.01 3.203 L 44.736 3.623 L 45.156 3.623 L 45.156 3.203 Z M 75.742 11.963 L 75.469 12.373 L 76.025 12.236 A 0.317 0.317 0 0 0 75.903 12.047 Q 75.856 12.011 75.791 11.982 A 0.758 0.758 0 0 0 75.742 11.963 Z M 30.254 10.869 Q 30.322 11.221 30.684 11.436 A 0.693 0.693 0 0 0 30.414 10.974 A 1.069 1.069 0 0 0 30.254 10.869 Z M 64.756 11.855 L 64.336 12.422 Q 64.661 12.281 64.741 11.936 A 0.949 0.949 0 0 0 64.756 11.855 Z M 148.818 11.855 L 148.398 12.422 Q 148.723 12.281 148.803 11.936 A 0.949 0.949 0 0 0 148.818 11.855 Z M 160.527 11.855 L 160.107 12.422 Q 160.432 12.281 160.512 11.936 A 0.949 0.949 0 0 0 160.527 11.855 Z M 107.051 10.146 L 106.777 10.01 L 106.65 10.557 L 107.051 10.146 Z M 9.355 9.639 L 8.926 9.639 Q 8.936 9.932 9.219 10.068 L 9.355 9.639 Z M 77.422 8.32 L 76.865 7.9 A 0.945 0.945 0 0 0 77.332 8.288 A 1.23 1.23 0 0 0 77.422 8.32 Z M 2.266 3.398 L 1.846 3.262 L 1.846 3.691 L 2.266 3.398 Z M 106.377 5.117 L 105.967 5.117 Q 106.025 5.381 106.24 5.527 L 106.377 5.117 Z M 83.018 6.777 L 82.871 6.777 L 82.734 7.207 L 83.018 7.207 L 83.018 6.777 Z M 59.502 8.877 A 0.719 0.719 0 0 0 59.617 9.24 Q 59.679 9.338 59.772 9.431 A 1.346 1.346 0 0 0 59.785 9.443 A 0.666 0.666 0 0 0 59.676 9.082 Q 59.618 8.99 59.528 8.902 A 1.308 1.308 0 0 0 59.502 8.877 Z M 143.564 8.877 A 0.719 0.719 0 0 0 143.68 9.24 Q 143.741 9.338 143.835 9.431 A 1.346 1.346 0 0 0 143.848 9.443 A 0.666 0.666 0 0 0 143.738 9.082 Q 143.68 8.99 143.591 8.902 A 1.308 1.308 0 0 0 143.564 8.877 Z M 155.273 8.877 A 0.719 0.719 0 0 0 155.389 9.24 Q 155.45 9.338 155.544 9.431 A 1.346 1.346 0 0 0 155.557 9.443 A 0.666 0.666 0 0 0 155.447 9.082 Q 155.389 8.99 155.3 8.902 A 1.308 1.308 0 0 0 155.273 8.877 Z M 179.287 8.506 L 178.789 8.135 A 0.647 0.647 0 0 0 178.979 8.378 Q 179.09 8.463 179.243 8.497 A 0.857 0.857 0 0 0 179.287 8.506 Z M 93.652 6.748 L 93.516 6.748 L 93.379 7.158 L 93.652 7.158 L 93.652 6.748 Z M 123.838 7.373 L 124.111 7.93 A 1.15 1.15 0 0 0 123.838 7.373 Z M 135.381 7.373 L 135.654 7.93 A 1.15 1.15 0 0 0 135.381 7.373 Z M 96.943 2.09 L 96.523 2.51 A 0.632 0.632 0 0 0 96.699 2.464 Q 96.89 2.38 96.933 2.164 A 0.637 0.637 0 0 0 96.943 2.09 Z M 125.635 7.51 Q 125.752 7.813 126.064 7.93 A 0.662 0.662 0 0 0 125.693 7.533 A 0.898 0.898 0 0 0 125.635 7.51 Z M 137.178 7.51 Q 137.295 7.813 137.607 7.93 A 0.662 0.662 0 0 0 137.236 7.533 A 0.898 0.898 0 0 0 137.178 7.51 Z M 108.418 3.496 L 107.871 3.223 Q 108.096 3.447 108.418 3.496 Z M 94.199 7.842 L 93.652 7.568 A 0.997 0.997 0 0 0 94.199 7.842 Z M 59.502 12.285 L 59.932 12.705 A 0.626 0.626 0 0 0 59.581 12.317 A 0.903 0.903 0 0 0 59.502 12.285 Z M 143.564 12.285 L 143.994 12.705 A 0.626 0.626 0 0 0 143.644 12.317 A 0.903 0.903 0 0 0 143.564 12.285 Z M 155.273 12.285 L 155.703 12.705 A 0.626 0.626 0 0 0 155.353 12.317 A 0.903 0.903 0 0 0 155.273 12.285 Z M 82.041 6.221 A 0.939 0.939 0 0 0 82.236 6.474 Q 82.327 6.558 82.445 6.631 A 1.6 1.6 0 0 0 82.461 6.641 A 0.694 0.694 0 0 0 82.089 6.242 A 0.943 0.943 0 0 0 82.041 6.221 Z M 179.414 6.875 L 179.16 6.748 L 179.287 7.246 L 179.414 6.875 Z M 1.846 3.965 L 1.563 3.965 L 1.699 4.395 L 1.846 3.965 Z M 106.504 8.379 L 106.377 8.379 L 106.24 8.789 L 106.504 8.652 L 106.504 8.379 Z M 60.498 7.168 L 60.215 7.021 L 60.361 7.451 L 60.498 7.168 Z M 144.561 7.168 L 144.277 7.021 L 144.424 7.451 L 144.561 7.168 Z M 156.27 7.168 L 155.986 7.021 L 156.133 7.451 L 156.27 7.168 Z M 59.648 6.602 L 59.365 6.465 L 59.502 6.885 L 59.648 6.602 Z M 143.711 6.602 L 143.428 6.465 L 143.564 6.885 L 143.711 6.602 Z M 155.42 6.602 L 155.137 6.465 L 155.273 6.885 L 155.42 6.602 Z M 60.078 6.172 L 59.648 6.035 A 0.367 0.367 0 0 0 59.777 6.229 Q 59.828 6.27 59.897 6.303 A 0.795 0.795 0 0 0 59.932 6.318 L 60.078 6.172 Z M 144.141 6.172 L 143.711 6.035 A 0.367 0.367 0 0 0 143.839 6.229 Q 143.89 6.27 143.959 6.303 A 0.795 0.795 0 0 0 143.994 6.318 L 144.141 6.172 Z M 155.85 6.172 L 155.42 6.035 A 0.367 0.367 0 0 0 155.548 6.229 Q 155.599 6.27 155.668 6.303 A 0.795 0.795 0 0 0 155.703 6.318 L 155.85 6.172 Z M 27.539 3.281 L 27.969 3.574 A 0.529 0.529 0 0 0 27.764 3.369 Q 27.687 3.324 27.587 3.294 A 1.089 1.089 0 0 0 27.539 3.281 Z M 33.691 3.418 L 33.555 3.711 L 33.838 3.711 L 33.838 3.418 L 33.691 3.418 Z M 78.408 9.717 A 0.543 0.543 0 0 0 78.631 10.101 A 0.761 0.761 0 0 0 78.682 10.137 Q 78.633 9.863 78.408 9.717 Z M 96.943 3.877 L 96.67 3.457 Q 96.68 3.74 96.943 3.877 Z M 120.635 3.193 A 0.541 0.541 0 0 0 120.841 3.395 Q 120.918 3.439 121.016 3.469 A 1.059 1.059 0 0 0 121.045 3.477 A 0.49 0.49 0 0 0 120.863 3.286 Q 120.791 3.242 120.699 3.212 A 1.048 1.048 0 0 0 120.635 3.193 Z M 132.178 3.193 A 0.541 0.541 0 0 0 132.384 3.395 Q 132.461 3.439 132.559 3.469 A 1.059 1.059 0 0 0 132.588 3.477 A 0.49 0.49 0 0 0 132.406 3.286 Q 132.334 3.242 132.242 3.212 A 1.048 1.048 0 0 0 132.178 3.193 Z M 21.758 8.35 L 21.621 8.35 L 21.758 8.779 L 21.758 8.35 Z M 121.182 9.463 L 121.602 9.736 A 0.465 0.465 0 0 0 121.446 9.572 Q 121.38 9.529 121.293 9.497 A 1.092 1.092 0 0 0 121.182 9.463 Z M 132.725 9.463 L 133.145 9.736 A 0.465 0.465 0 0 0 132.989 9.572 Q 132.923 9.529 132.836 9.497 A 1.092 1.092 0 0 0 132.725 9.463 Z M 126.475 7.656 L 126.895 7.93 A 0.517 0.517 0 0 0 126.721 7.757 Q 126.651 7.713 126.561 7.682 A 1.099 1.099 0 0 0 126.475 7.656 Z M 138.018 7.656 L 138.438 7.93 A 0.517 0.517 0 0 0 138.264 7.757 Q 138.194 7.713 138.104 7.682 A 1.099 1.099 0 0 0 138.018 7.656 Z M 120.762 11.689 L 120.635 11.973 L 120.908 11.973 L 120.908 11.689 L 120.762 11.689 Z M 132.305 11.689 L 132.178 11.973 L 132.451 11.973 L 132.451 11.689 L 132.305 11.689 Z M 122.021 2.637 L 122.432 2.92 A 0.49 0.49 0 0 0 122.249 2.73 Q 122.178 2.686 122.086 2.655 A 1.048 1.048 0 0 0 122.021 2.637 Z M 133.564 2.637 L 133.975 2.92 A 0.49 0.49 0 0 0 133.792 2.73 Q 133.721 2.686 133.628 2.655 A 1.048 1.048 0 0 0 133.564 2.637 Z M 16.133 11.025 L 15.986 11.025 L 16.133 11.445 L 16.133 11.025 Z M 54.336 4.053 L 54.189 4.053 L 54.336 4.473 L 54.336 4.053 Z M 115.332 6.621 L 114.932 6.475 A 0.326 0.326 0 0 0 115.062 6.672 Q 115.11 6.708 115.174 6.736 A 0.738 0.738 0 0 0 115.205 6.748 L 115.332 6.621 Z M 21.621 4.131 L 21.484 4.131 L 21.621 4.551 L 21.621 4.131 Z M 179.287 5.869 L 179.033 5.498 A 0.602 0.602 0 0 0 179.097 5.679 A 0.493 0.493 0 0 0 179.287 5.869 Z M 97.344 11.953 L 97.07 11.816 L 97.07 12.09 L 97.344 11.953 Z M 60.842 10.963 A 0.857 0.857 0 0 0 60.928 11.006 Q 60.902 10.835 60.697 10.746 A 0.773 0.773 0 0 0 60.635 10.723 Q 60.674 10.865 60.842 10.963 Z M 144.905 10.963 A 0.857 0.857 0 0 0 144.99 11.006 Q 144.965 10.835 144.759 10.746 A 0.773 0.773 0 0 0 144.697 10.723 Q 144.737 10.865 144.905 10.963 Z M 156.614 10.963 A 0.857 0.857 0 0 0 156.699 11.006 Q 156.674 10.835 156.468 10.746 A 0.773 0.773 0 0 0 156.406 10.723 Q 156.446 10.865 156.614 10.963 Z M 2.467 9.462 A 0.797 0.797 0 0 0 2.559 9.502 A 0.322 0.322 0 0 0 2.5 9.4 Q 2.435 9.321 2.311 9.245 A 1.381 1.381 0 0 0 2.266 9.219 Q 2.289 9.369 2.467 9.462 Z M 22.041 3.701 A 0.356 0.356 0 0 0 22.163 3.886 Q 22.231 3.943 22.334 3.984 Q 22.285 3.848 22.041 3.701 Z M 17.393 12.295 A 0.367 0.367 0 0 0 17.521 12.488 Q 17.572 12.53 17.641 12.563 A 0.795 0.795 0 0 0 17.676 12.578 Q 17.651 12.422 17.467 12.328 A 0.779 0.779 0 0 0 17.393 12.295 Z M 15.566 10.459 A 0.334 0.334 0 0 0 15.709 10.671 Q 15.768 10.713 15.85 10.742 Q 15.801 10.605 15.566 10.459 Z M 15.146 9.336 A 0.335 0.335 0 0 0 15.206 9.44 Q 15.271 9.521 15.395 9.598 A 1.354 1.354 0 0 0 15.43 9.619 A 0.329 0.329 0 0 0 15.316 9.434 Q 15.269 9.394 15.204 9.362 A 0.783 0.783 0 0 0 15.146 9.336 Z M 82.871 8.184 A 0.348 0.348 0 0 0 82.98 8.352 Q 83.027 8.394 83.092 8.428 A 0.799 0.799 0 0 0 83.154 8.457 A 0.287 0.287 0 0 0 83.044 8.274 Q 82.977 8.22 82.871 8.184 Z M 83.438 11.816 A 0.317 0.317 0 0 0 83.56 12.005 Q 83.607 12.042 83.672 12.07 A 0.758 0.758 0 0 0 83.721 12.09 A 0.311 0.311 0 0 0 83.622 11.926 Q 83.578 11.886 83.517 11.853 A 0.79 0.79 0 0 0 83.438 11.816 Z M 108.494 4.423 A 0.735 0.735 0 0 0 108.545 4.443 Q 108.519 4.278 108.322 4.19 A 0.735 0.735 0 0 0 108.271 4.17 Q 108.298 4.335 108.494 4.423 Z M 121.045 10.859 A 0.311 0.311 0 0 0 121.144 11.024 Q 121.187 11.063 121.248 11.096 A 0.79 0.79 0 0 0 121.328 11.133 A 0.315 0.315 0 0 0 121.274 11.041 Q 121.214 10.967 121.098 10.892 A 1.414 1.414 0 0 0 121.045 10.859 Z M 132.588 10.859 A 0.311 0.311 0 0 0 132.687 11.024 Q 132.73 11.063 132.791 11.096 A 0.79 0.79 0 0 0 132.871 11.133 A 0.315 0.315 0 0 0 132.817 11.041 Q 132.757 10.967 132.641 10.892 A 1.414 1.414 0 0 0 132.588 10.859 Z M 45.303 2.783 L 45.586 3.066 A 0.335 0.335 0 0 0 45.527 2.962 Q 45.462 2.882 45.337 2.804 A 1.354 1.354 0 0 0 45.303 2.783 Z M 83.721 10.84 A 0.329 0.329 0 0 0 83.775 10.934 Q 83.836 11.01 83.952 11.086 A 1.39 1.39 0 0 0 83.994 11.113 Q 83.968 10.948 83.771 10.86 A 0.735 0.735 0 0 0 83.721 10.84 Z M 114.071 9.853 A 0.735 0.735 0 0 0 114.121 9.873 A 0.329 0.329 0 0 0 114.067 9.779 Q 114.006 9.703 113.89 9.626 A 1.39 1.39 0 0 0 113.848 9.6 Q 113.874 9.765 114.071 9.853 Z M 114.395 6.885 A 0.331 0.331 0 0 0 114.504 7.064 Q 114.565 7.118 114.658 7.158 Q 114.629 6.973 114.395 6.885 Z M 27.393 2.852 L 27.539 3.145 L 27.539 2.852 L 27.393 2.852 Z M 2.412 2.832 L 2.559 3.115 L 2.559 2.832 L 2.412 2.832 Z M 59.932 9.443 L 60.078 9.727 L 60.078 9.443 L 59.932 9.443 Z M 143.994 9.443 L 144.141 9.727 L 144.141 9.443 L 143.994 9.443 Z M 155.703 9.443 L 155.85 9.727 L 155.85 9.443 L 155.703 9.443 Z M 29.688 5.859 L 29.824 6.143 L 29.824 5.859 L 29.688 5.859 Z M 44.453 2.783 L 44.59 3.066 L 44.59 2.783 L 44.453 2.783 Z M 44.736 4.619 L 44.873 4.902 L 44.873 4.619 L 44.736 4.619 Z M 178.906 5.127 Q 178.955 5.244 179.16 5.371 Q 179.135 5.226 178.961 5.148 A 0.678 0.678 0 0 0 178.906 5.127 Z M 179.033 10.635 A 0.257 0.257 0 0 0 179.113 10.776 Q 179.15 10.81 179.202 10.839 A 0.704 0.704 0 0 0 179.287 10.879 A 0.314 0.314 0 0 0 179.232 10.789 Q 179.171 10.718 179.059 10.65 A 1.23 1.23 0 0 0 179.033 10.635 Z M 107.461 9.199 L 107.598 9.473 L 107.598 9.199 L 107.461 9.199 Z" vector-effect="non-scaling-stroke"/></g></svg>
