<svg width="142pt" height="14pt" viewBox="0 0 142 14" xmlns="http://www.w3.org/2000/svg"><g id="fontsvg1672074337464" stroke-linecap="round" fill-rule="evenodd" fill="#ff9900"><path d="M 38.355 1.485 L 39.375 0.853 A 9.261 9.261 0 0 0 40.088 1 Q 40.469 1.063 40.896 1.107 L 42.293 1.23 A 2.928 2.928 0 0 1 42.901 1.763 A 3.702 3.702 0 0 1 43.181 2.127 L 43.567 4.913 L 43.945 6.311 L 44.068 7.963 A 6.072 6.072 0 0 1 43.894 9.194 A 6.99 6.99 0 0 1 43.813 9.492 A 0.826 0.826 0 0 0 44.166 9.852 A 1.027 1.027 0 0 0 44.2 9.87 L 44.587 9.369 L 44.71 8.859 L 44.455 8.736 L 44.587 8.473 L 44.833 7.33 L 44.71 6.565 L 44.965 6.064 L 45.22 4.535 A 4.87 4.87 0 0 1 45.351 3.668 A 5.839 5.839 0 0 1 45.466 3.261 L 45.721 1.872 Q 46.213 1.441 46.872 1.23 L 48.524 1.107 L 50.045 1.354 A 6.082 6.082 0 0 1 50.423 2.76 L 50.423 6.187 L 50.3 7.33 L 50.423 7.717 L 50.423 8.859 L 50.555 9.114 L 50.423 9.237 L 50.555 10.512 L 50.423 12.164 A 7.968 7.968 0 0 1 49.891 12.485 A 10.736 10.736 0 0 1 49.28 12.797 A 4.983 4.983 0 0 1 48.34 12.666 A 6.043 6.043 0 0 1 47.892 12.542 A 2.75 2.75 0 0 1 47.282 11.606 A 3.19 3.19 0 0 1 47.25 11.522 L 47.751 4.025 Q 47.435 4.456 47.25 5.045 L 46.617 9.237 A 6.802 6.802 0 0 1 46.369 9.939 A 8.759 8.759 0 0 1 46.107 10.512 L 46.239 11.654 L 46.107 12.041 A 6.716 6.716 0 0 1 45.637 12.355 Q 45.382 12.511 45.088 12.665 L 44.71 12.665 L 44.71 12.797 L 43.567 12.665 A 4.903 4.903 0 0 1 43.002 12.149 A 6.047 6.047 0 0 1 42.68 11.777 L 42.548 10.125 L 41.915 7.33 A 4.516 4.516 0 0 1 41.683 6.315 A 5.174 5.174 0 0 1 41.66 6.064 L 41.405 4.535 L 41.405 3.902 L 41.027 4.535 L 41.282 5.933 L 41.15 7.084 L 41.282 7.462 L 41.15 9.114 L 41.783 11.654 A 3.083 3.083 0 0 1 41.284 12.232 A 3.933 3.933 0 0 1 40.896 12.542 L 39.753 12.665 L 39.375 12.542 A 2.987 2.987 0 0 1 38.725 12.252 A 4.049 4.049 0 0 1 38.224 11.9 L 38.224 10.125 L 38.479 8.604 L 38.101 7.207 L 38.479 5.933 L 38.101 4.535 L 38.224 2.883 L 38.101 2.505 L 38.355 1.485 Z M 53.306 0.835 L 55.345 1.081 L 57.261 0.958 L 58.922 1.081 L 59.309 0.958 Q 60.064 1.099 60.706 1.6 L 60.838 3.006 L 60.706 3.384 L 60.328 4.025 L 59.432 4.148 L 59.177 4.025 L 55.345 3.894 L 55.731 5.177 L 59.563 4.913 L 59.941 5.054 L 60.583 5.555 L 60.451 6.583 Q 60.24 7.286 59.81 7.989 L 57.902 8.112 L 56.109 7.603 A 2.414 2.414 0 0 0 55.506 8.881 A 3.089 3.089 0 0 0 55.477 9.132 Q 56.188 9.448 57.006 9.519 L 60.583 9.264 L 60.97 9.519 L 61.216 10.925 A 4.497 4.497 0 0 1 60.966 11.975 A 5.691 5.691 0 0 1 60.706 12.577 L 59.309 12.709 L 58.922 12.577 L 57.006 12.331 Q 56.153 12.56 55.213 12.577 L 53.429 12.841 A 3.492 3.492 0 0 1 52.418 12.123 A 4.268 4.268 0 0 1 52.146 11.821 L 52.022 10.415 L 52.146 10.028 L 52.277 9.009 L 52.146 8.754 L 52.146 7.989 L 52.277 5.818 L 52.146 4.025 L 52.277 1.854 A 3.486 3.486 0 0 1 52.784 1.259 A 4.701 4.701 0 0 1 53.306 0.835 Z M 11.725 1.556 L 12.99 0.8 A 10.777 10.777 0 0 1 13.838 0.947 A 14.737 14.737 0 0 1 14.765 1.178 L 15.398 1.679 L 15.152 6.249 L 15.275 8.279 A 3.583 3.583 0 0 0 15.481 8.939 A 4.947 4.947 0 0 0 15.785 9.545 L 17.051 9.8 L 17.438 9.668 Q 17.868 9.114 18.07 8.279 L 17.938 6.372 L 18.07 4.983 L 17.938 4.474 L 18.07 2.83 L 17.815 1.934 L 17.938 1.679 L 18.193 1.301 L 19.714 0.8 A 7.712 7.712 0 0 1 20.668 0.955 A 10.143 10.143 0 0 1 21.489 1.178 L 21.621 1.679 L 21.489 3.085 L 21.111 3.463 Q 21.29 3.88 21.362 4.438 A 5.14 5.14 0 0 1 21.366 4.474 L 21.234 6.372 L 21.489 7.646 L 21.366 8.147 A 9.082 9.082 0 0 1 21.264 9.245 A 11.468 11.468 0 0 1 21.111 10.046 Q 20.804 10.652 20.355 11.197 L 19.204 12.208 L 17.561 12.709 L 16.928 12.577 L 16.418 12.841 L 16.031 12.709 L 14.265 12.463 L 13.113 11.452 A 7.692 7.692 0 0 1 12.44 10.734 A 9.304 9.304 0 0 1 12.103 10.301 L 11.725 7.137 L 11.725 4.983 L 11.848 3.586 A 12.618 12.618 0 0 1 11.757 2.662 Q 11.725 2.14 11.725 1.556 Z M 106.348 1.389 L 107.824 0.896 Q 108.563 0.949 109.433 1.143 L 111.032 1.521 A 6.928 6.928 0 0 1 111.582 2.027 A 9.051 9.051 0 0 1 112.017 2.505 L 113.001 3.604 A 3.067 3.067 0 0 1 112.683 4.403 A 3.943 3.943 0 0 1 112.395 4.843 A 4.993 4.993 0 0 1 111.419 5.464 A 5.77 5.77 0 0 1 111.164 5.581 Q 110.531 5.335 109.925 4.843 L 108.817 3.981 L 107.464 4.597 Q 106.972 5.08 106.594 5.704 L 106.479 6.688 L 106.594 7.058 L 106.594 7.436 L 107.086 8.912 L 108.325 9.65 A 4.343 4.343 0 0 0 109.665 9.229 A 4.972 4.972 0 0 0 109.802 9.158 L 110.786 8.174 A 4.595 4.595 0 0 1 111.717 8.374 A 5.505 5.505 0 0 1 112.148 8.534 A 4.964 4.964 0 0 1 112.7 9.086 A 6.62 6.62 0 0 1 113.133 9.65 A 7.29 7.29 0 0 1 112.784 10.291 A 9.675 9.675 0 0 1 112.395 10.881 L 111.278 11.865 L 110.048 12.604 L 108.694 12.727 L 108.325 12.604 L 107.824 12.727 L 106.594 12.48 L 105.24 11.865 L 103.518 9.519 L 103.271 7.796 L 103.395 6.073 L 103.271 5.089 L 103.395 4.843 L 103.518 4.474 L 104.133 3.111 L 105.117 2.127 L 106.348 1.389 Z M 22.333 0.896 L 23.88 1.151 L 24.917 1.02 L 25.304 1.151 L 26.2 2.057 L 26.842 3.076 L 27.36 4.368 A 0.885 0.885 0 0 0 27.945 4.053 A 1.209 1.209 0 0 0 28.002 3.981 A 2.927 2.927 0 0 1 28.408 3.246 A 3.612 3.612 0 0 1 28.652 2.953 A 3.761 3.761 0 0 1 29.14 1.828 A 4.229 4.229 0 0 1 29.162 1.793 L 30.322 1.151 L 32.124 1.151 L 33.161 1.916 A 3.708 3.708 0 0 1 32.59 2.86 A 4.221 4.221 0 0 1 32.511 2.953 L 29.681 6.943 A 1.862 1.862 0 0 0 29.318 7.785 A 2.312 2.312 0 0 0 29.294 7.972 L 29.162 9.132 L 29.294 9.519 L 29.294 11.197 A 3.257 3.257 0 0 1 29.039 12.357 A 5.669 5.669 0 0 1 27.852 12.698 A 6.467 6.467 0 0 1 27.615 12.735 L 26.587 12.867 L 26.2 12.604 A 2.948 2.948 0 0 1 25.829 11.663 A 3.364 3.364 0 0 1 25.813 11.584 L 25.69 8.235 L 25.813 7.462 L 25.559 6.943 L 24.653 6.038 L 21.823 2.057 Q 21.99 1.45 22.333 0.896 Z M 86.265 1.107 L 86.783 0.976 L 87.688 1.23 L 88.075 1.107 L 90.94 0.976 L 91.327 1.107 L 91.723 1.89 L 91.846 2.408 L 91.582 3.832 L 90.94 4.096 L 88.734 3.7 L 88.857 5.651 L 88.734 6.038 L 88.857 8.895 L 88.734 10.327 L 88.857 10.846 L 88.857 11.751 A 3.286 3.286 0 0 1 87.324 12.916 A 4.278 4.278 0 0 1 86.906 13.052 Q 86.045 12.902 85.219 12.533 L 85.087 12.015 L 85.219 11.751 L 85.351 9.545 L 85.219 7.726 L 85.482 7.339 L 85.351 6.952 L 85.087 5.783 L 85.605 4.482 A 0.396 0.396 0 0 0 85.515 4.331 Q 85.443 4.258 85.331 4.232 A 0.58 0.58 0 0 0 85.219 4.219 L 83.399 4.614 A 3.312 3.312 0 0 1 82.552 2.932 A 4.268 4.268 0 0 1 82.494 2.531 A 2.705 2.705 0 0 1 83.471 1.138 A 3.729 3.729 0 0 1 83.918 0.844 A 14 14 0 0 0 84.865 0.989 Q 85.351 1.048 85.895 1.085 A 24.312 24.312 0 0 0 86.265 1.107 Z M 70.181 1.195 L 71.314 0.817 A 6.797 6.797 0 0 1 72.826 1.072 L 73.837 1.696 A 6.049 6.049 0 0 1 74.098 2.221 Q 74.22 2.496 74.331 2.81 A 9.738 9.738 0 0 1 74.338 2.83 L 74.962 5.098 L 75.472 6.1 L 75.841 7.365 L 76.474 8.367 Q 76.57 8.991 76.86 9.624 L 77.353 10.767 L 77.607 11.646 L 77.396 12.085 L 76.395 12.709 L 75.261 12.709 L 75.261 12.832 L 74.883 12.709 A 2.168 2.168 0 0 1 74.304 12.368 A 2.818 2.818 0 0 1 74.004 12.085 A 4.302 4.302 0 0 1 73.769 11.304 A 3.56 3.56 0 0 1 73.705 10.767 L 73.45 10.635 L 72.958 10.881 L 72.703 10.767 L 71.06 10.767 A 1.655 1.655 0 0 0 70.233 11.431 A 2.097 2.097 0 0 0 70.181 11.514 L 69.548 12.524 L 68.291 12.902 L 66.911 12.647 Q 66.507 12.305 66.155 11.769 L 67.157 9.51 L 67.289 8.121 L 67.922 6.979 L 69.056 3.331 L 69.548 2.329 A 4.772 4.772 0 0 1 70.082 1.332 A 5.399 5.399 0 0 1 70.181 1.195 Z M 95.643 1.195 L 96.776 0.817 A 6.797 6.797 0 0 1 98.288 1.072 L 99.299 1.696 A 6.049 6.049 0 0 1 99.56 2.221 Q 99.682 2.496 99.793 2.81 A 9.738 9.738 0 0 1 99.8 2.83 L 100.424 5.098 L 100.934 6.1 L 101.303 7.365 L 101.936 8.367 Q 102.032 8.991 102.322 9.624 L 102.814 10.767 L 103.069 11.646 L 102.858 12.085 L 101.856 12.709 L 100.723 12.709 L 100.723 12.832 L 100.345 12.709 A 2.168 2.168 0 0 1 99.765 12.368 A 2.818 2.818 0 0 1 99.466 12.085 A 4.302 4.302 0 0 1 99.231 11.304 A 3.56 3.56 0 0 1 99.167 10.767 L 98.912 10.635 L 98.42 10.881 L 98.165 10.767 L 96.521 10.767 A 1.655 1.655 0 0 0 95.695 11.431 A 2.097 2.097 0 0 0 95.643 11.514 L 95.01 12.524 L 93.753 12.902 L 92.373 12.647 Q 91.969 12.305 91.617 11.769 L 92.619 9.51 L 92.751 8.121 L 93.384 6.979 L 94.518 3.331 L 95.01 2.329 A 4.772 4.772 0 0 1 95.544 1.332 A 5.399 5.399 0 0 1 95.643 1.195 Z M 0 1.529 L 0.642 1.02 L 6.636 1.143 A 5.02 5.02 0 0 1 8.138 1.642 A 6.317 6.317 0 0 1 8.807 2.039 A 3.567 3.567 0 0 1 9.497 3.593 A 4.636 4.636 0 0 1 9.571 4.21 L 9.694 5.361 L 8.675 6.126 L 9.571 7.269 A 9.295 9.295 0 0 1 10.02 8.574 A 11.41 11.41 0 0 1 10.213 9.439 A 6.65 6.65 0 0 1 9.606 10.946 A 8.137 8.137 0 0 1 9.193 11.619 A 7.563 7.563 0 0 1 8.272 12.136 Q 7.789 12.367 7.225 12.566 A 12.946 12.946 0 0 1 7.014 12.639 L 6.126 12.762 L 5.871 12.639 L 2.426 12.762 L 2.039 12.639 L 1.661 12.639 L 1.661 12.762 A 2.673 2.673 0 0 1 0.054 11.347 A 3.502 3.502 0 0 1 0 11.232 L 0.255 8.552 L 0.123 7.269 L 0.255 5.871 L 0 1.529 Z M 116.807 2.039 L 118.644 0.94 L 120.604 0.94 L 121.456 1.187 A 6.569 6.569 0 0 1 122.597 1.565 A 8.762 8.762 0 0 1 123.53 2.039 A 4.646 4.646 0 0 1 124.297 2.714 Q 124.618 3.062 124.914 3.502 A 7.965 7.965 0 0 1 124.998 3.63 L 125.736 5.713 A 6.078 6.078 0 0 0 125.499 6.939 A 6.767 6.767 0 0 0 125.49 7.049 L 125.613 7.541 A 11.074 11.074 0 0 1 125.208 9.364 A 12.904 12.904 0 0 1 124.998 9.984 L 123.53 11.575 Q 122.81 12.085 121.693 12.674 L 119.013 12.797 A 7.426 7.426 0 0 1 117.86 12.343 A 9.841 9.841 0 0 1 116.93 11.821 A 15.436 15.436 0 0 1 116.162 11.211 Q 115.775 10.884 115.365 10.501 A 25.014 25.014 0 0 1 115.339 10.477 L 114.609 8.156 L 114.732 5.827 A 6.102 6.102 0 0 1 114.909 4.867 Q 115.064 4.279 115.339 3.63 L 116.807 2.039 Z M 141.311 6.521 L 141.425 6.979 L 141.311 8.104 L 141.311 8.446 A 5.649 5.649 0 0 1 140.805 10.122 A 6.394 6.394 0 0 1 140.748 10.239 Q 140.518 11.014 140 11.871 A 9.926 9.926 0 0 1 139.966 11.927 L 139.061 13.491 L 138.27 13.948 A 2.916 2.916 0 0 1 137.649 13.672 A 3.561 3.561 0 0 1 137.373 13.491 A 12.675 12.675 0 0 1 137.593 11.707 A 5.255 5.255 0 0 0 137.995 10.633 A 6.839 6.839 0 0 0 138.155 9.791 A 8.7 8.7 0 0 0 138.393 8.682 A 11.511 11.511 0 0 0 138.498 7.655 L 138.604 7.093 L 138.498 6.864 L 138.384 3.937 L 138.27 3.709 L 138.155 3.375 A 11.47 11.47 0 0 0 137.893 2.521 Q 137.717 2.015 137.479 1.459 L 137.145 0.677 A 4.21 4.21 0 0 1 137.404 0.387 Q 137.543 0.245 137.708 0.098 A 7.284 7.284 0 0 1 137.821 0 Q 138.727 0.202 139.403 0.896 Q 139.887 1.6 140.3 2.584 A 4.815 4.815 0 0 1 140.647 3.458 Q 140.77 3.878 140.843 4.361 A 8.232 8.232 0 0 1 140.862 4.5 Q 141.284 5.388 141.311 6.521 Z M 119.742 3.999 L 118.151 5.221 L 117.905 6.803 A 3.688 3.688 0 0 0 118.128 7.814 A 5.142 5.142 0 0 0 118.521 8.64 A 3.262 3.262 0 0 0 120.055 9.443 A 4.079 4.079 0 0 0 120.357 9.501 A 3.079 3.079 0 0 0 121.629 8.631 A 3.816 3.816 0 0 0 121.825 8.394 A 6.747 6.747 0 0 0 121.999 7.71 Q 122.078 7.328 122.13 6.884 A 13.94 13.94 0 0 0 122.186 6.319 A 3.022 3.022 0 0 0 121.938 5.377 A 4.13 4.13 0 0 0 121.579 4.729 A 8.177 8.177 0 0 0 120.142 4.117 A 9.406 9.406 0 0 0 119.742 3.999 Z M 133.242 10.063 L 134.288 9.439 A 2.781 2.781 0 0 1 135.079 9.86 A 3.388 3.388 0 0 1 135.325 10.063 L 135.536 11.522 A 9.025 9.025 0 0 1 135.332 12.207 A 11.401 11.401 0 0 1 135.123 12.771 L 133.761 12.981 A 2.698 2.698 0 0 1 132.784 12.413 A 3.136 3.136 0 0 1 132.724 12.357 L 132.513 10.898 Q 132.776 10.424 133.242 10.063 Z M 133.137 3.814 L 134.183 3.19 A 2.88 2.88 0 0 1 135.325 3.814 L 135.431 4.122 L 135.325 4.852 L 135.325 5.168 A 5.999 5.999 0 0 1 135.274 5.717 Q 135.235 5.998 135.17 6.31 A 10.963 10.963 0 0 1 135.123 6.521 L 133.761 6.627 A 2.381 2.381 0 0 1 132.813 6.18 A 2.807 2.807 0 0 1 132.724 6.108 L 132.407 4.746 A 2.453 2.453 0 0 1 132.775 4.176 A 3.277 3.277 0 0 1 133.137 3.814 Z M 4.342 8.174 L 3.445 7.91 A 4.917 4.917 0 0 0 3.628 9.216 A 6.056 6.056 0 0 0 3.832 9.826 A 13.421 13.421 0 0 0 4.865 9.718 Q 5.394 9.642 5.982 9.524 A 24.435 24.435 0 0 0 6.381 9.439 L 6.636 8.297 L 5.748 7.91 L 4.342 8.174 Z M 4.087 3.955 L 3.7 3.7 L 3.445 4.975 L 3.568 5.484 L 3.955 5.484 A 14.092 14.092 0 0 1 5.059 5.313 A 17.798 17.798 0 0 1 5.994 5.229 L 6.513 4.342 L 5.748 3.955 L 5.106 4.087 L 4.729 3.955 L 4.087 3.955 Z M 71.314 7.11 L 71.191 7.998 L 72.325 8.121 A 0.69 0.69 0 0 0 72.679 7.793 A 0.905 0.905 0 0 0 72.703 7.743 L 72.448 6.609 A 8.008 8.008 0 0 0 72.087 5.8 A 10.579 10.579 0 0 0 71.692 5.098 A 6.663 6.663 0 0 1 71.568 6.13 A 8.969 8.969 0 0 1 71.314 7.11 Z M 96.776 7.11 L 96.653 7.998 L 97.787 8.121 A 0.69 0.69 0 0 0 98.141 7.793 A 0.905 0.905 0 0 0 98.165 7.743 L 97.91 6.609 A 8.008 8.008 0 0 0 97.549 5.8 A 10.579 10.579 0 0 0 97.154 5.098 A 6.663 6.663 0 0 1 97.03 6.13 A 8.969 8.969 0 0 1 96.776 7.11 Z M 124.26 7.418 L 123.776 7.418 L 123.17 7.91 Q 123.302 8.347 123.611 8.822 A 5.151 5.151 0 0 0 123.653 8.886 L 123.53 7.91 L 124.26 7.418 Z M 87.293 6.302 L 87.047 5.906 L 86.651 7.594 L 87.047 7.471 L 87.293 6.302 Z M 110.171 10.266 L 109.063 10.881 A 1.013 1.013 0 0 0 109.424 11.19 A 1.285 1.285 0 0 0 109.556 11.25 A 2.719 2.719 0 0 1 110.215 10.871 A 3.342 3.342 0 0 1 110.54 10.758 A 0.614 0.614 0 0 0 110.285 10.338 A 0.927 0.927 0 0 0 110.171 10.266 Z M 123.284 3.876 L 122.063 2.777 Q 122.3 3.647 123.284 3.876 Z M 3.445 7.146 L 2.549 6.249 L 2.681 7.4 L 3.445 7.146 Z M 20.224 6.882 L 19.714 6.117 L 19.459 7.392 A 0.268 0.268 0 0 0 19.621 7.299 Q 19.675 7.237 19.714 7.137 L 20.224 6.882 Z M 39.753 6.187 L 39.63 6.064 L 39.753 6.697 L 39.63 7.084 L 40.008 6.697 L 40.263 6.064 L 39.753 6.187 Z M 73.327 9.123 L 74.083 10.389 Q 73.872 9.686 73.327 9.123 Z M 98.789 9.123 L 99.545 10.389 Q 99.334 9.686 98.789 9.123 Z M 120.472 11.329 L 120.472 11.698 L 120.85 11.575 L 121.333 11.329 A 0.825 0.825 0 0 0 121.003 10.752 A 1.076 1.076 0 0 0 120.964 10.723 A 1.754 1.754 0 0 0 120.621 11.087 A 2.237 2.237 0 0 0 120.472 11.329 Z M 69.302 5.854 A 1.923 1.923 0 0 0 69.952 6.539 A 2.581 2.581 0 0 0 70.313 6.732 A 2.905 2.905 0 0 0 69.584 6.028 A 3.544 3.544 0 0 0 69.302 5.854 Z M 94.764 5.854 A 1.923 1.923 0 0 0 95.414 6.539 A 2.581 2.581 0 0 0 95.774 6.732 A 2.905 2.905 0 0 0 95.046 6.028 A 3.544 3.544 0 0 0 94.764 5.854 Z M 105.24 3.981 L 104.994 4.843 A 0.222 0.222 0 0 0 105.032 4.972 Q 105.09 5.057 105.24 5.089 Q 105.469 4.729 105.609 4.228 Q 105.528 4.08 105.322 4.006 A 0.96 0.96 0 0 0 105.24 3.981 Z M 8.42 9.694 L 7.277 9.958 L 7.787 10.213 A 0.969 0.969 0 0 0 8.107 10.08 A 0.846 0.846 0 0 0 8.42 9.694 Z M 70.937 3.841 L 70.682 4.843 L 71.191 4.843 A 2.113 2.113 0 0 0 71.003 3.98 A 2.525 2.525 0 0 0 70.937 3.841 Z M 96.398 3.841 L 96.144 4.843 L 96.653 4.843 A 2.113 2.113 0 0 0 96.465 3.98 A 2.525 2.525 0 0 0 96.398 3.841 Z M 13.632 4.474 L 13.245 4.096 L 12.99 4.852 L 13.377 5.106 L 13.632 4.474 Z M 26.2 5.273 L 26.077 4.5 L 25.427 5.142 L 26.2 5.273 Z M 55.213 10.292 L 54.712 10.925 L 54.958 11.312 A 2.152 2.152 0 0 0 55.207 10.431 A 2.564 2.564 0 0 0 55.213 10.292 Z M 116.314 5.581 L 116.077 6.196 L 116.446 6.442 L 116.692 6.319 Q 116.622 5.897 116.314 5.581 Z M 6.126 6.636 L 5.871 7.146 L 6.636 7.269 A 0.917 0.917 0 0 0 6.189 6.67 A 1.159 1.159 0 0 0 6.126 6.636 Z M 71.938 2.707 L 71.692 2.329 L 71.191 2.452 Q 71.341 2.725 71.692 2.953 L 71.938 2.707 Z M 97.4 2.707 L 97.154 2.329 L 96.653 2.452 Q 96.803 2.725 97.154 2.953 L 97.4 2.707 Z M 119.619 11.206 L 119.259 10.723 L 119.013 11.329 L 119.373 11.452 L 119.619 11.206 Z M 39.498 3.902 L 40.131 4.025 A 0.969 0.969 0 0 0 39.949 3.487 A 1.256 1.256 0 0 0 39.876 3.393 A 1.008 1.008 0 0 0 39.602 3.691 A 1.359 1.359 0 0 0 39.498 3.902 Z M 1.784 10.591 L 1.661 11.101 A 3.866 3.866 0 0 0 1.777 11.193 Q 1.94 11.318 2.033 11.353 A 0.319 0.319 0 0 0 2.039 11.355 L 2.171 10.846 Q 1.918 10.637 1.786 10.592 A 0.326 0.326 0 0 0 1.784 10.591 Z M 74.338 7.743 L 73.837 7.743 L 73.837 8.367 L 74.338 7.743 Z M 99.8 7.743 L 99.299 7.743 L 99.299 8.367 L 99.8 7.743 Z M 87.047 4.614 A 1.599 1.599 0 0 0 86.84 5.108 A 2.218 2.218 0 0 0 86.783 5.52 A 1.862 1.862 0 0 0 87.029 4.809 A 2.273 2.273 0 0 0 87.047 4.614 Z M 2.171 9.571 L 1.529 9.316 L 1.529 9.826 L 2.171 9.571 Z M 7.277 3.7 L 7.787 4.465 A 1.064 1.064 0 0 0 7.458 3.847 A 1.511 1.511 0 0 0 7.277 3.7 Z M 110.672 3.111 L 110.417 2.751 L 110.171 3.489 L 110.672 3.111 Z M 105.24 8.534 Q 105.363 8.982 105.741 9.272 A 0.829 0.829 0 0 0 105.45 8.686 A 1.32 1.32 0 0 0 105.24 8.534 Z M 57.771 1.986 A 1.215 1.215 0 0 0 58.144 2.454 A 1.685 1.685 0 0 0 58.403 2.619 A 1.992 1.992 0 0 0 58.115 2.27 Q 57.969 2.127 57.783 1.995 A 3.278 3.278 0 0 0 57.771 1.986 Z M 57.261 11.057 L 56.619 10.793 L 56.751 11.312 L 57.261 11.057 Z M 106.594 10.389 A 2.152 2.152 0 0 0 106.052 10.707 A 2.621 2.621 0 0 0 105.855 10.881 A 2.154 2.154 0 0 0 106.565 10.418 A 2.087 2.087 0 0 0 106.594 10.389 Z M 1.529 4.975 A 1.553 1.553 0 0 0 1.868 5.223 A 1.247 1.247 0 0 0 2.303 5.361 A 1.494 1.494 0 0 0 1.739 5.031 A 1.884 1.884 0 0 0 1.529 4.975 Z M 28.389 6.302 L 28.002 7.075 A 1.085 1.085 0 0 0 28.38 6.377 A 1.437 1.437 0 0 0 28.389 6.302 Z M 7.787 8.033 L 8.297 7.787 A 0.617 0.617 0 0 0 8.209 7.569 A 0.568 0.568 0 0 0 8.033 7.4 A 0.895 0.895 0 0 0 7.787 8.033 Z M 48.902 4.658 L 48.524 5.432 A 1.42 1.42 0 0 0 48.902 4.658 Z M 54.325 3.647 L 53.938 4.412 Q 54.264 4.104 54.325 3.647 Z M 73.45 3.076 L 72.703 3.076 A 0.274 0.274 0 0 0 72.817 3.26 Q 72.874 3.302 72.958 3.331 L 73.45 3.076 Z M 98.912 3.076 L 98.165 3.076 A 0.274 0.274 0 0 0 98.279 3.26 Q 98.336 3.302 98.42 3.331 L 98.912 3.076 Z M 26.587 6.425 Q 26.833 6.715 27.229 6.943 A 1.38 1.38 0 0 0 26.853 6.573 A 1.842 1.842 0 0 0 26.587 6.425 Z M 13.755 7.269 L 13.632 7.137 L 13.377 7.646 L 13.755 7.77 L 13.755 7.269 Z M 70.813 3.586 L 70.181 3.076 A 1.16 1.16 0 0 0 70.555 3.454 A 1.596 1.596 0 0 0 70.813 3.586 Z M 96.275 3.586 L 95.643 3.076 A 1.16 1.16 0 0 0 96.017 3.454 A 1.596 1.596 0 0 0 96.275 3.586 Z M 29.294 4.755 L 29.162 4.623 L 29.294 5.396 L 29.294 4.755 Z M 117.668 3.999 L 117.176 3.999 Q 117.229 4.271 117.422 4.482 L 117.668 3.999 Z M 29.936 3.463 A 1.027 1.027 0 0 0 30.182 3.974 A 1.383 1.383 0 0 0 30.322 4.113 A 1.9 1.9 0 0 0 30.192 3.837 Q 30.089 3.656 29.936 3.463 Z M 53.661 9.763 A 1.518 1.518 0 0 0 53.684 9.773 Q 53.587 9.431 53.174 9.264 Q 53.285 9.579 53.661 9.763 Z M 3.067 3.059 L 2.681 2.936 L 2.681 3.445 L 3.067 3.059 Z M 109.802 2.619 L 109.433 2.619 A 0.824 0.824 0 0 0 109.672 3.105 A 1.018 1.018 0 0 0 109.679 3.111 L 109.802 2.619 Z M 39.876 8.859 L 39.375 8.859 L 39.498 9.237 L 39.876 8.859 Z M 27.229 8.104 L 26.974 8.745 A 1.095 1.095 0 0 0 27.164 8.43 A 0.969 0.969 0 0 0 27.229 8.104 Z M 84.313 2.408 L 84.059 2.795 L 84.577 2.663 Q 84.524 2.531 84.313 2.408 Z M 105.117 7.55 L 104.994 7.55 L 104.871 8.042 L 105.117 8.042 L 105.117 7.55 Z M 40.641 2.883 L 40.509 2.883 L 40.263 3.261 L 40.641 3.261 L 40.641 2.883 Z M 68.168 10.767 L 67.922 11.136 L 68.423 11.013 Q 68.391 10.863 68.212 10.784 A 0.682 0.682 0 0 0 68.168 10.767 Z M 93.63 10.767 L 93.384 11.136 L 93.885 11.013 Q 93.853 10.863 93.674 10.784 A 0.682 0.682 0 0 0 93.63 10.767 Z M 27.229 9.782 A 0.704 0.704 0 0 0 27.475 10.193 A 1.026 1.026 0 0 0 27.615 10.292 A 0.624 0.624 0 0 0 27.373 9.876 A 0.962 0.962 0 0 0 27.229 9.782 Z M 86.52 2.531 A 0.772 0.772 0 0 0 86.7 2.87 Q 86.78 2.96 86.891 3.039 A 1.426 1.426 0 0 0 86.906 3.05 A 1.225 1.225 0 0 0 86.66 2.665 A 1.55 1.55 0 0 0 86.52 2.531 Z M 58.28 10.67 L 57.902 11.18 Q 58.195 11.053 58.267 10.742 A 0.855 0.855 0 0 0 58.28 10.67 Z M 116.807 9.132 L 116.561 9.009 L 116.446 9.501 L 116.807 9.132 Z M 8.42 8.675 L 8.033 8.675 Q 8.041 8.9 8.228 9.023 A 0.609 0.609 0 0 0 8.297 9.062 L 8.42 8.675 Z M 69.68 7.488 L 69.179 7.11 A 0.851 0.851 0 0 0 69.599 7.459 A 1.107 1.107 0 0 0 69.68 7.488 Z M 95.142 7.488 L 94.641 7.11 A 0.851 0.851 0 0 0 95.061 7.459 A 1.107 1.107 0 0 0 95.142 7.488 Z M 2.039 3.059 L 1.661 2.936 L 1.661 3.322 L 2.039 3.059 Z M 116.2 4.605 L 115.831 4.605 A 0.583 0.583 0 0 0 116.077 4.975 L 116.2 4.605 Z M 87.17 8.508 L 86.906 8.771 L 87.434 8.64 L 87.17 8.508 Z M 74.716 6.1 L 74.584 6.1 L 74.461 6.486 L 74.716 6.486 L 74.716 6.1 Z M 100.178 6.1 L 100.046 6.1 L 99.923 6.486 L 100.178 6.486 L 100.178 6.1 Z M 53.795 8.488 A 1.209 1.209 0 0 0 53.807 8.499 A 0.6 0.6 0 0 0 53.708 8.174 Q 53.656 8.091 53.575 8.012 A 1.177 1.177 0 0 0 53.552 7.989 Q 53.56 8.255 53.795 8.488 Z M 139.966 7.655 L 139.518 7.321 Q 139.649 7.603 139.966 7.655 Z M 87.17 10.063 L 86.783 10.459 A 0.589 0.589 0 0 0 86.964 10.384 Q 87.128 10.279 87.17 10.063 Z M 104.748 6.073 L 104.625 6.073 L 104.502 6.442 L 104.748 6.442 L 104.748 6.073 Z M 107.71 1.881 L 107.332 2.259 Q 107.684 2.215 107.71 1.881 Z M 118.037 3.146 L 117.545 2.9 Q 117.747 3.103 118.037 3.146 Z M 105.24 7.058 L 104.748 6.812 A 0.897 0.897 0 0 0 105.24 7.058 Z M 53.552 11.057 L 53.938 11.435 A 0.564 0.564 0 0 0 53.623 11.086 A 0.812 0.812 0 0 0 53.552 11.057 Z M 74.201 5.968 A 1.441 1.441 0 0 0 74.215 5.977 A 0.624 0.624 0 0 0 73.88 5.617 A 0.849 0.849 0 0 0 73.837 5.599 Q 73.948 5.812 74.201 5.968 Z M 99.662 5.968 A 1.441 1.441 0 0 0 99.677 5.977 A 0.624 0.624 0 0 0 99.342 5.617 A 0.849 0.849 0 0 0 99.299 5.599 Q 99.41 5.812 99.662 5.968 Z M 86.783 9.158 L 86.651 9.413 L 86.906 9.545 L 86.906 9.158 L 86.783 9.158 Z M 140.08 6.187 L 139.852 6.073 L 139.966 6.521 L 140.08 6.187 Z M 1.661 3.568 L 1.406 3.568 L 1.529 3.955 L 1.661 3.568 Z M 116.314 7.541 L 116.2 7.541 L 116.077 7.91 L 116.314 7.787 L 116.314 7.541 Z M 54.448 6.451 L 54.193 6.319 L 54.325 6.706 L 54.448 6.451 Z M 53.684 5.941 L 53.429 5.818 L 53.552 6.196 L 53.684 5.941 Z M 54.07 5.555 L 53.684 5.432 A 0.33 0.33 0 0 0 53.799 5.606 Q 53.845 5.643 53.907 5.673 A 0.715 0.715 0 0 0 53.938 5.687 L 54.07 5.555 Z M 24.785 2.953 L 25.172 3.217 Q 25.066 3.023 24.785 2.953 Z M 86.783 4.482 L 86.52 4.096 A 0.617 0.617 0 0 0 86.608 4.314 A 0.568 0.568 0 0 0 86.783 4.482 Z M 30.322 3.076 L 30.199 3.34 L 30.454 3.34 L 30.454 3.076 L 30.322 3.076 Z M 88.075 3.832 L 87.688 3.577 A 0.527 0.527 0 0 0 87.848 3.733 Q 87.917 3.777 88.004 3.809 A 1.075 1.075 0 0 0 88.075 3.832 Z M 70.567 8.745 A 0.488 0.488 0 0 0 70.768 9.091 A 0.685 0.685 0 0 0 70.813 9.123 A 0.582 0.582 0 0 0 70.731 8.907 A 0.548 0.548 0 0 0 70.567 8.745 Z M 96.029 8.745 A 0.488 0.488 0 0 0 96.23 9.091 A 0.685 0.685 0 0 0 96.275 9.123 A 0.582 0.582 0 0 0 96.193 8.907 A 0.548 0.548 0 0 0 96.029 8.745 Z M 107.71 3.489 L 107.464 3.111 A 0.439 0.439 0 0 0 107.51 3.3 Q 107.571 3.417 107.71 3.489 Z M 19.582 7.515 L 19.459 7.515 L 19.582 7.901 L 19.582 7.515 Z M 14.52 9.923 L 14.388 9.923 L 14.52 10.301 L 14.52 9.923 Z M 48.902 3.647 L 48.771 3.647 L 48.902 4.025 L 48.902 3.647 Z M 124.26 5.959 L 123.899 5.827 Q 123.935 5.994 124.146 6.073 L 124.26 5.959 Z M 19.459 3.718 L 19.336 3.718 L 19.459 4.096 L 19.459 3.718 Z M 139.966 5.282 L 139.737 4.948 A 0.542 0.542 0 0 0 139.795 5.111 A 0.443 0.443 0 0 0 139.966 5.282 Z M 108.07 10.758 L 107.824 10.635 L 107.824 10.881 L 108.07 10.758 Z M 54.571 9.65 A 0.315 0.315 0 0 0 54.659 9.793 Q 54.725 9.857 54.835 9.905 A 0.267 0.267 0 0 0 54.727 9.729 Q 54.666 9.682 54.571 9.65 Z M 2.221 8.516 A 0.717 0.717 0 0 0 2.303 8.552 Q 2.263 8.433 2.08 8.321 A 1.243 1.243 0 0 0 2.039 8.297 Q 2.06 8.432 2.221 8.516 Z M 86.001 2.795 Q 86.036 2.962 86.265 3.05 Q 86.225 2.931 86.042 2.819 A 1.243 1.243 0 0 0 86.001 2.795 Z M 19.837 3.331 A 0.32 0.32 0 0 0 19.946 3.498 Q 19.99 3.534 20.051 3.564 A 0.73 0.73 0 0 0 20.101 3.586 Q 20.057 3.463 19.837 3.331 Z M 15.653 11.065 A 0.33 0.33 0 0 0 15.769 11.24 Q 15.815 11.277 15.877 11.306 A 0.715 0.715 0 0 0 15.908 11.32 A 0.268 0.268 0 0 0 15.815 11.158 Q 15.754 11.104 15.653 11.065 Z M 14.01 9.413 A 0.3 0.3 0 0 0 14.138 9.604 Q 14.191 9.641 14.265 9.668 A 0.294 0.294 0 0 0 14.218 9.586 Q 14.165 9.519 14.064 9.449 A 1.35 1.35 0 0 0 14.01 9.413 Z M 13.632 8.402 Q 13.676 8.534 13.887 8.657 A 0.296 0.296 0 0 0 13.784 8.491 Q 13.742 8.455 13.684 8.426 A 0.705 0.705 0 0 0 13.632 8.402 Z M 74.584 7.365 A 0.313 0.313 0 0 0 74.682 7.517 Q 74.724 7.555 74.782 7.585 A 0.719 0.719 0 0 0 74.839 7.611 Q 74.813 7.444 74.584 7.365 Z M 100.046 7.365 A 0.313 0.313 0 0 0 100.144 7.517 Q 100.186 7.555 100.244 7.585 A 0.719 0.719 0 0 0 100.301 7.611 Q 100.274 7.444 100.046 7.365 Z M 75.305 10.863 A 0.682 0.682 0 0 0 75.349 10.881 A 0.28 0.28 0 0 0 75.26 10.733 Q 75.221 10.697 75.166 10.668 A 0.711 0.711 0 0 0 75.094 10.635 Q 75.125 10.784 75.305 10.863 Z M 100.767 10.863 A 0.682 0.682 0 0 0 100.811 10.881 A 0.28 0.28 0 0 0 100.722 10.733 Q 100.683 10.697 100.627 10.668 A 0.711 0.711 0 0 0 100.556 10.635 Q 100.587 10.784 100.767 10.863 Z M 117.905 3.753 A 0.265 0.265 0 0 0 118.01 3.925 Q 118.051 3.956 118.106 3.981 A 0.662 0.662 0 0 0 118.151 3.999 A 0.265 0.265 0 0 0 118.046 3.827 Q 118.006 3.796 117.951 3.771 A 0.662 0.662 0 0 0 117.905 3.753 Z M 40.772 2.505 L 41.027 2.76 Q 40.983 2.628 40.772 2.505 Z M 122.924 8.64 A 0.265 0.265 0 0 0 123.029 8.811 Q 123.069 8.843 123.124 8.867 A 0.662 0.662 0 0 0 123.17 8.886 A 0.296 0.296 0 0 0 123.121 8.801 Q 123.066 8.732 122.962 8.664 A 1.251 1.251 0 0 0 122.924 8.64 Z M 75.349 9.756 A 0.296 0.296 0 0 0 75.398 9.84 Q 75.452 9.909 75.557 9.978 A 1.251 1.251 0 0 0 75.595 10.002 A 0.265 0.265 0 0 0 75.49 9.83 Q 75.449 9.799 75.394 9.774 A 0.662 0.662 0 0 0 75.349 9.756 Z M 100.811 9.756 A 0.296 0.296 0 0 0 100.859 9.84 Q 100.914 9.909 101.019 9.978 A 1.251 1.251 0 0 0 101.057 10.002 A 0.265 0.265 0 0 0 100.952 9.83 Q 100.911 9.799 100.856 9.774 A 0.662 0.662 0 0 0 100.811 9.756 Z M 123.416 6.196 A 0.298 0.298 0 0 0 123.515 6.358 Q 123.57 6.406 123.653 6.442 A 0.272 0.272 0 0 0 123.544 6.264 Q 123.502 6.233 123.446 6.208 A 0.644 0.644 0 0 0 123.416 6.196 Z M 24.653 2.566 L 24.785 2.83 L 24.785 2.566 L 24.653 2.566 Z M 2.171 2.549 L 2.303 2.804 L 2.303 2.549 L 2.171 2.549 Z M 53.938 8.499 L 54.07 8.754 L 54.07 8.499 L 53.938 8.499 Z M 26.719 5.273 L 26.842 5.528 L 26.842 5.273 L 26.719 5.273 Z M 40.008 2.505 L 40.131 2.76 L 40.131 2.505 L 40.008 2.505 Z M 40.263 4.157 L 40.386 4.412 L 40.386 4.157 L 40.263 4.157 Z M 139.803 4.802 A 1.255 1.255 0 0 0 139.852 4.834 A 0.239 0.239 0 0 0 139.759 4.685 Q 139.723 4.656 139.672 4.634 A 0.61 0.61 0 0 0 139.623 4.614 Q 139.661 4.705 139.803 4.802 Z M 139.737 9.571 A 0.231 0.231 0 0 0 139.809 9.698 Q 139.866 9.752 139.966 9.791 Q 139.922 9.677 139.737 9.571 Z M 117.176 8.279 L 117.299 8.525 L 117.299 8.279 L 117.176 8.279 Z" vector-effect="non-scaling-stroke"/></g></svg>