<svg width="163pt" height="14pt" viewBox="0 0 163 14" xmlns="http://www.w3.org/2000/svg"><g id="fontsvg1672116683728" stroke-linecap="round" fill-rule="evenodd" fill="#ff9900"><path d="M 38.355 1.485 L 39.375 0.853 A 9.261 9.261 0 0 0 40.088 1 Q 40.469 1.063 40.896 1.107 L 42.293 1.23 A 2.928 2.928 0 0 1 42.901 1.763 A 3.702 3.702 0 0 1 43.181 2.127 L 43.567 4.913 L 43.945 6.311 L 44.068 7.963 A 6.072 6.072 0 0 1 43.894 9.194 A 6.99 6.99 0 0 1 43.813 9.492 A 0.826 0.826 0 0 0 44.166 9.852 A 1.027 1.027 0 0 0 44.2 9.87 L 44.587 9.369 L 44.71 8.859 L 44.455 8.736 L 44.587 8.473 L 44.833 7.33 L 44.71 6.565 L 44.965 6.064 L 45.22 4.535 A 4.87 4.87 0 0 1 45.351 3.668 A 5.839 5.839 0 0 1 45.466 3.261 L 45.721 1.872 Q 46.213 1.441 46.872 1.23 L 48.524 1.107 L 50.045 1.354 A 6.082 6.082 0 0 1 50.423 2.76 L 50.423 6.187 L 50.3 7.33 L 50.423 7.717 L 50.423 8.859 L 50.555 9.114 L 50.423 9.237 L 50.555 10.512 L 50.423 12.164 A 7.968 7.968 0 0 1 49.891 12.485 A 10.736 10.736 0 0 1 49.28 12.797 A 4.983 4.983 0 0 1 48.34 12.666 A 6.043 6.043 0 0 1 47.892 12.542 A 2.75 2.75 0 0 1 47.282 11.606 A 3.19 3.19 0 0 1 47.25 11.522 L 47.751 4.025 Q 47.435 4.456 47.25 5.045 L 46.617 9.237 A 6.802 6.802 0 0 1 46.369 9.939 A 8.759 8.759 0 0 1 46.107 10.512 L 46.239 11.654 L 46.107 12.041 A 6.716 6.716 0 0 1 45.637 12.355 Q 45.382 12.511 45.088 12.665 L 44.71 12.665 L 44.71 12.797 L 43.567 12.665 A 4.903 4.903 0 0 1 43.002 12.149 A 6.047 6.047 0 0 1 42.68 11.777 L 42.548 10.125 L 41.915 7.33 A 4.516 4.516 0 0 1 41.683 6.315 A 5.174 5.174 0 0 1 41.66 6.064 L 41.405 4.535 L 41.405 3.902 L 41.027 4.535 L 41.282 5.933 L 41.15 7.084 L 41.282 7.462 L 41.15 9.114 L 41.783 11.654 A 3.083 3.083 0 0 1 41.284 12.232 A 3.933 3.933 0 0 1 40.896 12.542 L 39.753 12.665 L 39.375 12.542 A 2.987 2.987 0 0 1 38.725 12.252 A 4.049 4.049 0 0 1 38.224 11.9 L 38.224 10.125 L 38.479 8.604 L 38.101 7.207 L 38.479 5.933 L 38.101 4.535 L 38.224 2.883 L 38.101 2.505 L 38.355 1.485 Z M 53.306 0.835 L 55.345 1.081 L 57.261 0.958 L 58.922 1.081 L 59.309 0.958 Q 60.064 1.099 60.706 1.6 L 60.838 3.006 L 60.706 3.384 L 60.328 4.025 L 59.432 4.148 L 59.177 4.025 L 55.345 3.894 L 55.731 5.177 L 59.563 4.913 L 59.941 5.054 L 60.583 5.555 L 60.451 6.583 Q 60.24 7.286 59.81 7.989 L 57.902 8.112 L 56.109 7.603 A 2.414 2.414 0 0 0 55.506 8.881 A 3.089 3.089 0 0 0 55.477 9.132 Q 56.188 9.448 57.006 9.519 L 60.583 9.264 L 60.97 9.519 L 61.216 10.925 A 4.497 4.497 0 0 1 60.966 11.975 A 5.691 5.691 0 0 1 60.706 12.577 L 59.309 12.709 L 58.922 12.577 L 57.006 12.331 Q 56.153 12.56 55.213 12.577 L 53.429 12.841 A 3.492 3.492 0 0 1 52.418 12.123 A 4.268 4.268 0 0 1 52.146 11.821 L 52.022 10.415 L 52.146 10.028 L 52.277 9.009 L 52.146 8.754 L 52.146 7.989 L 52.277 5.818 L 52.146 4.025 L 52.277 1.854 A 3.486 3.486 0 0 1 52.784 1.259 A 4.701 4.701 0 0 1 53.306 0.835 Z M 128.962 0.835 L 131.001 1.081 L 132.917 0.958 L 134.578 1.081 L 134.965 0.958 Q 135.721 1.099 136.362 1.6 L 136.494 3.006 L 136.362 3.384 L 135.984 4.025 L 135.088 4.148 L 134.833 4.025 L 131.001 3.894 L 131.388 5.177 L 135.22 4.913 L 135.598 5.054 L 136.239 5.555 L 136.107 6.583 Q 135.896 7.286 135.466 7.989 L 133.559 8.112 L 131.766 7.603 A 2.414 2.414 0 0 0 131.162 8.881 A 3.089 3.089 0 0 0 131.133 9.132 Q 131.845 9.448 132.662 9.519 L 136.239 9.264 L 136.626 9.519 L 136.872 10.925 A 4.497 4.497 0 0 1 136.622 11.975 A 5.691 5.691 0 0 1 136.362 12.577 L 134.965 12.709 L 134.578 12.577 L 132.662 12.331 Q 131.81 12.56 130.869 12.577 L 129.085 12.841 A 3.492 3.492 0 0 1 128.074 12.123 A 4.268 4.268 0 0 1 127.802 11.821 L 127.679 10.415 L 127.802 10.028 L 127.934 9.009 L 127.802 8.754 L 127.802 7.989 L 127.934 5.818 L 127.802 4.025 L 127.934 1.854 A 3.486 3.486 0 0 1 128.441 1.259 A 4.701 4.701 0 0 1 128.962 0.835 Z M 139.5 0.835 L 141.539 1.081 L 143.455 0.958 L 145.116 1.081 L 145.503 0.958 Q 146.259 1.099 146.9 1.6 L 147.032 3.006 L 146.9 3.384 L 146.522 4.025 L 145.626 4.148 L 145.371 4.025 L 141.539 3.894 L 141.926 5.177 L 145.758 4.913 L 146.136 5.054 L 146.777 5.555 L 146.646 6.583 Q 146.435 7.286 146.004 7.989 L 144.097 8.112 L 142.304 7.603 A 2.414 2.414 0 0 0 141.7 8.881 A 3.089 3.089 0 0 0 141.671 9.132 Q 142.383 9.448 143.2 9.519 L 146.777 9.264 L 147.164 9.519 L 147.41 10.925 A 4.497 4.497 0 0 1 147.16 11.975 A 5.691 5.691 0 0 1 146.9 12.577 L 145.503 12.709 L 145.116 12.577 L 143.2 12.331 Q 142.348 12.56 141.407 12.577 L 139.623 12.841 A 3.492 3.492 0 0 1 138.612 12.123 A 4.268 4.268 0 0 1 138.34 11.821 L 138.217 10.415 L 138.34 10.028 L 138.472 9.009 L 138.34 8.754 L 138.34 7.989 L 138.472 5.818 L 138.34 4.025 L 138.472 1.854 A 3.486 3.486 0 0 1 138.979 1.259 A 4.701 4.701 0 0 1 139.5 0.835 Z M 11.725 1.556 L 12.99 0.8 A 10.777 10.777 0 0 1 13.838 0.947 A 14.737 14.737 0 0 1 14.765 1.178 L 15.398 1.679 L 15.152 6.249 L 15.275 8.279 A 3.583 3.583 0 0 0 15.481 8.939 A 4.947 4.947 0 0 0 15.785 9.545 L 17.051 9.8 L 17.438 9.668 Q 17.868 9.114 18.07 8.279 L 17.938 6.372 L 18.07 4.983 L 17.938 4.474 L 18.07 2.83 L 17.815 1.934 L 17.938 1.679 L 18.193 1.301 L 19.714 0.8 A 7.712 7.712 0 0 1 20.668 0.955 A 10.143 10.143 0 0 1 21.489 1.178 L 21.621 1.679 L 21.489 3.085 L 21.111 3.463 Q 21.29 3.88 21.362 4.438 A 5.14 5.14 0 0 1 21.366 4.474 L 21.234 6.372 L 21.489 7.646 L 21.366 8.147 A 9.082 9.082 0 0 1 21.264 9.245 A 11.468 11.468 0 0 1 21.111 10.046 Q 20.804 10.652 20.355 11.197 L 19.204 12.208 L 17.561 12.709 L 16.928 12.577 L 16.418 12.841 L 16.031 12.709 L 14.265 12.463 L 13.113 11.452 A 7.692 7.692 0 0 1 12.44 10.734 A 9.304 9.304 0 0 1 12.103 10.301 L 11.725 7.137 L 11.725 4.983 L 11.848 3.586 A 12.618 12.618 0 0 1 11.757 2.662 Q 11.725 2.14 11.725 1.556 Z M 107.191 1.872 L 108.062 0.993 L 110.443 1.371 L 110.698 1.248 L 111.067 1.248 L 111.067 1.125 L 112.702 1.371 L 114.328 1.248 L 115.708 1.494 Q 115.884 2.145 115.954 2.997 Q 115.778 3.674 115.33 4.254 L 113.704 4.377 L 111.946 4.254 L 110.944 4.008 L 110.575 4.131 L 110.32 4.5 L 110.443 5.511 L 110.821 5.634 L 113.326 5.379 L 115.075 5.511 L 115.462 7.014 L 115.075 8.394 L 113.458 8.648 L 110.944 8.262 A 0.602 0.602 0 0 0 110.747 8.34 A 0.533 0.533 0 0 0 110.575 8.517 L 110.443 8.895 Q 110.542 9.257 110.568 9.736 A 6.274 6.274 0 0 1 110.575 9.896 L 110.698 11.021 L 110.575 11.399 L 110.698 12.41 L 110.188 12.656 L 108.817 12.779 A 3.481 3.481 0 0 1 108.178 12.671 Q 107.878 12.592 107.557 12.461 A 6.056 6.056 0 0 1 107.438 12.41 Q 107.095 11.927 106.937 11.276 L 107.191 9.642 L 107.06 8.016 L 107.191 6.636 L 107.06 4.887 L 107.191 3.753 L 107.06 3.375 L 106.937 2.25 L 107.191 1.872 Z M 117.58 1.872 L 118.45 0.993 L 120.832 1.371 L 121.087 1.248 L 121.456 1.248 L 121.456 1.125 L 123.091 1.371 L 124.717 1.248 L 126.097 1.494 Q 126.272 2.145 126.343 2.997 Q 126.167 3.674 125.719 4.254 L 124.093 4.377 L 122.335 4.254 L 121.333 4.008 L 120.964 4.131 L 120.709 4.5 L 120.832 5.511 L 121.21 5.634 L 123.715 5.379 L 125.464 5.511 L 125.851 7.014 L 125.464 8.394 L 123.847 8.648 L 121.333 8.262 A 0.602 0.602 0 0 0 121.135 8.34 A 0.533 0.533 0 0 0 120.964 8.517 L 120.832 8.895 Q 120.93 9.257 120.957 9.736 A 6.274 6.274 0 0 1 120.964 9.896 L 121.087 11.021 L 120.964 11.399 L 121.087 12.41 L 120.577 12.656 L 119.206 12.779 A 3.481 3.481 0 0 1 118.566 12.671 Q 118.267 12.592 117.946 12.461 A 6.056 6.056 0 0 1 117.826 12.41 Q 117.483 11.927 117.325 11.276 L 117.58 9.642 L 117.448 8.016 L 117.58 6.636 L 117.448 4.887 L 117.58 3.753 L 117.448 3.375 L 117.325 2.25 L 117.58 1.872 Z M 85.887 1.389 L 87.363 0.896 Q 88.102 0.949 88.972 1.143 L 90.571 1.521 A 6.928 6.928 0 0 1 91.121 2.027 A 9.051 9.051 0 0 1 91.556 2.505 L 92.54 3.604 A 3.067 3.067 0 0 1 92.222 4.403 A 3.943 3.943 0 0 1 91.934 4.843 A 4.993 4.993 0 0 1 90.958 5.464 A 5.77 5.77 0 0 1 90.703 5.581 Q 90.07 5.335 89.464 4.843 L 88.356 3.981 L 87.003 4.597 Q 86.511 5.08 86.133 5.704 L 86.019 6.688 L 86.133 7.058 L 86.133 7.436 L 86.625 8.912 L 87.864 9.65 A 4.343 4.343 0 0 0 89.204 9.229 A 4.972 4.972 0 0 0 89.341 9.158 L 90.325 8.174 A 4.595 4.595 0 0 1 91.256 8.374 A 5.505 5.505 0 0 1 91.688 8.534 A 4.964 4.964 0 0 1 92.239 9.086 A 6.62 6.62 0 0 1 92.672 9.65 A 7.29 7.29 0 0 1 92.323 10.291 A 9.675 9.675 0 0 1 91.934 10.881 L 90.817 11.865 L 89.587 12.604 L 88.233 12.727 L 87.864 12.604 L 87.363 12.727 L 86.133 12.48 L 84.779 11.865 L 83.057 9.519 L 82.811 7.796 L 82.934 6.073 L 82.811 5.089 L 82.934 4.843 L 83.057 4.474 L 83.672 3.111 L 84.656 2.127 L 85.887 1.389 Z M 22.333 0.896 L 23.88 1.151 L 24.917 1.02 L 25.304 1.151 L 26.2 2.057 L 26.842 3.076 L 27.36 4.368 A 0.885 0.885 0 0 0 27.945 4.053 A 1.209 1.209 0 0 0 28.002 3.981 A 2.927 2.927 0 0 1 28.408 3.246 A 3.612 3.612 0 0 1 28.652 2.953 A 3.761 3.761 0 0 1 29.14 1.828 A 4.229 4.229 0 0 1 29.162 1.793 L 30.322 1.151 L 32.124 1.151 L 33.161 1.916 A 3.708 3.708 0 0 1 32.59 2.86 A 4.221 4.221 0 0 1 32.511 2.953 L 29.681 6.943 A 1.862 1.862 0 0 0 29.318 7.785 A 2.312 2.312 0 0 0 29.294 7.972 L 29.162 9.132 L 29.294 9.519 L 29.294 11.197 A 3.257 3.257 0 0 1 29.039 12.357 A 5.669 5.669 0 0 1 27.852 12.698 A 6.467 6.467 0 0 1 27.615 12.735 L 26.587 12.867 L 26.2 12.604 A 2.948 2.948 0 0 1 25.829 11.663 A 3.364 3.364 0 0 1 25.813 11.584 L 25.69 8.235 L 25.813 7.462 L 25.559 6.943 L 24.653 6.038 L 21.823 2.057 Q 21.99 1.45 22.333 0.896 Z M 70.181 1.195 L 71.314 0.817 A 6.797 6.797 0 0 1 72.826 1.072 L 73.837 1.696 A 6.049 6.049 0 0 1 74.098 2.221 Q 74.22 2.496 74.331 2.81 A 9.738 9.738 0 0 1 74.338 2.83 L 74.962 5.098 L 75.472 6.1 L 75.841 7.365 L 76.474 8.367 Q 76.57 8.991 76.86 9.624 L 77.353 10.767 L 77.607 11.646 L 77.396 12.085 L 76.395 12.709 L 75.261 12.709 L 75.261 12.832 L 74.883 12.709 A 2.168 2.168 0 0 1 74.304 12.368 A 2.818 2.818 0 0 1 74.004 12.085 A 4.302 4.302 0 0 1 73.769 11.304 A 3.56 3.56 0 0 1 73.705 10.767 L 73.45 10.635 L 72.958 10.881 L 72.703 10.767 L 71.06 10.767 A 1.655 1.655 0 0 0 70.233 11.431 A 2.097 2.097 0 0 0 70.181 11.514 L 69.548 12.524 L 68.291 12.902 L 66.911 12.647 Q 66.507 12.305 66.155 11.769 L 67.157 9.51 L 67.289 8.121 L 67.922 6.979 L 69.056 3.331 L 69.548 2.329 A 4.772 4.772 0 0 1 70.082 1.332 A 5.399 5.399 0 0 1 70.181 1.195 Z M 0 1.529 L 0.642 1.02 L 6.636 1.143 A 5.02 5.02 0 0 1 8.138 1.642 A 6.317 6.317 0 0 1 8.807 2.039 A 3.567 3.567 0 0 1 9.497 3.593 A 4.636 4.636 0 0 1 9.571 4.21 L 9.694 5.361 L 8.675 6.126 L 9.571 7.269 A 9.295 9.295 0 0 1 10.02 8.574 A 11.41 11.41 0 0 1 10.213 9.439 A 6.65 6.65 0 0 1 9.606 10.946 A 8.137 8.137 0 0 1 9.193 11.619 A 7.563 7.563 0 0 1 8.272 12.136 Q 7.789 12.367 7.225 12.566 A 12.946 12.946 0 0 1 7.014 12.639 L 6.126 12.762 L 5.871 12.639 L 2.426 12.762 L 2.039 12.639 L 1.661 12.639 L 1.661 12.762 A 2.673 2.673 0 0 1 0.054 11.347 A 3.502 3.502 0 0 1 0 11.232 L 0.255 8.552 L 0.123 7.269 L 0.255 5.871 L 0 1.529 Z M 96.346 2.039 L 98.183 0.94 L 100.143 0.94 L 100.995 1.187 A 6.569 6.569 0 0 1 102.136 1.565 A 8.762 8.762 0 0 1 103.069 2.039 A 4.646 4.646 0 0 1 103.836 2.714 Q 104.157 3.062 104.453 3.502 A 7.965 7.965 0 0 1 104.537 3.63 L 105.275 5.713 A 6.078 6.078 0 0 0 105.038 6.939 A 6.767 6.767 0 0 0 105.029 7.049 L 105.152 7.541 A 11.074 11.074 0 0 1 104.747 9.364 A 12.904 12.904 0 0 1 104.537 9.984 L 103.069 11.575 Q 102.349 12.085 101.232 12.674 L 98.552 12.797 A 7.426 7.426 0 0 1 97.399 12.343 A 9.841 9.841 0 0 1 96.469 11.821 A 15.436 15.436 0 0 1 95.701 11.211 Q 95.314 10.884 94.904 10.501 A 25.014 25.014 0 0 1 94.878 10.477 L 94.148 8.156 L 94.271 5.827 A 6.102 6.102 0 0 1 94.448 4.867 Q 94.603 4.279 94.878 3.63 L 96.346 2.039 Z M 162.703 6.521 L 162.817 6.979 L 162.703 8.104 L 162.703 8.446 A 5.649 5.649 0 0 1 162.198 10.122 A 6.394 6.394 0 0 1 162.141 10.239 Q 161.911 11.014 161.392 11.871 A 9.926 9.926 0 0 1 161.358 11.927 L 160.453 13.491 L 159.662 13.948 A 2.916 2.916 0 0 1 159.042 13.672 A 3.561 3.561 0 0 1 158.766 13.491 A 12.675 12.675 0 0 1 158.985 11.707 A 5.255 5.255 0 0 0 159.387 10.633 A 6.839 6.839 0 0 0 159.548 9.791 A 8.7 8.7 0 0 0 159.785 8.682 A 11.511 11.511 0 0 0 159.891 7.655 L 159.996 7.093 L 159.891 6.864 L 159.776 3.937 L 159.662 3.709 L 159.548 3.375 A 11.47 11.47 0 0 0 159.285 2.521 Q 159.109 2.015 158.871 1.459 L 158.537 0.677 A 4.21 4.21 0 0 1 158.796 0.387 Q 158.935 0.245 159.101 0.098 A 7.284 7.284 0 0 1 159.214 0 Q 160.119 0.202 160.796 0.896 Q 161.279 1.6 161.692 2.584 A 4.815 4.815 0 0 1 162.04 3.458 Q 162.163 3.878 162.235 4.361 A 8.232 8.232 0 0 1 162.255 4.5 Q 162.677 5.388 162.703 6.521 Z M 99.281 3.999 L 97.69 5.221 L 97.444 6.803 A 3.688 3.688 0 0 0 97.667 7.814 A 5.142 5.142 0 0 0 98.06 8.64 A 3.262 3.262 0 0 0 99.594 9.443 A 4.079 4.079 0 0 0 99.896 9.501 A 3.079 3.079 0 0 0 101.169 8.631 A 3.816 3.816 0 0 0 101.364 8.394 A 6.747 6.747 0 0 0 101.539 7.71 Q 101.617 7.328 101.669 6.884 A 13.94 13.94 0 0 0 101.725 6.319 A 3.022 3.022 0 0 0 101.477 5.377 A 4.13 4.13 0 0 0 101.118 4.729 A 8.177 8.177 0 0 0 99.681 4.117 A 9.406 9.406 0 0 0 99.281 3.999 Z M 154.635 10.063 L 155.681 9.439 A 2.781 2.781 0 0 1 156.472 9.86 A 3.388 3.388 0 0 1 156.718 10.063 L 156.929 11.522 A 9.025 9.025 0 0 1 156.724 12.207 A 11.401 11.401 0 0 1 156.516 12.771 L 155.153 12.981 A 2.698 2.698 0 0 1 154.177 12.413 A 3.136 3.136 0 0 1 154.116 12.357 L 153.905 10.898 Q 154.169 10.424 154.635 10.063 Z M 154.529 3.814 L 155.575 3.19 A 2.88 2.88 0 0 1 156.718 3.814 L 156.823 4.122 L 156.718 4.852 L 156.718 5.168 A 5.999 5.999 0 0 1 156.666 5.717 Q 156.627 5.998 156.562 6.31 A 10.963 10.963 0 0 1 156.516 6.521 L 155.153 6.627 A 2.381 2.381 0 0 1 154.206 6.18 A 2.807 2.807 0 0 1 154.116 6.108 L 153.8 4.746 A 2.453 2.453 0 0 1 154.167 4.176 A 3.277 3.277 0 0 1 154.529 3.814 Z M 4.342 8.174 L 3.445 7.91 A 4.917 4.917 0 0 0 3.628 9.216 A 6.056 6.056 0 0 0 3.832 9.826 A 13.421 13.421 0 0 0 4.865 9.718 Q 5.394 9.642 5.982 9.524 A 24.435 24.435 0 0 0 6.381 9.439 L 6.636 8.297 L 5.748 7.91 L 4.342 8.174 Z M 4.087 3.955 L 3.7 3.7 L 3.445 4.975 L 3.568 5.484 L 3.955 5.484 A 14.092 14.092 0 0 1 5.059 5.313 A 17.798 17.798 0 0 1 5.994 5.229 L 6.513 4.342 L 5.748 3.955 L 5.106 4.087 L 4.729 3.955 L 4.087 3.955 Z M 71.314 7.11 L 71.191 7.998 L 72.325 8.121 A 0.69 0.69 0 0 0 72.679 7.793 A 0.905 0.905 0 0 0 72.703 7.743 L 72.448 6.609 A 8.008 8.008 0 0 0 72.087 5.8 A 10.579 10.579 0 0 0 71.692 5.098 A 6.663 6.663 0 0 1 71.568 6.13 A 8.969 8.969 0 0 1 71.314 7.11 Z M 103.799 7.418 L 103.315 7.418 L 102.709 7.91 Q 102.841 8.347 103.15 8.822 A 5.151 5.151 0 0 0 103.192 8.886 L 103.069 7.91 L 103.799 7.418 Z M 89.71 10.266 L 88.603 10.881 A 1.013 1.013 0 0 0 88.963 11.19 A 1.285 1.285 0 0 0 89.095 11.25 A 2.719 2.719 0 0 1 89.754 10.871 A 3.342 3.342 0 0 1 90.079 10.758 A 0.614 0.614 0 0 0 89.824 10.338 A 0.927 0.927 0 0 0 89.71 10.266 Z M 102.823 3.876 L 101.602 2.777 Q 101.839 3.647 102.823 3.876 Z M 3.445 7.146 L 2.549 6.249 L 2.681 7.4 L 3.445 7.146 Z M 20.224 6.882 L 19.714 6.117 L 19.459 7.392 A 0.268 0.268 0 0 0 19.621 7.299 Q 19.675 7.237 19.714 7.137 L 20.224 6.882 Z M 39.753 6.187 L 39.63 6.064 L 39.753 6.697 L 39.63 7.084 L 40.008 6.697 L 40.263 6.064 L 39.753 6.187 Z M 73.327 9.123 L 74.083 10.389 Q 73.872 9.686 73.327 9.123 Z M 100.011 11.329 L 100.011 11.698 L 100.389 11.575 L 100.872 11.329 A 0.825 0.825 0 0 0 100.542 10.752 A 1.076 1.076 0 0 0 100.503 10.723 A 1.754 1.754 0 0 0 100.16 11.087 A 2.237 2.237 0 0 0 100.011 11.329 Z M 108.571 3.753 A 1.42 1.42 0 0 0 108.922 4.204 Q 109.193 4.429 109.576 4.486 A 1.738 1.738 0 0 0 109.696 4.5 A 1.353 1.353 0 0 0 108.843 3.813 A 2.034 2.034 0 0 0 108.571 3.753 Z M 118.96 3.753 A 1.42 1.42 0 0 0 119.311 4.204 Q 119.581 4.429 119.965 4.486 A 1.738 1.738 0 0 0 120.085 4.5 A 1.353 1.353 0 0 0 119.232 3.813 A 2.034 2.034 0 0 0 118.96 3.753 Z M 69.302 5.854 A 1.923 1.923 0 0 0 69.952 6.539 A 2.581 2.581 0 0 0 70.313 6.732 A 2.905 2.905 0 0 0 69.584 6.028 A 3.544 3.544 0 0 0 69.302 5.854 Z M 84.779 3.981 L 84.533 4.843 A 0.222 0.222 0 0 0 84.571 4.972 Q 84.629 5.057 84.779 5.089 Q 85.008 4.729 85.148 4.228 Q 85.067 4.08 84.861 4.006 A 0.96 0.96 0 0 0 84.779 3.981 Z M 8.42 9.694 L 7.277 9.958 L 7.787 10.213 A 0.969 0.969 0 0 0 8.107 10.08 A 0.846 0.846 0 0 0 8.42 9.694 Z M 70.937 3.841 L 70.682 4.843 L 71.191 4.843 A 2.113 2.113 0 0 0 71.003 3.98 A 2.525 2.525 0 0 0 70.937 3.841 Z M 13.632 4.474 L 13.245 4.096 L 12.99 4.852 L 13.377 5.106 L 13.632 4.474 Z M 26.2 5.273 L 26.077 4.5 L 25.427 5.142 L 26.2 5.273 Z M 55.213 10.292 L 54.712 10.925 L 54.958 11.312 A 2.152 2.152 0 0 0 55.207 10.431 A 2.564 2.564 0 0 0 55.213 10.292 Z M 130.869 10.292 L 130.368 10.925 L 130.614 11.312 A 2.152 2.152 0 0 0 130.863 10.431 A 2.564 2.564 0 0 0 130.869 10.292 Z M 141.407 10.292 L 140.906 10.925 L 141.152 11.312 A 2.152 2.152 0 0 0 141.401 10.431 A 2.564 2.564 0 0 0 141.407 10.292 Z M 95.854 5.581 L 95.616 6.196 L 95.985 6.442 L 96.231 6.319 Q 96.161 5.897 95.854 5.581 Z M 6.126 6.636 L 5.871 7.146 L 6.636 7.269 A 0.917 0.917 0 0 0 6.189 6.67 A 1.159 1.159 0 0 0 6.126 6.636 Z M 71.938 2.707 L 71.692 2.329 L 71.191 2.452 Q 71.341 2.725 71.692 2.953 L 71.938 2.707 Z M 99.158 11.206 L 98.798 10.723 L 98.552 11.329 L 98.912 11.452 L 99.158 11.206 Z M 39.498 3.902 L 40.131 4.025 A 0.969 0.969 0 0 0 39.949 3.487 A 1.256 1.256 0 0 0 39.876 3.393 A 1.008 1.008 0 0 0 39.602 3.691 A 1.359 1.359 0 0 0 39.498 3.902 Z M 1.784 10.591 L 1.661 11.101 A 3.866 3.866 0 0 0 1.777 11.193 Q 1.94 11.318 2.033 11.353 A 0.319 0.319 0 0 0 2.039 11.355 L 2.171 10.846 Q 1.918 10.637 1.786 10.592 A 0.326 0.326 0 0 0 1.784 10.591 Z M 74.338 7.743 L 73.837 7.743 L 73.837 8.367 L 74.338 7.743 Z M 2.171 9.571 L 1.529 9.316 L 1.529 9.826 L 2.171 9.571 Z M 7.277 3.7 L 7.787 4.465 A 1.064 1.064 0 0 0 7.458 3.847 A 1.511 1.511 0 0 0 7.277 3.7 Z M 90.211 3.111 L 89.956 2.751 L 89.71 3.489 L 90.211 3.111 Z M 84.779 8.534 Q 84.902 8.982 85.28 9.272 A 0.829 0.829 0 0 0 84.989 8.686 A 1.32 1.32 0 0 0 84.779 8.534 Z M 57.771 1.986 A 1.215 1.215 0 0 0 58.144 2.454 A 1.685 1.685 0 0 0 58.403 2.619 A 1.992 1.992 0 0 0 58.115 2.27 Q 57.969 2.127 57.783 1.995 A 3.278 3.278 0 0 0 57.771 1.986 Z M 133.427 1.986 A 1.215 1.215 0 0 0 133.8 2.454 A 1.685 1.685 0 0 0 134.06 2.619 A 1.992 1.992 0 0 0 133.772 2.27 Q 133.625 2.127 133.439 1.995 A 3.278 3.278 0 0 0 133.427 1.986 Z M 143.965 1.986 A 1.215 1.215 0 0 0 144.338 2.454 A 1.685 1.685 0 0 0 144.598 2.619 A 1.992 1.992 0 0 0 144.31 2.27 Q 144.163 2.127 143.977 1.995 A 3.278 3.278 0 0 0 143.965 1.986 Z M 109.195 5.256 L 108.686 5.133 A 1.215 1.215 0 0 0 108.713 5.374 Q 108.745 5.515 108.812 5.621 A 0.613 0.613 0 0 0 108.94 5.766 L 109.195 5.256 Z M 119.584 5.256 L 119.074 5.133 A 1.215 1.215 0 0 0 119.102 5.374 Q 119.133 5.515 119.201 5.621 A 0.613 0.613 0 0 0 119.329 5.766 L 119.584 5.256 Z M 57.261 11.057 L 56.619 10.793 L 56.751 11.312 L 57.261 11.057 Z M 132.917 11.057 L 132.275 10.793 L 132.407 11.312 L 132.917 11.057 Z M 143.455 11.057 L 142.813 10.793 L 142.945 11.312 L 143.455 11.057 Z M 86.133 10.389 A 2.152 2.152 0 0 0 85.592 10.707 A 2.621 2.621 0 0 0 85.395 10.881 A 2.154 2.154 0 0 0 86.104 10.418 A 2.087 2.087 0 0 0 86.133 10.389 Z M 1.529 4.975 A 1.553 1.553 0 0 0 1.868 5.223 A 1.247 1.247 0 0 0 2.303 5.361 A 1.494 1.494 0 0 0 1.739 5.031 A 1.884 1.884 0 0 0 1.529 4.975 Z M 28.389 6.302 L 28.002 7.075 A 1.085 1.085 0 0 0 28.38 6.377 A 1.437 1.437 0 0 0 28.389 6.302 Z M 7.787 8.033 L 8.297 7.787 A 0.617 0.617 0 0 0 8.209 7.569 A 0.568 0.568 0 0 0 8.033 7.4 A 0.895 0.895 0 0 0 7.787 8.033 Z M 48.902 4.658 L 48.524 5.432 A 1.42 1.42 0 0 0 48.902 4.658 Z M 54.325 3.647 L 53.938 4.412 Q 54.264 4.104 54.325 3.647 Z M 129.981 3.647 L 129.595 4.412 Q 129.92 4.104 129.981 3.647 Z M 140.52 3.647 L 140.133 4.412 Q 140.458 4.104 140.52 3.647 Z M 73.45 3.076 L 72.703 3.076 A 0.274 0.274 0 0 0 72.817 3.26 Q 72.874 3.302 72.958 3.331 L 73.45 3.076 Z M 26.587 6.425 Q 26.833 6.715 27.229 6.943 A 1.38 1.38 0 0 0 26.853 6.573 A 1.842 1.842 0 0 0 26.587 6.425 Z M 112.825 2.751 L 112.447 2.628 L 112.447 3.252 L 112.825 2.751 Z M 123.214 2.751 L 122.836 2.628 L 122.836 3.252 L 123.214 2.751 Z M 13.755 7.269 L 13.632 7.137 L 13.377 7.646 L 13.755 7.77 L 13.755 7.269 Z M 70.813 3.586 L 70.181 3.076 A 1.16 1.16 0 0 0 70.555 3.454 A 1.596 1.596 0 0 0 70.813 3.586 Z M 29.294 4.755 L 29.162 4.623 L 29.294 5.396 L 29.294 4.755 Z M 97.207 3.999 L 96.715 3.999 Q 96.768 4.271 96.961 4.482 L 97.207 3.999 Z M 29.936 3.463 A 1.027 1.027 0 0 0 30.182 3.974 A 1.383 1.383 0 0 0 30.322 4.113 A 1.9 1.9 0 0 0 30.192 3.837 Q 30.089 3.656 29.936 3.463 Z M 53.661 9.763 A 1.518 1.518 0 0 0 53.684 9.773 Q 53.587 9.431 53.174 9.264 Q 53.285 9.579 53.661 9.763 Z M 129.317 9.763 A 1.518 1.518 0 0 0 129.34 9.773 Q 129.243 9.431 128.831 9.264 Q 128.941 9.579 129.317 9.763 Z M 139.855 9.763 A 1.518 1.518 0 0 0 139.878 9.773 Q 139.781 9.431 139.369 9.264 Q 139.479 9.579 139.855 9.763 Z M 3.067 3.059 L 2.681 2.936 L 2.681 3.445 L 3.067 3.059 Z M 89.341 2.619 L 88.972 2.619 A 0.824 0.824 0 0 0 89.211 3.105 A 1.018 1.018 0 0 0 89.218 3.111 L 89.341 2.619 Z M 39.876 8.859 L 39.375 8.859 L 39.498 9.237 L 39.876 8.859 Z M 27.229 8.104 L 26.974 8.745 A 1.095 1.095 0 0 0 27.164 8.43 A 0.969 0.969 0 0 0 27.229 8.104 Z M 84.656 7.55 L 84.533 7.55 L 84.41 8.042 L 84.656 8.042 L 84.656 7.55 Z M 110.065 6.891 L 109.942 6.39 L 109.696 6.759 L 110.065 6.891 Z M 120.454 6.891 L 120.331 6.39 L 120.085 6.759 L 120.454 6.891 Z M 40.641 2.883 L 40.509 2.883 L 40.263 3.261 L 40.641 3.261 L 40.641 2.883 Z M 68.168 10.767 L 67.922 11.136 L 68.423 11.013 Q 68.391 10.863 68.212 10.784 A 0.682 0.682 0 0 0 68.168 10.767 Z M 27.229 9.782 A 0.704 0.704 0 0 0 27.475 10.193 A 1.026 1.026 0 0 0 27.615 10.292 A 0.624 0.624 0 0 0 27.373 9.876 A 0.962 0.962 0 0 0 27.229 9.782 Z M 58.28 10.67 L 57.902 11.18 Q 58.195 11.053 58.267 10.742 A 0.855 0.855 0 0 0 58.28 10.67 Z M 133.937 10.67 L 133.559 11.18 Q 133.851 11.053 133.923 10.742 A 0.855 0.855 0 0 0 133.937 10.67 Z M 144.475 10.67 L 144.097 11.18 Q 144.389 11.053 144.461 10.742 A 0.855 0.855 0 0 0 144.475 10.67 Z M 96.346 9.132 L 96.1 9.009 L 95.985 9.501 L 96.346 9.132 Z M 8.42 8.675 L 8.033 8.675 Q 8.041 8.9 8.228 9.023 A 0.609 0.609 0 0 0 8.297 9.062 L 8.42 8.675 Z M 69.68 7.488 L 69.179 7.11 A 0.851 0.851 0 0 0 69.599 7.459 A 1.107 1.107 0 0 0 69.68 7.488 Z M 2.039 3.059 L 1.661 2.936 L 1.661 3.322 L 2.039 3.059 Z M 95.739 4.605 L 95.37 4.605 A 0.583 0.583 0 0 0 95.616 4.975 L 95.739 4.605 Z M 74.716 6.1 L 74.584 6.1 L 74.461 6.486 L 74.716 6.486 L 74.716 6.1 Z M 53.795 8.488 A 1.209 1.209 0 0 0 53.807 8.499 A 0.6 0.6 0 0 0 53.708 8.174 Q 53.656 8.091 53.575 8.012 A 1.177 1.177 0 0 0 53.552 7.989 Q 53.56 8.255 53.795 8.488 Z M 129.451 8.488 A 1.209 1.209 0 0 0 129.463 8.499 A 0.6 0.6 0 0 0 129.365 8.174 Q 129.312 8.091 129.232 8.012 A 1.177 1.177 0 0 0 129.208 7.989 Q 129.217 8.255 129.451 8.488 Z M 139.99 8.488 A 1.209 1.209 0 0 0 140.001 8.499 A 0.6 0.6 0 0 0 139.903 8.174 Q 139.85 8.091 139.77 8.012 A 1.177 1.177 0 0 0 139.746 7.989 Q 139.755 8.255 139.99 8.488 Z M 161.358 7.655 L 160.91 7.321 Q 161.042 7.603 161.358 7.655 Z M 84.287 6.073 L 84.164 6.073 L 84.041 6.442 L 84.287 6.442 L 84.287 6.073 Z M 111.454 6.636 L 111.7 7.137 Q 111.647 6.855 111.454 6.636 Z M 121.843 6.636 L 122.089 7.137 Q 122.036 6.855 121.843 6.636 Z M 87.249 1.881 L 86.871 2.259 Q 87.223 2.215 87.249 1.881 Z M 113.071 6.759 A 0.629 0.629 0 0 0 113.424 7.123 A 0.801 0.801 0 0 0 113.458 7.137 A 0.596 0.596 0 0 0 113.124 6.78 A 0.808 0.808 0 0 0 113.071 6.759 Z M 123.46 6.759 A 0.629 0.629 0 0 0 123.812 7.123 A 0.801 0.801 0 0 0 123.847 7.137 A 0.596 0.596 0 0 0 123.513 6.78 A 0.808 0.808 0 0 0 123.46 6.759 Z M 97.576 3.146 L 97.084 2.9 Q 97.286 3.103 97.576 3.146 Z M 84.779 7.058 L 84.287 6.812 A 0.897 0.897 0 0 0 84.779 7.058 Z M 53.552 11.057 L 53.938 11.435 A 0.564 0.564 0 0 0 53.623 11.086 A 0.812 0.812 0 0 0 53.552 11.057 Z M 129.208 11.057 L 129.595 11.435 A 0.564 0.564 0 0 0 129.279 11.086 A 0.812 0.812 0 0 0 129.208 11.057 Z M 139.746 11.057 L 140.133 11.435 A 0.564 0.564 0 0 0 139.818 11.086 A 0.812 0.812 0 0 0 139.746 11.057 Z M 74.201 5.968 A 1.441 1.441 0 0 0 74.215 5.977 A 0.624 0.624 0 0 0 73.88 5.617 A 0.849 0.849 0 0 0 73.837 5.599 Q 73.948 5.812 74.201 5.968 Z M 161.473 6.187 L 161.244 6.073 L 161.358 6.521 L 161.473 6.187 Z M 1.661 3.568 L 1.406 3.568 L 1.529 3.955 L 1.661 3.568 Z M 95.854 7.541 L 95.739 7.541 L 95.616 7.91 L 95.854 7.787 L 95.854 7.541 Z M 54.448 6.451 L 54.193 6.319 L 54.325 6.706 L 54.448 6.451 Z M 130.104 6.451 L 129.85 6.319 L 129.981 6.706 L 130.104 6.451 Z M 140.643 6.451 L 140.388 6.319 L 140.52 6.706 L 140.643 6.451 Z M 53.684 5.941 L 53.429 5.818 L 53.552 6.196 L 53.684 5.941 Z M 129.34 5.941 L 129.085 5.818 L 129.208 6.196 L 129.34 5.941 Z M 139.878 5.941 L 139.623 5.818 L 139.746 6.196 L 139.878 5.941 Z M 54.07 5.555 L 53.684 5.432 A 0.33 0.33 0 0 0 53.799 5.606 Q 53.845 5.643 53.907 5.673 A 0.715 0.715 0 0 0 53.938 5.687 L 54.07 5.555 Z M 129.727 5.555 L 129.34 5.432 A 0.33 0.33 0 0 0 129.455 5.606 Q 129.501 5.643 129.564 5.673 A 0.715 0.715 0 0 0 129.595 5.687 L 129.727 5.555 Z M 140.265 5.555 L 139.878 5.432 A 0.33 0.33 0 0 0 139.993 5.606 Q 140.039 5.643 140.102 5.673 A 0.715 0.715 0 0 0 140.133 5.687 L 140.265 5.555 Z M 24.785 2.953 L 25.172 3.217 Q 25.066 3.023 24.785 2.953 Z M 30.322 3.076 L 30.199 3.34 L 30.454 3.34 L 30.454 3.076 L 30.322 3.076 Z M 70.567 8.745 A 0.488 0.488 0 0 0 70.768 9.091 A 0.685 0.685 0 0 0 70.813 9.123 A 0.582 0.582 0 0 0 70.731 8.907 A 0.548 0.548 0 0 0 70.567 8.745 Z M 87.249 3.489 L 87.003 3.111 A 0.439 0.439 0 0 0 87.049 3.3 Q 87.11 3.417 87.249 3.489 Z M 108.571 2.874 A 0.487 0.487 0 0 0 108.757 3.056 Q 108.836 3.101 108.94 3.129 A 0.441 0.441 0 0 0 108.776 2.958 Q 108.712 2.918 108.629 2.891 A 0.943 0.943 0 0 0 108.571 2.874 Z M 118.96 2.874 A 0.487 0.487 0 0 0 119.146 3.056 Q 119.225 3.101 119.329 3.129 A 0.441 0.441 0 0 0 119.165 2.958 Q 119.101 2.918 119.018 2.891 A 0.943 0.943 0 0 0 118.96 2.874 Z M 19.582 7.515 L 19.459 7.515 L 19.582 7.901 L 19.582 7.515 Z M 109.063 8.517 L 109.441 8.763 Q 109.345 8.587 109.063 8.517 Z M 119.452 8.517 L 119.83 8.763 Q 119.733 8.587 119.452 8.517 Z M 113.827 6.891 L 114.205 7.137 A 0.466 0.466 0 0 0 114.049 6.982 Q 113.986 6.942 113.905 6.914 A 0.989 0.989 0 0 0 113.827 6.891 Z M 124.216 6.891 L 124.594 7.137 A 0.466 0.466 0 0 0 124.438 6.982 Q 124.374 6.942 124.293 6.914 A 0.989 0.989 0 0 0 124.216 6.891 Z M 108.686 10.521 L 108.571 10.775 L 108.817 10.775 L 108.817 10.521 L 108.686 10.521 Z M 119.074 10.521 L 118.96 10.775 L 119.206 10.775 L 119.206 10.521 L 119.074 10.521 Z M 109.819 2.373 L 110.188 2.628 A 0.441 0.441 0 0 0 110.024 2.457 Q 109.96 2.417 109.877 2.39 A 0.943 0.943 0 0 0 109.819 2.373 Z M 120.208 2.373 L 120.577 2.628 A 0.441 0.441 0 0 0 120.413 2.457 Q 120.349 2.417 120.266 2.39 A 0.943 0.943 0 0 0 120.208 2.373 Z M 14.52 9.923 L 14.388 9.923 L 14.52 10.301 L 14.52 9.923 Z M 48.902 3.647 L 48.771 3.647 L 48.902 4.025 L 48.902 3.647 Z M 103.799 5.959 L 103.438 5.827 Q 103.474 5.994 103.685 6.073 L 103.799 5.959 Z M 19.459 3.718 L 19.336 3.718 L 19.459 4.096 L 19.459 3.718 Z M 161.358 5.282 L 161.13 4.948 A 0.542 0.542 0 0 0 161.187 5.111 A 0.443 0.443 0 0 0 161.358 5.282 Z M 87.609 10.758 L 87.363 10.635 L 87.363 10.881 L 87.609 10.758 Z M 54.571 9.65 A 0.315 0.315 0 0 0 54.659 9.793 Q 54.725 9.857 54.835 9.905 A 0.267 0.267 0 0 0 54.727 9.729 Q 54.666 9.682 54.571 9.65 Z M 130.228 9.65 A 0.315 0.315 0 0 0 130.315 9.793 Q 130.381 9.857 130.491 9.905 A 0.267 0.267 0 0 0 130.383 9.729 Q 130.322 9.682 130.228 9.65 Z M 140.766 9.65 A 0.315 0.315 0 0 0 140.854 9.793 Q 140.919 9.857 141.029 9.905 A 0.267 0.267 0 0 0 140.921 9.729 Q 140.86 9.682 140.766 9.65 Z M 2.221 8.516 A 0.717 0.717 0 0 0 2.303 8.552 Q 2.263 8.433 2.08 8.321 A 1.243 1.243 0 0 0 2.039 8.297 Q 2.06 8.432 2.221 8.516 Z M 19.837 3.331 A 0.32 0.32 0 0 0 19.946 3.498 Q 19.99 3.534 20.051 3.564 A 0.73 0.73 0 0 0 20.101 3.586 Q 20.057 3.463 19.837 3.331 Z M 15.653 11.065 A 0.33 0.33 0 0 0 15.769 11.24 Q 15.815 11.277 15.877 11.306 A 0.715 0.715 0 0 0 15.908 11.32 A 0.268 0.268 0 0 0 15.815 11.158 Q 15.754 11.104 15.653 11.065 Z M 14.01 9.413 A 0.3 0.3 0 0 0 14.138 9.604 Q 14.191 9.641 14.265 9.668 A 0.294 0.294 0 0 0 14.218 9.586 Q 14.165 9.519 14.064 9.449 A 1.35 1.35 0 0 0 14.01 9.413 Z M 13.632 8.402 Q 13.676 8.534 13.887 8.657 A 0.296 0.296 0 0 0 13.784 8.491 Q 13.742 8.455 13.684 8.426 A 0.705 0.705 0 0 0 13.632 8.402 Z M 74.584 7.365 A 0.313 0.313 0 0 0 74.682 7.517 Q 74.724 7.555 74.782 7.585 A 0.719 0.719 0 0 0 74.839 7.611 Q 74.813 7.444 74.584 7.365 Z M 75.305 10.863 A 0.682 0.682 0 0 0 75.349 10.881 A 0.28 0.28 0 0 0 75.26 10.733 Q 75.221 10.697 75.166 10.668 A 0.711 0.711 0 0 0 75.094 10.635 Q 75.125 10.784 75.305 10.863 Z M 97.444 3.753 A 0.265 0.265 0 0 0 97.549 3.925 Q 97.59 3.956 97.645 3.981 A 0.662 0.662 0 0 0 97.69 3.999 A 0.265 0.265 0 0 0 97.585 3.827 Q 97.545 3.796 97.49 3.771 A 0.662 0.662 0 0 0 97.444 3.753 Z M 108.94 9.773 A 0.28 0.28 0 0 0 109.029 9.921 Q 109.068 9.957 109.123 9.986 A 0.711 0.711 0 0 0 109.195 10.02 A 0.283 0.283 0 0 0 109.147 9.937 Q 109.093 9.87 108.989 9.803 A 1.273 1.273 0 0 0 108.94 9.773 Z M 119.329 9.773 A 0.28 0.28 0 0 0 119.418 9.921 Q 119.457 9.957 119.512 9.986 A 0.711 0.711 0 0 0 119.584 10.02 A 0.283 0.283 0 0 0 119.536 9.937 Q 119.481 9.87 119.377 9.803 A 1.273 1.273 0 0 0 119.329 9.773 Z M 40.772 2.505 L 41.027 2.76 Q 40.983 2.628 40.772 2.505 Z M 102.463 8.64 A 0.265 0.265 0 0 0 102.568 8.811 Q 102.608 8.843 102.663 8.867 A 0.662 0.662 0 0 0 102.709 8.886 A 0.296 0.296 0 0 0 102.66 8.801 Q 102.605 8.732 102.501 8.664 A 1.251 1.251 0 0 0 102.463 8.64 Z M 75.349 9.756 A 0.296 0.296 0 0 0 75.398 9.84 Q 75.452 9.909 75.557 9.978 A 1.251 1.251 0 0 0 75.595 10.002 A 0.265 0.265 0 0 0 75.49 9.83 Q 75.449 9.799 75.394 9.774 A 0.662 0.662 0 0 0 75.349 9.756 Z M 102.955 6.196 A 0.298 0.298 0 0 0 103.054 6.358 Q 103.109 6.406 103.192 6.442 A 0.272 0.272 0 0 0 103.083 6.264 Q 103.041 6.233 102.985 6.208 A 0.644 0.644 0 0 0 102.955 6.196 Z M 24.653 2.566 L 24.785 2.83 L 24.785 2.566 L 24.653 2.566 Z M 2.171 2.549 L 2.303 2.804 L 2.303 2.549 L 2.171 2.549 Z M 53.938 8.499 L 54.07 8.754 L 54.07 8.499 L 53.938 8.499 Z M 129.595 8.499 L 129.727 8.754 L 129.727 8.499 L 129.595 8.499 Z M 140.133 8.499 L 140.265 8.754 L 140.265 8.499 L 140.133 8.499 Z M 26.719 5.273 L 26.842 5.528 L 26.842 5.273 L 26.719 5.273 Z M 40.008 2.505 L 40.131 2.76 L 40.131 2.505 L 40.008 2.505 Z M 40.263 4.157 L 40.386 4.412 L 40.386 4.157 L 40.263 4.157 Z M 161.196 4.802 A 1.255 1.255 0 0 0 161.244 4.834 A 0.239 0.239 0 0 0 161.152 4.685 Q 161.115 4.656 161.065 4.634 A 0.61 0.61 0 0 0 161.016 4.614 Q 161.053 4.705 161.196 4.802 Z M 161.13 9.571 A 0.231 0.231 0 0 0 161.202 9.698 Q 161.259 9.752 161.358 9.791 Q 161.314 9.677 161.13 9.571 Z M 96.715 8.279 L 96.838 8.525 L 96.838 8.279 L 96.715 8.279 Z" vector-effect="non-scaling-stroke"/></g></svg>