<svg width="109pt" height="10pt" viewBox="0 0 109 10" xmlns="http://www.w3.org/2000/svg"><g id="fontsvg1672116016234" stroke-linecap="round" fill-rule="evenodd" fill="#ff9900"><path d="M 25.57 0.99 L 26.25 0.568 A 6.174 6.174 0 0 0 26.726 0.666 Q 26.971 0.708 27.246 0.736 A 10.055 10.055 0 0 0 27.264 0.738 L 28.195 0.82 A 1.952 1.952 0 0 1 28.601 1.176 A 2.468 2.468 0 0 1 28.787 1.418 L 29.045 3.275 L 29.297 4.207 L 29.379 5.309 A 4.048 4.048 0 0 1 29.262 6.129 A 4.66 4.66 0 0 1 29.209 6.328 A 0.551 0.551 0 0 0 29.444 6.568 A 0.685 0.685 0 0 0 29.467 6.58 L 29.725 6.246 L 29.807 5.906 L 29.637 5.824 L 29.725 5.648 L 29.889 4.887 L 29.807 4.377 L 29.977 4.043 L 30.146 3.023 A 3.247 3.247 0 0 1 30.234 2.446 A 3.893 3.893 0 0 1 30.311 2.174 L 30.48 1.248 A 2.135 2.135 0 0 1 31.221 0.829 A 2.437 2.437 0 0 1 31.248 0.82 L 32.35 0.738 L 33.363 0.902 A 4.054 4.054 0 0 1 33.615 1.84 L 33.615 4.125 L 33.533 4.887 L 33.615 5.145 L 33.615 5.906 L 33.703 6.076 L 33.615 6.158 L 33.703 7.008 L 33.615 8.109 A 5.312 5.312 0 0 1 33.261 8.323 A 7.157 7.157 0 0 1 32.854 8.531 A 3.322 3.322 0 0 1 32.226 8.444 A 4.029 4.029 0 0 1 31.928 8.361 A 1.834 1.834 0 0 1 31.521 7.737 A 2.126 2.126 0 0 1 31.5 7.682 L 31.834 2.684 A 2.127 2.127 0 0 0 31.6 3.095 A 2.669 2.669 0 0 0 31.5 3.363 L 31.078 6.158 A 4.535 4.535 0 0 1 30.913 6.626 A 5.84 5.84 0 0 1 30.738 7.008 L 30.826 7.77 L 30.738 8.027 A 4.478 4.478 0 0 1 30.425 8.237 Q 30.255 8.341 30.059 8.443 L 29.807 8.443 L 29.807 8.531 L 29.045 8.443 A 3.268 3.268 0 0 1 28.668 8.1 A 4.031 4.031 0 0 1 28.453 7.852 L 28.365 6.75 L 27.943 4.887 A 3.011 3.011 0 0 1 27.788 4.21 A 3.449 3.449 0 0 1 27.773 4.043 L 27.604 3.023 L 27.604 2.602 L 27.352 3.023 L 27.521 3.955 L 27.434 4.723 L 27.521 4.975 L 27.434 6.076 L 27.855 7.77 A 2.055 2.055 0 0 1 27.523 8.155 A 2.622 2.622 0 0 1 27.264 8.361 L 26.502 8.443 L 26.25 8.361 Q 25.863 8.244 25.482 7.934 L 25.482 6.75 L 25.652 5.736 L 25.4 4.805 L 25.652 3.955 L 25.4 3.023 L 25.482 1.922 L 25.4 1.67 L 25.57 0.99 Z M 35.537 0.557 L 36.896 0.721 L 38.174 0.639 L 39.281 0.721 L 39.539 0.639 A 2.124 2.124 0 0 1 40.444 1.046 A 2.473 2.473 0 0 1 40.471 1.066 L 40.559 2.004 L 40.471 2.256 L 40.219 2.684 L 39.621 2.766 L 39.451 2.684 L 36.896 2.596 L 37.154 3.451 L 39.709 3.275 L 39.961 3.369 L 40.389 3.703 L 40.301 4.389 Q 40.16 4.857 39.873 5.326 L 38.602 5.408 L 37.406 5.068 A 1.609 1.609 0 0 0 37.004 5.92 A 2.059 2.059 0 0 0 36.984 6.088 A 3.158 3.158 0 0 0 38.004 6.346 L 40.389 6.176 L 40.646 6.346 L 40.811 7.283 A 2.998 2.998 0 0 1 40.644 7.983 A 3.794 3.794 0 0 1 40.471 8.385 L 39.539 8.473 L 39.281 8.385 L 38.004 8.221 A 4.92 4.92 0 0 1 36.906 8.382 A 5.495 5.495 0 0 1 36.809 8.385 L 35.619 8.561 A 2.328 2.328 0 0 1 34.945 8.082 A 2.845 2.845 0 0 1 34.764 7.881 L 34.682 6.943 L 34.764 6.686 L 34.852 6.006 L 34.764 5.836 L 34.764 5.326 L 34.852 3.879 L 34.764 2.684 L 34.852 1.236 A 2.324 2.324 0 0 1 35.19 0.84 A 3.134 3.134 0 0 1 35.537 0.557 Z M 85.975 0.557 L 87.334 0.721 L 88.611 0.639 L 89.719 0.721 L 89.977 0.639 A 2.124 2.124 0 0 1 90.881 1.046 A 2.473 2.473 0 0 1 90.908 1.066 L 90.996 2.004 L 90.908 2.256 L 90.656 2.684 L 90.059 2.766 L 89.889 2.684 L 87.334 2.596 L 87.592 3.451 L 90.146 3.275 L 90.398 3.369 L 90.826 3.703 L 90.738 4.389 Q 90.598 4.857 90.311 5.326 L 89.039 5.408 L 87.844 5.068 A 1.609 1.609 0 0 0 87.442 5.92 A 2.059 2.059 0 0 0 87.422 6.088 A 3.158 3.158 0 0 0 88.441 6.346 L 90.826 6.176 L 91.084 6.346 L 91.248 7.283 A 2.998 2.998 0 0 1 91.082 7.983 A 3.794 3.794 0 0 1 90.908 8.385 L 89.977 8.473 L 89.719 8.385 L 88.441 8.221 A 4.92 4.92 0 0 1 87.344 8.382 A 5.495 5.495 0 0 1 87.246 8.385 L 86.057 8.561 A 2.328 2.328 0 0 1 85.383 8.082 A 2.845 2.845 0 0 1 85.201 7.881 L 85.119 6.943 L 85.201 6.686 L 85.289 6.006 L 85.201 5.836 L 85.201 5.326 L 85.289 3.879 L 85.201 2.684 L 85.289 1.236 A 2.324 2.324 0 0 1 85.627 0.84 A 3.134 3.134 0 0 1 85.975 0.557 Z M 93 0.557 L 94.359 0.721 L 95.637 0.639 L 96.744 0.721 L 97.002 0.639 A 2.124 2.124 0 0 1 97.907 1.046 A 2.473 2.473 0 0 1 97.934 1.066 L 98.021 2.004 L 97.934 2.256 L 97.682 2.684 L 97.084 2.766 L 96.914 2.684 L 94.359 2.596 L 94.617 3.451 L 97.172 3.275 L 97.424 3.369 L 97.852 3.703 L 97.764 4.389 Q 97.623 4.857 97.336 5.326 L 96.064 5.408 L 94.869 5.068 A 1.609 1.609 0 0 0 94.467 5.92 A 2.059 2.059 0 0 0 94.447 6.088 A 3.158 3.158 0 0 0 95.467 6.346 L 97.852 6.176 L 98.109 6.346 L 98.273 7.283 A 2.998 2.998 0 0 1 98.107 7.983 A 3.794 3.794 0 0 1 97.934 8.385 L 97.002 8.473 L 96.744 8.385 L 95.467 8.221 A 4.92 4.92 0 0 1 94.369 8.382 A 5.495 5.495 0 0 1 94.271 8.385 L 93.082 8.561 A 2.328 2.328 0 0 1 92.408 8.082 A 2.845 2.845 0 0 1 92.227 7.881 L 92.145 6.943 L 92.227 6.686 L 92.314 6.006 L 92.227 5.836 L 92.227 5.326 L 92.314 3.879 L 92.227 2.684 L 92.314 1.236 A 2.324 2.324 0 0 1 92.652 0.84 A 3.134 3.134 0 0 1 93 0.557 Z M 7.816 1.037 L 8.66 0.533 A 7.185 7.185 0 0 1 9.226 0.631 A 9.825 9.825 0 0 1 9.844 0.785 L 10.266 1.119 L 10.102 4.166 L 10.184 5.52 A 2.389 2.389 0 0 0 10.32 5.959 A 3.298 3.298 0 0 0 10.523 6.363 L 11.367 6.533 L 11.625 6.445 A 2.113 2.113 0 0 0 11.9 5.971 A 2.901 2.901 0 0 0 12.047 5.52 L 11.959 4.248 L 12.047 3.322 L 11.959 2.982 L 12.047 1.887 L 11.877 1.289 L 11.959 1.119 L 12.129 0.867 L 13.143 0.533 A 5.141 5.141 0 0 1 13.779 0.637 A 6.762 6.762 0 0 1 14.326 0.785 L 14.414 1.119 L 14.326 2.057 L 14.074 2.309 A 2.087 2.087 0 0 1 14.178 2.621 Q 14.218 2.779 14.241 2.958 A 3.427 3.427 0 0 1 14.244 2.982 L 14.156 4.248 L 14.326 5.098 L 14.244 5.432 A 6.055 6.055 0 0 1 14.176 6.163 A 7.645 7.645 0 0 1 14.074 6.697 A 4.191 4.191 0 0 1 13.57 7.465 L 12.803 8.139 L 11.707 8.473 L 11.285 8.385 L 10.945 8.561 L 10.688 8.473 L 9.51 8.309 L 8.742 7.635 Q 8.391 7.307 8.068 6.867 L 7.816 4.758 L 7.816 3.322 L 7.898 2.391 A 8.412 8.412 0 0 1 7.838 1.775 Q 7.819 1.47 7.817 1.134 A 13.649 13.649 0 0 1 7.816 1.037 Z M 71.461 1.248 L 72.041 0.662 L 73.629 0.914 L 73.799 0.832 L 74.045 0.832 L 74.045 0.75 L 75.135 0.914 L 76.219 0.832 L 77.139 0.996 A 4.658 4.658 0 0 1 77.233 1.432 Q 77.272 1.663 77.296 1.923 A 7.838 7.838 0 0 1 77.303 1.998 Q 77.186 2.449 76.887 2.836 L 75.803 2.918 L 74.631 2.836 L 73.963 2.672 L 73.717 2.754 L 73.547 3 L 73.629 3.674 L 73.881 3.756 L 75.551 3.586 L 76.717 3.674 L 76.975 4.676 L 76.717 5.596 L 75.639 5.766 L 73.963 5.508 A 0.402 0.402 0 0 0 73.831 5.56 A 0.355 0.355 0 0 0 73.717 5.678 L 73.629 5.93 A 2.29 2.29 0 0 1 73.683 6.196 Q 73.703 6.334 73.712 6.491 A 4.184 4.184 0 0 1 73.717 6.598 L 73.799 7.348 L 73.717 7.6 L 73.799 8.273 L 73.459 8.437 L 72.545 8.52 A 2.321 2.321 0 0 1 72.118 8.447 Q 71.882 8.385 71.625 8.273 Q 71.396 7.951 71.291 7.518 L 71.461 6.428 L 71.373 5.344 L 71.461 4.424 L 71.373 3.258 L 71.461 2.502 L 71.373 2.25 L 71.291 1.5 L 71.461 1.248 Z M 78.387 1.248 L 78.967 0.662 L 80.555 0.914 L 80.725 0.832 L 80.971 0.832 L 80.971 0.75 L 82.061 0.914 L 83.145 0.832 L 84.064 0.996 A 4.658 4.658 0 0 1 84.159 1.432 Q 84.198 1.663 84.222 1.923 A 7.838 7.838 0 0 1 84.229 1.998 Q 84.111 2.449 83.813 2.836 L 82.729 2.918 L 81.557 2.836 L 80.889 2.672 L 80.643 2.754 L 80.473 3 L 80.555 3.674 L 80.807 3.756 L 82.477 3.586 L 83.643 3.674 L 83.9 4.676 L 83.643 5.596 L 82.564 5.766 L 80.889 5.508 A 0.402 0.402 0 0 0 80.757 5.56 A 0.355 0.355 0 0 0 80.643 5.678 L 80.555 5.93 A 2.29 2.29 0 0 1 80.609 6.196 Q 80.629 6.334 80.638 6.491 A 4.184 4.184 0 0 1 80.643 6.598 L 80.725 7.348 L 80.643 7.6 L 80.725 8.273 L 80.385 8.437 L 79.471 8.52 A 2.321 2.321 0 0 1 79.044 8.447 Q 78.808 8.385 78.551 8.273 Q 78.322 7.951 78.217 7.518 L 78.387 6.428 L 78.299 5.344 L 78.387 4.424 L 78.299 3.258 L 78.387 2.502 L 78.299 2.25 L 78.217 1.5 L 78.387 1.248 Z M 57.258 0.926 L 58.242 0.598 A 6.494 6.494 0 0 1 58.79 0.661 A 8.583 8.583 0 0 1 59.314 0.762 L 60.381 1.014 A 4.619 4.619 0 0 1 60.747 1.351 A 6.034 6.034 0 0 1 61.037 1.67 L 61.693 2.402 Q 61.594 2.824 61.289 3.229 A 3.328 3.328 0 0 1 60.639 3.643 A 3.847 3.847 0 0 1 60.469 3.721 A 2.879 2.879 0 0 1 59.926 3.437 A 3.588 3.588 0 0 1 59.643 3.229 L 58.904 2.654 L 58.002 3.064 A 3.745 3.745 0 0 0 57.438 3.777 A 4.143 4.143 0 0 0 57.422 3.803 L 57.346 4.459 L 57.422 4.705 L 57.422 4.957 L 57.75 5.941 L 58.576 6.434 A 2.896 2.896 0 0 0 59.469 6.153 A 3.315 3.315 0 0 0 59.561 6.105 L 60.217 5.449 A 3.064 3.064 0 0 1 60.837 5.583 A 3.67 3.67 0 0 1 61.125 5.689 A 3.309 3.309 0 0 1 61.493 6.057 A 4.413 4.413 0 0 1 61.781 6.434 A 4.86 4.86 0 0 1 61.549 6.861 A 6.45 6.45 0 0 1 61.289 7.254 L 60.545 7.91 L 59.725 8.402 L 58.822 8.484 L 58.576 8.402 L 58.242 8.484 L 57.422 8.32 L 56.52 7.91 L 55.371 6.346 L 55.207 5.197 L 55.289 4.049 L 55.207 3.393 L 55.289 3.229 L 55.371 2.982 L 55.781 2.074 L 56.438 1.418 L 57.258 0.926 Z M 14.889 0.598 L 15.92 0.768 L 16.611 0.68 L 16.869 0.768 L 17.467 1.371 L 17.895 2.051 L 18.24 2.912 A 0.59 0.59 0 0 0 18.63 2.702 A 0.806 0.806 0 0 0 18.668 2.654 A 1.952 1.952 0 0 1 18.939 2.164 A 2.408 2.408 0 0 1 19.102 1.969 A 2.507 2.507 0 0 1 19.427 1.218 A 2.818 2.818 0 0 1 19.441 1.195 L 20.215 0.768 L 21.416 0.768 L 22.107 1.277 A 2.472 2.472 0 0 1 21.726 1.907 A 2.814 2.814 0 0 1 21.674 1.969 L 19.787 4.629 Q 19.564 4.916 19.529 5.314 L 19.441 6.088 L 19.529 6.346 L 19.529 7.465 A 2.171 2.171 0 0 1 19.359 8.238 A 3.779 3.779 0 0 1 18.568 8.466 A 4.311 4.311 0 0 1 18.41 8.49 L 17.725 8.578 L 17.467 8.402 Q 17.279 8.098 17.209 7.723 L 17.127 5.49 L 17.209 4.975 L 17.039 4.629 L 16.436 4.025 L 14.549 1.371 A 2.954 2.954 0 0 1 14.889 0.598 Z M 46.787 0.797 L 47.543 0.545 A 4.531 4.531 0 0 1 48.551 0.715 L 49.225 1.131 Q 49.403 1.448 49.554 1.873 A 6.492 6.492 0 0 1 49.559 1.887 L 49.975 3.398 L 50.314 4.066 L 50.561 4.91 L 50.982 5.578 A 3.06 3.06 0 0 0 51.152 6.205 A 3.584 3.584 0 0 0 51.24 6.416 L 51.568 7.178 L 51.738 7.764 L 51.598 8.057 L 50.93 8.473 L 50.174 8.473 L 50.174 8.555 L 49.922 8.473 A 1.446 1.446 0 0 1 49.536 8.245 A 1.879 1.879 0 0 1 49.336 8.057 A 2.868 2.868 0 0 1 49.179 7.536 A 2.373 2.373 0 0 1 49.137 7.178 L 48.967 7.09 L 48.639 7.254 L 48.469 7.178 L 47.373 7.178 A 1.104 1.104 0 0 0 46.822 7.62 A 1.398 1.398 0 0 0 46.787 7.676 L 46.365 8.35 L 45.527 8.602 L 44.607 8.432 A 2.377 2.377 0 0 1 44.323 8.143 A 3.176 3.176 0 0 1 44.104 7.846 L 44.771 6.34 L 44.859 5.414 L 45.281 4.652 L 46.037 2.221 L 46.365 1.553 A 3.181 3.181 0 0 1 46.722 0.888 A 3.6 3.6 0 0 1 46.787 0.797 Z M 0 1.02 L 0.428 0.68 L 4.424 0.762 A 3.347 3.347 0 0 1 5.425 1.095 A 4.211 4.211 0 0 1 5.871 1.359 A 2.378 2.378 0 0 1 6.331 2.395 A 3.091 3.091 0 0 1 6.381 2.807 L 6.463 3.574 L 5.783 4.084 L 6.381 4.846 A 6.197 6.197 0 0 1 6.68 5.716 A 7.606 7.606 0 0 1 6.809 6.293 A 4.433 4.433 0 0 1 6.404 7.297 A 5.425 5.425 0 0 1 6.129 7.746 A 5.042 5.042 0 0 1 5.515 8.091 Q 5.133 8.273 4.676 8.426 L 4.084 8.508 L 3.914 8.426 L 1.617 8.508 L 1.359 8.426 L 1.107 8.426 L 1.107 8.508 A 1.782 1.782 0 0 1 0.036 7.565 A 2.335 2.335 0 0 1 0 7.488 L 0.17 5.701 L 0.082 4.846 L 0.17 3.914 L 0 1.02 Z M 64.23 1.359 L 65.455 0.627 L 66.762 0.627 L 67.33 0.791 A 4.38 4.38 0 0 1 68.091 1.043 A 5.841 5.841 0 0 1 68.713 1.359 A 3.098 3.098 0 0 1 69.224 1.809 Q 69.469 2.074 69.691 2.42 L 70.184 3.809 A 4.052 4.052 0 0 0 70.026 4.626 A 4.51 4.51 0 0 0 70.02 4.699 L 70.102 5.027 A 7.383 7.383 0 0 1 69.831 6.242 A 8.603 8.603 0 0 1 69.691 6.656 L 68.713 7.717 Q 68.232 8.057 67.488 8.449 L 65.701 8.531 Q 65.027 8.332 64.313 7.881 A 10.291 10.291 0 0 1 63.8 7.474 Q 63.534 7.249 63.252 6.984 L 62.766 5.437 L 62.848 3.885 A 4.068 4.068 0 0 1 62.966 3.245 Q 63.043 2.951 63.165 2.634 A 7.235 7.235 0 0 1 63.252 2.42 L 64.23 1.359 Z M 108.469 4.348 L 108.545 4.652 L 108.469 5.402 L 108.469 5.631 A 3.766 3.766 0 0 1 108.132 6.748 A 4.264 4.264 0 0 1 108.094 6.826 A 4.035 4.035 0 0 1 107.884 7.374 Q 107.762 7.638 107.595 7.914 A 6.631 6.631 0 0 1 107.572 7.951 L 106.969 8.994 L 106.441 9.299 Q 106.137 9.205 105.844 8.994 Q 105.873 8.408 105.99 7.805 A 3.503 3.503 0 0 0 106.258 7.089 A 4.559 4.559 0 0 0 106.365 6.527 A 5.8 5.8 0 0 0 106.524 5.788 A 7.674 7.674 0 0 0 106.594 5.104 L 106.664 4.729 L 106.594 4.576 L 106.518 2.625 L 106.441 2.473 L 106.365 2.25 Q 106.223 1.708 105.953 1.065 A 12.727 12.727 0 0 0 105.914 0.973 L 105.691 0.451 Q 105.842 0.265 106.067 0.066 A 4.855 4.855 0 0 1 106.143 0 Q 106.746 0.135 107.197 0.598 A 5.292 5.292 0 0 1 107.507 1.112 Q 107.648 1.376 107.778 1.682 A 8.652 8.652 0 0 1 107.795 1.723 A 3.21 3.21 0 0 1 108.026 2.306 Q 108.12 2.625 108.17 3 A 3.058 3.058 0 0 1 108.429 3.869 A 3.874 3.874 0 0 1 108.469 4.348 Z M 66.188 2.666 L 65.127 3.48 L 64.963 4.535 A 2.459 2.459 0 0 0 65.111 5.209 A 3.428 3.428 0 0 0 65.373 5.76 A 2.175 2.175 0 0 0 66.396 6.296 A 2.719 2.719 0 0 0 66.598 6.334 A 2.053 2.053 0 0 0 67.446 5.754 A 2.544 2.544 0 0 0 67.576 5.596 Q 67.752 5.039 67.816 4.213 Q 67.77 3.686 67.412 3.152 A 5.452 5.452 0 0 0 66.454 2.745 A 6.271 6.271 0 0 0 66.187 2.666 Z M 103.09 6.709 L 103.787 6.293 A 1.854 1.854 0 0 1 104.314 6.573 A 2.259 2.259 0 0 1 104.479 6.709 L 104.619 7.682 A 6.016 6.016 0 0 1 104.483 8.138 A 7.601 7.601 0 0 1 104.344 8.514 L 103.436 8.654 A 1.799 1.799 0 0 1 102.784 8.275 A 2.091 2.091 0 0 1 102.744 8.238 L 102.604 7.266 A 1.782 1.782 0 0 1 102.996 6.786 A 2.087 2.087 0 0 1 103.09 6.709 Z M 103.02 2.543 L 103.717 2.127 Q 104.139 2.244 104.479 2.543 L 104.549 2.748 L 104.479 3.234 L 104.479 3.445 A 3.999 3.999 0 0 1 104.444 3.811 Q 104.41 4.061 104.344 4.348 L 103.436 4.418 A 1.587 1.587 0 0 1 102.804 4.12 A 1.871 1.871 0 0 1 102.744 4.072 L 102.533 3.164 A 1.635 1.635 0 0 1 102.778 2.784 A 2.185 2.185 0 0 1 103.02 2.543 Z M 2.895 5.449 L 2.297 5.273 A 3.278 3.278 0 0 0 2.419 6.144 A 4.037 4.037 0 0 0 2.555 6.551 Q 3.293 6.504 4.254 6.293 L 4.424 5.531 L 3.832 5.273 L 2.895 5.449 Z M 2.725 2.637 L 2.467 2.467 L 2.297 3.316 L 2.379 3.656 L 2.637 3.656 A 9.395 9.395 0 0 1 3.373 3.542 A 11.865 11.865 0 0 1 3.996 3.486 L 4.342 2.895 L 3.832 2.637 L 3.404 2.725 L 3.152 2.637 L 2.725 2.637 Z M 47.543 4.74 L 47.461 5.332 L 48.217 5.414 Q 48.387 5.344 48.469 5.162 L 48.299 4.406 A 5.339 5.339 0 0 0 48.058 3.867 A 7.053 7.053 0 0 0 47.795 3.398 A 4.442 4.442 0 0 1 47.712 4.086 A 5.98 5.98 0 0 1 47.543 4.74 Z M 69.199 4.945 L 68.877 4.945 L 68.473 5.273 A 2.056 2.056 0 0 0 68.6 5.591 Q 68.681 5.754 68.795 5.924 L 68.713 5.273 L 69.199 4.945 Z M 59.807 6.844 L 59.068 7.254 A 0.676 0.676 0 0 0 59.309 7.46 A 0.857 0.857 0 0 0 59.396 7.5 A 1.813 1.813 0 0 1 59.836 7.247 A 2.228 2.228 0 0 1 60.053 7.172 A 0.409 0.409 0 0 0 59.883 6.892 A 0.618 0.618 0 0 0 59.807 6.844 Z M 68.549 2.584 L 67.734 1.852 A 0.948 0.948 0 0 0 68.281 2.495 A 1.426 1.426 0 0 0 68.549 2.584 Z M 2.297 4.764 L 1.699 4.166 L 1.787 4.934 L 2.297 4.764 Z M 13.482 4.588 L 13.143 4.078 L 12.973 4.928 Q 13.066 4.913 13.123 4.803 A 0.467 0.467 0 0 0 13.143 4.758 L 13.482 4.588 Z M 26.502 4.125 L 26.42 4.043 L 26.502 4.465 L 26.42 4.723 L 26.672 4.465 L 26.842 4.043 L 26.502 4.125 Z M 48.885 6.082 L 49.389 6.926 A 2.032 2.032 0 0 0 48.929 6.129 A 2.384 2.384 0 0 0 48.885 6.082 Z M 66.674 7.553 L 66.674 7.799 L 66.926 7.717 L 67.248 7.553 A 0.55 0.55 0 0 0 67.028 7.168 A 0.717 0.717 0 0 0 67.002 7.148 Q 66.809 7.301 66.674 7.553 Z M 72.381 2.502 A 0.947 0.947 0 0 0 72.615 2.802 Q 72.795 2.952 73.051 2.991 A 1.158 1.158 0 0 0 73.131 3 A 0.902 0.902 0 0 0 72.562 2.542 A 1.356 1.356 0 0 0 72.381 2.502 Z M 79.307 2.502 A 0.947 0.947 0 0 0 79.541 2.802 Q 79.721 2.952 79.977 2.991 A 1.158 1.158 0 0 0 80.057 3 A 0.902 0.902 0 0 0 79.488 2.542 A 1.356 1.356 0 0 0 79.307 2.502 Z M 46.201 3.902 A 1.282 1.282 0 0 0 46.635 4.359 A 1.72 1.72 0 0 0 46.875 4.488 A 1.937 1.937 0 0 0 46.39 4.019 A 2.363 2.363 0 0 0 46.201 3.902 Z M 56.52 2.654 L 56.355 3.229 A 0.148 0.148 0 0 0 56.381 3.315 Q 56.416 3.366 56.502 3.389 A 0.418 0.418 0 0 0 56.52 3.393 A 1.875 1.875 0 0 0 56.665 3.111 A 2.535 2.535 0 0 0 56.766 2.818 A 0.286 0.286 0 0 0 56.668 2.716 Q 56.627 2.69 56.574 2.671 A 0.64 0.64 0 0 0 56.52 2.654 Z M 5.613 6.463 L 4.852 6.639 L 5.191 6.809 A 0.646 0.646 0 0 0 5.404 6.72 A 0.564 0.564 0 0 0 5.613 6.463 Z M 47.291 2.561 L 47.121 3.229 L 47.461 3.229 A 1.409 1.409 0 0 0 47.335 2.653 A 1.683 1.683 0 0 0 47.291 2.561 Z M 9.088 2.982 L 8.83 2.73 L 8.66 3.234 L 8.918 3.404 L 9.088 2.982 Z M 17.467 3.516 L 17.385 3 L 16.951 3.428 L 17.467 3.516 Z M 36.809 6.861 L 36.475 7.283 L 36.639 7.541 A 1.434 1.434 0 0 0 36.805 6.954 A 1.709 1.709 0 0 0 36.809 6.861 Z M 87.246 6.861 L 86.912 7.283 L 87.076 7.541 A 1.434 1.434 0 0 0 87.242 6.954 A 1.709 1.709 0 0 0 87.246 6.861 Z M 94.271 6.861 L 93.938 7.283 L 94.102 7.541 A 1.434 1.434 0 0 0 94.268 6.954 A 1.709 1.709 0 0 0 94.271 6.861 Z M 63.902 3.721 L 63.744 4.131 L 63.99 4.295 L 64.154 4.213 A 0.906 0.906 0 0 0 63.902 3.721 Z M 4.084 4.424 L 3.914 4.764 L 4.424 4.846 Q 4.354 4.559 4.084 4.424 Z M 47.959 1.805 L 47.795 1.553 L 47.461 1.635 Q 47.546 1.791 47.731 1.925 A 1.482 1.482 0 0 0 47.795 1.969 L 47.959 1.805 Z M 66.105 7.471 L 65.865 7.148 L 65.701 7.553 L 65.941 7.635 L 66.105 7.471 Z M 26.332 2.602 L 26.754 2.684 A 0.646 0.646 0 0 0 26.632 2.325 A 0.837 0.837 0 0 0 26.584 2.262 Q 26.42 2.379 26.332 2.602 Z M 1.189 7.061 L 1.107 7.4 Q 1.277 7.541 1.359 7.57 L 1.447 7.23 A 2.296 2.296 0 0 0 1.368 7.168 Q 1.256 7.083 1.189 7.061 Z M 49.559 5.162 L 49.225 5.162 L 49.225 5.578 L 49.559 5.162 Z M 1.447 6.381 L 1.02 6.211 L 1.02 6.551 L 1.447 6.381 Z M 4.852 2.467 L 5.191 2.977 A 0.709 0.709 0 0 0 4.972 2.565 A 1.007 1.007 0 0 0 4.852 2.467 Z M 60.141 2.074 L 59.971 1.834 L 59.807 2.326 L 60.141 2.074 Z M 56.52 5.689 Q 56.602 5.988 56.854 6.182 A 0.553 0.553 0 0 0 56.659 5.791 A 0.88 0.88 0 0 0 56.52 5.689 Z M 38.514 1.324 A 0.81 0.81 0 0 0 38.762 1.636 A 1.123 1.123 0 0 0 38.936 1.746 Q 38.791 1.521 38.522 1.33 A 2.166 2.166 0 0 0 38.514 1.324 Z M 88.951 1.324 A 0.81 0.81 0 0 0 89.2 1.636 A 1.123 1.123 0 0 0 89.373 1.746 Q 89.229 1.521 88.959 1.33 A 2.166 2.166 0 0 0 88.951 1.324 Z M 95.977 1.324 A 0.81 0.81 0 0 0 96.225 1.636 A 1.123 1.123 0 0 0 96.398 1.746 Q 96.254 1.521 95.985 1.33 A 2.166 2.166 0 0 0 95.977 1.324 Z M 72.797 3.504 L 72.457 3.422 A 0.81 0.81 0 0 0 72.475 3.583 Q 72.496 3.677 72.541 3.747 A 0.409 0.409 0 0 0 72.627 3.844 L 72.797 3.504 Z M 79.723 3.504 L 79.383 3.422 A 0.81 0.81 0 0 0 79.401 3.583 Q 79.422 3.677 79.467 3.747 A 0.409 0.409 0 0 0 79.553 3.844 L 79.723 3.504 Z M 38.174 7.371 L 37.746 7.195 L 37.834 7.541 L 38.174 7.371 Z M 88.611 7.371 L 88.184 7.195 L 88.271 7.541 L 88.611 7.371 Z M 95.637 7.371 L 95.209 7.195 L 95.297 7.541 L 95.637 7.371 Z M 57.422 6.926 A 1.434 1.434 0 0 0 57.061 7.138 A 1.747 1.747 0 0 0 56.93 7.254 A 1.436 1.436 0 0 0 57.402 6.945 A 1.39 1.39 0 0 0 57.422 6.926 Z M 1.02 3.316 A 1.035 1.035 0 0 0 1.246 3.482 A 0.831 0.831 0 0 0 1.535 3.574 Q 1.33 3.381 1.02 3.316 Z M 18.926 4.201 L 18.668 4.717 A 0.723 0.723 0 0 0 18.92 4.251 A 0.958 0.958 0 0 0 18.926 4.201 Z M 5.191 5.355 L 5.531 5.191 A 0.411 0.411 0 0 0 5.472 5.046 A 0.379 0.379 0 0 0 5.355 4.934 A 0.597 0.597 0 0 0 5.191 5.355 Z M 32.602 3.105 L 32.35 3.621 A 0.947 0.947 0 0 0 32.602 3.105 Z M 36.217 2.432 L 35.959 2.941 A 0.834 0.834 0 0 0 36.217 2.432 Z M 86.654 2.432 L 86.396 2.941 A 0.834 0.834 0 0 0 86.654 2.432 Z M 93.68 2.432 L 93.422 2.941 A 0.834 0.834 0 0 0 93.68 2.432 Z M 48.967 2.051 L 48.469 2.051 A 0.182 0.182 0 0 0 48.545 2.173 Q 48.573 2.194 48.612 2.21 A 0.452 0.452 0 0 0 48.639 2.221 L 48.967 2.051 Z M 17.725 4.283 A 1.427 1.427 0 0 0 17.941 4.488 A 1.892 1.892 0 0 0 18.152 4.629 A 0.92 0.92 0 0 0 17.902 4.382 A 1.228 1.228 0 0 0 17.725 4.283 Z M 75.217 1.834 L 74.965 1.752 L 74.965 2.168 L 75.217 1.834 Z M 82.143 1.834 L 81.891 1.752 L 81.891 2.168 L 82.143 1.834 Z M 9.17 4.846 L 9.088 4.758 L 8.918 5.098 L 9.17 5.18 L 9.17 4.846 Z M 47.209 2.391 L 46.787 2.051 A 0.773 0.773 0 0 0 47.037 2.302 A 1.064 1.064 0 0 0 47.209 2.391 Z M 19.529 3.17 L 19.441 3.082 L 19.529 3.598 L 19.529 3.17 Z M 64.805 2.666 L 64.477 2.666 Q 64.512 2.848 64.641 2.988 L 64.805 2.666 Z M 19.957 2.309 A 0.685 0.685 0 0 0 20.122 2.65 A 0.922 0.922 0 0 0 20.215 2.742 Q 20.139 2.537 19.957 2.309 Z M 35.449 6.176 Q 35.525 6.393 35.789 6.516 A 0.466 0.466 0 0 0 35.604 6.259 A 0.742 0.742 0 0 0 35.45 6.176 Z M 85.887 6.176 Q 85.963 6.393 86.227 6.516 A 0.466 0.466 0 0 0 86.041 6.259 A 0.742 0.742 0 0 0 85.887 6.176 Z M 92.912 6.176 Q 92.988 6.393 93.252 6.516 A 0.466 0.466 0 0 0 93.067 6.259 A 0.742 0.742 0 0 0 92.912 6.176 Z M 2.045 2.039 L 1.787 1.957 L 1.787 2.297 L 2.045 2.039 Z M 59.561 1.746 L 59.314 1.746 A 0.549 0.549 0 0 0 59.474 2.07 A 0.679 0.679 0 0 0 59.479 2.074 L 59.561 1.746 Z M 26.584 5.906 L 26.25 5.906 L 26.332 6.158 L 26.584 5.906 Z M 18.152 5.402 L 17.982 5.83 Q 18.146 5.637 18.152 5.402 Z M 56.438 5.033 L 56.355 5.033 L 56.273 5.361 L 56.438 5.361 L 56.438 5.033 Z M 73.377 4.594 L 73.295 4.26 L 73.131 4.506 L 73.377 4.594 Z M 80.303 4.594 L 80.221 4.26 L 80.057 4.506 L 80.303 4.594 Z M 27.094 1.922 L 27.006 1.922 L 26.842 2.174 L 27.094 2.174 L 27.094 1.922 Z M 45.445 7.178 L 45.281 7.424 L 45.615 7.342 A 0.19 0.19 0 0 0 45.542 7.228 Q 45.513 7.206 45.475 7.189 A 0.455 0.455 0 0 0 45.445 7.178 Z M 18.152 6.521 A 0.469 0.469 0 0 0 18.317 6.795 A 0.684 0.684 0 0 0 18.41 6.861 Q 18.381 6.645 18.152 6.521 Z M 38.854 7.113 L 38.602 7.453 A 0.416 0.416 0 0 0 38.762 7.335 Q 38.834 7.246 38.854 7.113 Z M 89.291 7.113 L 89.039 7.453 A 0.416 0.416 0 0 0 89.2 7.335 Q 89.272 7.246 89.291 7.113 Z M 96.316 7.113 L 96.064 7.453 A 0.416 0.416 0 0 0 96.225 7.335 Q 96.297 7.246 96.316 7.113 Z M 64.23 6.088 L 64.066 6.006 L 63.99 6.334 L 64.23 6.088 Z M 5.613 5.783 L 5.355 5.783 Q 5.361 5.959 5.531 6.041 L 5.613 5.783 Z M 46.453 4.992 L 46.119 4.74 A 0.567 0.567 0 0 0 46.399 4.973 A 0.738 0.738 0 0 0 46.453 4.992 Z M 1.359 2.039 L 1.107 1.957 L 1.107 2.215 L 1.359 2.039 Z M 63.826 3.07 L 63.58 3.07 Q 63.615 3.229 63.744 3.316 L 63.826 3.07 Z M 49.811 4.066 L 49.723 4.066 L 49.641 4.324 L 49.811 4.324 L 49.811 4.066 Z M 35.701 5.326 A 0.431 0.431 0 0 0 35.77 5.544 Q 35.807 5.603 35.863 5.659 A 0.809 0.809 0 0 0 35.871 5.666 Q 35.871 5.493 35.717 5.341 A 0.785 0.785 0 0 0 35.701 5.326 Z M 86.139 5.326 A 0.431 0.431 0 0 0 86.208 5.544 Q 86.245 5.603 86.301 5.659 A 0.809 0.809 0 0 0 86.309 5.666 Q 86.309 5.493 86.154 5.341 A 0.785 0.785 0 0 0 86.139 5.326 Z M 93.164 5.326 A 0.431 0.431 0 0 0 93.233 5.544 Q 93.27 5.603 93.326 5.659 A 0.809 0.809 0 0 0 93.334 5.666 Q 93.334 5.493 93.18 5.341 A 0.785 0.785 0 0 0 93.164 5.326 Z M 107.572 5.104 L 107.273 4.881 A 0.388 0.388 0 0 0 107.387 5.027 Q 107.454 5.078 107.546 5.098 A 0.514 0.514 0 0 0 107.572 5.104 Z M 56.191 4.049 L 56.109 4.049 L 56.027 4.295 L 56.191 4.295 L 56.191 4.049 Z M 74.303 4.424 L 74.467 4.758 A 0.69 0.69 0 0 0 74.303 4.424 Z M 81.229 4.424 L 81.393 4.758 A 0.69 0.69 0 0 0 81.229 4.424 Z M 58.166 1.254 L 57.914 1.506 Q 58.124 1.48 58.16 1.298 A 0.382 0.382 0 0 0 58.166 1.254 Z M 75.381 4.506 A 0.419 0.419 0 0 0 75.616 4.749 A 0.534 0.534 0 0 0 75.639 4.758 A 0.397 0.397 0 0 0 75.416 4.52 A 0.539 0.539 0 0 0 75.381 4.506 Z M 82.307 4.506 A 0.419 0.419 0 0 0 82.541 4.749 A 0.534 0.534 0 0 0 82.564 4.758 A 0.397 0.397 0 0 0 82.342 4.52 A 0.539 0.539 0 0 0 82.307 4.506 Z M 65.051 2.098 L 64.723 1.934 A 0.573 0.573 0 0 0 65.051 2.098 Z M 56.52 4.705 L 56.191 4.541 A 0.598 0.598 0 0 0 56.52 4.705 Z M 35.701 7.371 L 35.959 7.623 Q 35.9 7.441 35.701 7.371 Z M 86.139 7.371 L 86.396 7.623 Q 86.338 7.441 86.139 7.371 Z M 93.164 7.371 L 93.422 7.623 Q 93.363 7.441 93.164 7.371 Z M 49.225 3.732 A 0.563 0.563 0 0 0 49.342 3.884 Q 49.396 3.935 49.467 3.979 A 0.959 0.959 0 0 0 49.477 3.984 A 0.416 0.416 0 0 0 49.253 3.745 A 0.566 0.566 0 0 0 49.225 3.732 Z M 107.648 4.125 L 107.496 4.049 L 107.572 4.348 L 107.648 4.125 Z M 1.107 2.379 L 0.938 2.379 L 1.02 2.637 L 1.107 2.379 Z M 63.902 5.027 L 63.826 5.027 L 63.744 5.273 L 63.902 5.191 L 63.902 5.027 Z M 36.299 4.301 L 36.129 4.213 L 36.217 4.471 L 36.299 4.301 Z M 86.736 4.301 L 86.566 4.213 L 86.654 4.471 L 86.736 4.301 Z M 93.762 4.301 L 93.592 4.213 L 93.68 4.471 L 93.762 4.301 Z M 35.789 3.961 L 35.619 3.879 L 35.701 4.131 L 35.789 3.961 Z M 86.227 3.961 L 86.057 3.879 L 86.139 4.131 L 86.227 3.961 Z M 93.252 3.961 L 93.082 3.879 L 93.164 4.131 L 93.252 3.961 Z M 36.047 3.703 L 35.789 3.621 Q 35.818 3.732 35.959 3.791 L 36.047 3.703 Z M 86.484 3.703 L 86.227 3.621 Q 86.256 3.732 86.396 3.791 L 86.484 3.703 Z M 93.51 3.703 L 93.252 3.621 Q 93.281 3.732 93.422 3.791 L 93.51 3.703 Z M 16.523 1.969 L 16.781 2.145 Q 16.716 2.026 16.552 1.977 A 0.653 0.653 0 0 0 16.523 1.969 Z M 20.215 2.051 L 20.133 2.227 L 20.303 2.227 L 20.303 2.051 L 20.215 2.051 Z M 47.045 5.83 A 0.326 0.326 0 0 0 47.178 6.061 A 0.457 0.457 0 0 0 47.209 6.082 Q 47.18 5.918 47.045 5.83 Z M 58.166 2.326 L 58.002 2.074 A 0.292 0.292 0 0 0 58.033 2.2 Q 58.065 2.262 58.13 2.305 A 0.391 0.391 0 0 0 58.166 2.326 Z M 72.61 2.081 A 0.636 0.636 0 0 0 72.627 2.086 Q 72.57 1.976 72.419 1.927 A 0.629 0.629 0 0 0 72.381 1.916 Q 72.448 2.033 72.61 2.081 Z M 79.536 2.081 A 0.636 0.636 0 0 0 79.553 2.086 Q 79.495 1.976 79.345 1.927 A 0.629 0.629 0 0 0 79.307 1.916 Q 79.373 2.033 79.536 2.081 Z M 13.055 5.01 L 12.973 5.01 L 13.055 5.268 L 13.055 5.01 Z M 72.709 5.678 L 72.961 5.842 Q 72.896 5.725 72.709 5.678 Z M 79.635 5.678 L 79.887 5.842 Q 79.822 5.725 79.635 5.678 Z M 75.885 4.594 L 76.137 4.758 Q 76.077 4.658 75.936 4.609 A 0.66 0.66 0 0 0 75.885 4.594 Z M 82.811 4.594 L 83.063 4.758 Q 83.003 4.658 82.862 4.609 A 0.66 0.66 0 0 0 82.811 4.594 Z M 72.457 7.014 L 72.381 7.184 L 72.545 7.184 L 72.545 7.014 L 72.457 7.014 Z M 79.383 7.014 L 79.307 7.184 L 79.471 7.184 L 79.471 7.014 L 79.383 7.014 Z M 73.213 1.582 L 73.459 1.752 Q 73.402 1.642 73.251 1.593 A 0.629 0.629 0 0 0 73.213 1.582 Z M 80.139 1.582 L 80.385 1.752 Q 80.327 1.642 80.177 1.593 A 0.629 0.629 0 0 0 80.139 1.582 Z M 9.68 6.615 L 9.592 6.615 L 9.68 6.867 L 9.68 6.615 Z M 32.602 2.432 L 32.514 2.432 L 32.602 2.684 L 32.602 2.432 Z M 69.199 3.973 L 68.959 3.885 A 0.195 0.195 0 0 0 69.037 4.003 Q 69.066 4.025 69.105 4.041 A 0.443 0.443 0 0 0 69.123 4.049 L 69.199 3.973 Z M 12.973 2.479 L 12.891 2.479 L 12.973 2.73 L 12.973 2.479 Z M 107.572 3.521 L 107.42 3.299 Q 107.449 3.451 107.572 3.521 Z M 58.406 7.172 L 58.242 7.09 L 58.242 7.254 L 58.406 7.172 Z M 36.381 6.434 A 0.21 0.21 0 0 0 36.439 6.529 Q 36.467 6.555 36.505 6.578 A 0.514 0.514 0 0 0 36.557 6.604 Q 36.541 6.501 36.418 6.448 A 0.464 0.464 0 0 0 36.381 6.434 Z M 86.818 6.434 A 0.21 0.21 0 0 0 86.877 6.529 Q 86.904 6.555 86.943 6.578 A 0.514 0.514 0 0 0 86.994 6.604 Q 86.979 6.501 86.856 6.448 A 0.464 0.464 0 0 0 86.818 6.434 Z M 93.844 6.434 A 0.21 0.21 0 0 0 93.902 6.529 Q 93.93 6.555 93.968 6.578 A 0.514 0.514 0 0 0 94.02 6.604 Q 94.004 6.501 93.881 6.448 A 0.464 0.464 0 0 0 93.844 6.434 Z M 1.359 5.531 Q 1.377 5.643 1.535 5.701 A 0.193 0.193 0 0 0 1.5 5.64 Q 1.461 5.593 1.387 5.547 A 0.828 0.828 0 0 0 1.359 5.531 Z M 13.225 2.221 A 0.214 0.214 0 0 0 13.298 2.332 Q 13.339 2.366 13.4 2.391 A 0.187 0.187 0 0 0 13.37 2.337 Q 13.324 2.28 13.225 2.221 Z M 10.436 7.377 Q 10.465 7.488 10.605 7.547 Q 10.591 7.453 10.48 7.397 A 0.467 0.467 0 0 0 10.436 7.377 Z M 9.34 6.275 A 0.2 0.2 0 0 0 9.425 6.403 Q 9.456 6.424 9.497 6.44 A 0.456 0.456 0 0 0 9.51 6.445 A 0.196 0.196 0 0 0 9.479 6.391 Q 9.434 6.334 9.34 6.275 Z M 9.088 5.602 A 0.201 0.201 0 0 0 9.123 5.664 Q 9.162 5.712 9.237 5.759 A 0.811 0.811 0 0 0 9.258 5.771 Q 9.237 5.674 9.123 5.617 A 0.47 0.47 0 0 0 9.088 5.602 Z M 49.723 4.91 Q 49.752 5.016 49.893 5.074 Q 49.878 4.979 49.764 4.927 A 0.452 0.452 0 0 0 49.723 4.91 Z M 50.062 7.09 A 0.19 0.19 0 0 0 50.136 7.203 Q 50.164 7.225 50.203 7.242 A 0.455 0.455 0 0 0 50.232 7.254 A 0.186 0.186 0 0 0 50.173 7.155 Q 50.147 7.132 50.11 7.112 A 0.474 0.474 0 0 0 50.063 7.09 Z M 64.963 2.502 A 0.177 0.177 0 0 0 65.033 2.616 Q 65.06 2.637 65.097 2.654 A 0.441 0.441 0 0 0 65.127 2.666 A 0.177 0.177 0 0 0 65.057 2.552 Q 65.03 2.531 64.993 2.514 A 0.441 0.441 0 0 0 64.963 2.502 Z M 72.627 6.516 A 0.186 0.186 0 0 0 72.686 6.614 Q 72.712 6.638 72.749 6.658 A 0.474 0.474 0 0 0 72.797 6.68 Q 72.771 6.607 72.659 6.535 A 0.849 0.849 0 0 0 72.627 6.516 Z M 79.553 6.516 A 0.186 0.186 0 0 0 79.612 6.614 Q 79.638 6.638 79.675 6.658 A 0.474 0.474 0 0 0 79.723 6.68 Q 79.697 6.607 79.585 6.535 A 0.849 0.849 0 0 0 79.553 6.516 Z M 27.182 1.67 L 27.352 1.84 A 0.201 0.201 0 0 0 27.316 1.777 Q 27.277 1.729 27.202 1.682 A 0.811 0.811 0 0 0 27.182 1.67 Z M 50.232 6.504 A 0.198 0.198 0 0 0 50.265 6.56 Q 50.302 6.606 50.371 6.652 A 0.834 0.834 0 0 0 50.396 6.668 A 0.177 0.177 0 0 0 50.326 6.553 Q 50.3 6.532 50.263 6.516 A 0.441 0.441 0 0 0 50.232 6.504 Z M 68.309 5.76 A 0.177 0.177 0 0 0 68.379 5.874 Q 68.405 5.895 68.442 5.912 A 0.441 0.441 0 0 0 68.473 5.924 A 0.198 0.198 0 0 0 68.44 5.867 Q 68.403 5.822 68.334 5.776 A 0.834 0.834 0 0 0 68.309 5.76 Z M 68.637 4.131 A 0.199 0.199 0 0 0 68.702 4.238 Q 68.739 4.271 68.795 4.295 Q 68.777 4.184 68.637 4.131 Z M 16.436 1.711 L 16.523 1.887 L 16.523 1.711 L 16.436 1.711 Z M 1.447 1.699 L 1.535 1.869 L 1.535 1.699 L 1.447 1.699 Z M 35.959 5.666 L 36.047 5.836 L 36.047 5.666 L 35.959 5.666 Z M 86.396 5.666 L 86.484 5.836 L 86.484 5.666 L 86.396 5.666 Z M 93.422 5.666 L 93.51 5.836 L 93.51 5.666 L 93.422 5.666 Z M 17.813 3.516 L 17.895 3.686 L 17.895 3.516 L 17.813 3.516 Z M 26.672 1.67 L 26.754 1.84 L 26.754 1.67 L 26.672 1.67 Z M 26.842 2.771 L 26.924 2.941 L 26.924 2.771 L 26.842 2.771 Z M 107.464 3.202 A 0.837 0.837 0 0 0 107.496 3.223 A 0.159 0.159 0 0 0 107.435 3.123 Q 107.41 3.104 107.376 3.089 A 0.407 0.407 0 0 0 107.344 3.076 Q 107.369 3.137 107.464 3.202 Z M 107.42 6.381 A 0.154 0.154 0 0 0 107.468 6.465 Q 107.49 6.486 107.521 6.504 A 0.422 0.422 0 0 0 107.572 6.527 Q 107.545 6.456 107.435 6.39 A 0.738 0.738 0 0 0 107.42 6.381 Z M 64.477 5.52 L 64.559 5.684 L 64.559 5.52 L 64.477 5.52 Z" vector-effect="non-scaling-stroke"/></g></svg>